{
DisplayStrings = (
/tml_A/tml_Aa/tml_I/tml_Ii/tml_U/tml_Uu/tml_E/tml_E/tml_Ee/tml_Ai/tml_O/tml_Oo/tml_Au/tml_Ka/tml_Nga/tml_Ca/tml_Ja/tml_Nya/tml_Tta/tml_Nna/tml_Ta/tml_Na/tml_Nnna/tml_Pa/tml_Ma/tml_Ya/tml_Ra/tml_Rra/tml_La/tml_Lla/tml_Llla/tml_Va/tml_Sha/tml_Ssa/tml_Sa/tml_Ha,
/tml_Month,
/tml_LlUu,
/tml_NgUu,
/tml_TU,
/tml_Va,
/tml_LllU,
/tml_LllUu,
/tml_LlU,
/tml_Five
);
copyright = "Licensed under the SIL Open Font License 1.1 (see file OFL.txt)";
customParameters = (
{
name = note;
value = "";
},
{
name = openTypeNameVersion;
value = "Version 2.5.0";
},
{
name = openTypeOS2CodePageRanges;
value = (
    0
);
},
{
name = openTypeOS2FamilyClass;
value = (
    0,
    0
);
},
{
name = openTypeOS2Panose;
value = (
    2,
    0,
    6,
    0,
    0,
    0,
    0,
    0,
    0,
    0
);
},
{
name = openTypeOS2StrikeoutPosition;
value = 300;
},
{
name = openTypeOS2StrikeoutSize;
value = 60;
},
{
name = openTypeOS2SubscriptXOffset;
value = 0;
},
{
name = openTypeOS2SubscriptXSize;
value = 841;
},
{
name = openTypeOS2SubscriptYOffset;
value = 240;
},
{
name = openTypeOS2SubscriptYSize;
value = 780;
},
{
name = openTypeOS2SuperscriptXOffset;
value = 0;
},
{
name = openTypeOS2SuperscriptXSize;
value = 841;
},
{
name = openTypeOS2SuperscriptYOffset;
value = 601;
},
{
name = openTypeOS2SuperscriptYSize;
value = 780;
},
{
name = openTypeOS2Type;
value = (
);
},
{
name = openTypeOS2UnicodeRanges;
value = (
    0,
    1,
    15,
    20,
    31,
    33,
    38,
    45
);
},
{
name = openTypeOS2VendorID;
value = "ACE ";
},
{
name = postscriptBlueShift;
value = 0;
}
);
date = "2015-08-30 05:30:00 +0000";
familyName = "ayanna-tamil";
fontMaster = (
{
ascender = 800;
capHeight = 0;
customParameters = (
{
name = typoAscender;
value = 800;
},
{
name = typoDescender;
value = -200;
},
{
name = typoLineGap;
value = 0;
},
{
name = hheaAscender;
value = 528;
},
{
name = hheaDescender;
value = -232;
},
{
name = hheaLineGap;
value = 0;
},
{
name = winAscent;
value = 522;
},
{

glyphs = (
{
glyphname = tml_A;
lastChange = "2015-12-21 16:57:17 +0000";
layers = (
{
layerId = "A6FF5082-DE18-4D2D-8E01-54AF1261B41D";
name = Bold;
paths = (
{
closed = 1;
nodes = (
"738 -85 LINE",
"738 559 LINE",
"845 559 LINE",
"845 -85 LINE"
);
},
{
closed = 1;
nodes = (
"288 349 OFFCURVE",
"306 328 OFFCURVE",
"332 328 CURVE SMOOTH",
"357 328 OFFCURVE",
"375 348 OFFCURVE",
"375 376 CURVE SMOOTH",
"375 402 OFFCURVE",
"357 420 OFFCURVE",
"332 420 CURVE SMOOTH",
"307 420 OFFCURVE",
"289 402 OFFCURVE",
"288 377 CURVE",
"234 379 LINE",
"234 444 OFFCURVE",
"279 491 OFFCURVE",
"342 491 CURVE SMOOTH",
"410 491 OFFCURVE",
"459 441 OFFCURVE",
"459 373 CURVE SMOOTH",
"459 301 OFFCURVE",
"407 249 OFFCURVE",
"335 249 CURVE SMOOTH",
"257 249 OFFCURVE",
"201 300 OFFCURVE",
"201 384 CURVE SMOOTH",
"201 489 OFFCURVE",
"287 574 OFFCURVE",
"409 573 CURVE SMOOTH",
"592 572 OFFCURVE",
"672 420 OFFCURVE",
"672 262 CURVE SMOOTH",
"672 29 OFFCURVE",
"506 -104 OFFCURVE",
"296 -104 CURVE SMOOTH",
"122 -104 OFFCURVE",
"30 -28 OFFCURVE",
"30 76 CURVE SMOOTH",
"30 166 OFFCURVE",
"94 221 OFFCURVE",
"213 221 CURVE SMOOTH",
"796 221 LINE",
"796 123 LINE",
"220 123 LINE SMOOTH",
"165 123 OFFCURVE",
"138 110 OFFCURVE",
"138 78 CURVE SMOOTH",
"138 33 OFFCURVE",
"186 0 OFFCURVE",
"299 0 CURVE SMOOTH",
"445 0 OFFCURVE",
"566 89 OFFCURVE",
"566 262 CURVE SMOOTH",
"566 369 OFFCURVE",
"521 482 OFFCURVE",
"411 482 CURVE SMOOTH",
"348 482 OFFCURVE",
"288 438 OFFCURVE",
"288 377 CURVE SMOOTH"
);
}
);
width = 905;
},
{
layerId = "E14DABE6-6E32-45CC-852E-073741854548";
name = Light;
paths = (
{
closed = 1;
nodes = (
"759 -85 LINE",
"759 559 LINE",
"801 559 LINE",
"801 -85 LINE"
);
},
{
closed = 1;
nodes = (
"234 316 OFFCURVE",
"281 291 OFFCURVE",
"323 291 CURVE SMOOTH",
"377 291 OFFCURVE",
"408 333 OFFCURVE",
"408 384 CURVE SMOOTH",
"408 439 OFFCURVE",
"363 469 OFFCURVE",
"320 469 CURVE SMOOTH",
"263 469 OFFCURVE",
"234 426 OFFCURVE",
"234 385 CURVE",
"207 389 LINE",
"207 455 OFFCURVE",
"252 511 OFFCURVE",
"323 511 CURVE SMOOTH",
"387 511 OFFCURVE",
"450 464 OFFCURVE",
"450 381 CURVE SMOOTH",
"450 304 OFFCURVE",
"400 249 OFFCURVE",
"322 249 CURVE SMOOTH",
"246 249 OFFCURVE",
"191 300 OFFCURVE",
"191 385 CURVE SMOOTH",
"191 489 OFFCURVE",
"274 573 OFFCURVE",
"405 573 CURVE SMOOTH",
"581 573 OFFCURVE",
"663 420 OFFCURVE",
"663 256 CURVE SMOOTH",
"663 29 OFFCURVE",
"507 -104 OFFCURVE",
"290 -104 CURVE SMOOTH",
"126 -104 OFFCURVE",
"30 -28 OFFCURVE",
"30 77 CURVE SMOOTH",
"30 149 OFFCURVE",
"76 221 OFFCURVE",
"214 221 CURVE SMOOTH",
"787 221 LINE",
"787 179 LINE",
"221 179 LINE SMOOTH",
"127 179 OFFCURVE",
"72 150 OFFCURVE",
"72 79 CURVE SMOOTH",
"72 -7 OFFCURVE",
"157 -62 OFFCURVE",
"284 -62 CURVE SMOOTH",
"491 -62 OFFCURVE",
"618 74 OFFCURVE",
"618 256 CURVE SMOOTH",
"618 371 OFFCURVE",
"568 531 OFFCURVE",
"403 531 CURVE SMOOTH",
"299 531 OFFCURVE",
"234 468 OFFCURVE",
"234 385 CURVE SMOOTH"
);
}
);
width = 831;
}
);
unicode = 0B85;
},
{
color = 0;
glyphname = tml_Aa;
lastChange = "2015-12-20 20:58:24 +0000";
layers = (
{
layerId = "A6FF5082-DE18-4D2D-8E01-54AF1261B41D";
name = Bold;
paths = (
{
closed = 1;
nodes = (
"737 -85 LINE",
"737 559 LINE",
"844 559 LINE",
"844 -85 LINE"
);
},
{
closed = 1;
nodes = (
"287 349 OFFCURVE",
"305 328 OFFCURVE",
"331 328 CURVE SMOOTH",
"356 328 OFFCURVE",
"374 348 OFFCURVE",
"374 376 CURVE SMOOTH",
"374 402 OFFCURVE",
"356 420 OFFCURVE",
"331 420 CURVE SMOOTH",
"306 420 OFFCURVE",
"288 402 OFFCURVE",
"287 377 CURVE",
"233 379 LINE",
"233 444 OFFCURVE",
"278 491 OFFCURVE",
"341 491 CURVE SMOOTH",
"409 491 OFFCURVE",
"458 441 OFFCURVE",
"458 373 CURVE SMOOTH",
"458 301 OFFCURVE",
"406 249 OFFCURVE",
"334 249 CURVE SMOOTH",
"256 249 OFFCURVE",
"200 300 OFFCURVE",
"200 384 CURVE SMOOTH",
"200 489 OFFCURVE",
"286 574 OFFCURVE",
"408 573 CURVE SMOOTH",
"591 572 OFFCURVE",
"671 420 OFFCURVE",
"671 262 CURVE SMOOTH",
"671 29 OFFCURVE",
"505 -104 OFFCURVE",
"295 -104 CURVE SMOOTH",
"121 -104 OFFCURVE",
"29 -28 OFFCURVE",
"29 76 CURVE SMOOTH",
"29 166 OFFCURVE",
"93 221 OFFCURVE",
"212 221 CURVE SMOOTH",
"795 221 LINE",
"795 123 LINE",
"219 123 LINE SMOOTH",
"164 123 OFFCURVE",
"137 110 OFFCURVE",
"137 78 CURVE SMOOTH",
"137 33 OFFCURVE",
"185 0 OFFCURVE",
"298 0 CURVE SMOOTH",
"444 0 OFFCURVE",
"565 89 OFFCURVE",
"565 262 CURVE SMOOTH",
"565 369 OFFCURVE",
"520 482 OFFCURVE",
"410 482 CURVE SMOOTH",
"347 482 OFFCURVE",
"287 438 OFFCURVE",
"287 377 CURVE SMOOTH"
);
},
{
closed = 1;
nodes = (
"816 48 OFFCURVE",
"848 69 OFFCURVE",
"879 68 CURVE SMOOTH",
"946 68 OFFCURVE",
"1015 19 OFFCURVE",
"1015 -98 CURVE SMOOTH",
"1015 -237 OFFCURVE",
"922 -349 OFFCURVE",
"737 -349 CURVE SMOOTH",
"589 -349 OFFCURVE",
"491 -276 OFFCURVE",
"491 -179 CURVE SMOOTH",
"491 -115 OFFCURVE",
"533 -59 OFFCURVE",
"602 -59 CURVE SMOOTH",
"678 -59 OFFCURVE",
"721 -109 OFFCURVE",
"721 -169 CURVE SMOOTH",
"721 -250 OFFCURVE",
"671 -279 OFFCURVE",
"608 -279 CURVE SMOOTH",
"574 -279 OFFCURVE",
"536 -251 OFFCURVE",
"530 -208 CURVE",
"569 -188 LINE",
"572 -203 OFFCURVE",
"584 -215 OFFCURVE",
"602 -215 CURVE SMOOTH",
"623 -215 OFFCURVE",
"637 -200 OFFCURVE",
"637 -178 CURVE SMOOTH",
"637 -157 OFFCURVE",
"629 -138 OFFCURVE",
"602 -138 CURVE SMOOTH",
"579 -138 OFFCURVE",
"568 -156 OFFCURVE",
"568 -178 CURVE SMOOTH",
"568 -236 OFFCURVE",
"659 -264 OFFCURVE",
"727 -264 CURVE SMOOTH",
"860 -264 OFFCURVE",
"917 -191 OFFCURVE",
"917 -95 CURVE SMOOTH",
"917 -26 OFFCURVE",
"894 -12 OFFCURVE",
"872 -12 CURVE SMOOTH",
"854 -12 OFFCURVE",
"844 -25 OFFCURVE",
"844 -42 CURVE",
"788 10 LINE"
);
}
);
width = 1045;
},
{
layerId = "E14DABE6-6E32-45CC-852E-073741854548";
name = Light;
paths = (
{
closed = 1;
nodes = (
"759 -85 LINE",
"759 559 LINE",
"801 559 LINE",
"801 -85 LINE"
);
},
{
closed = 1;
nodes = (
"234 316 OFFCURVE",
"281 291 OFFCURVE",
"323 291 CURVE SMOOTH",
"377 291 OFFCURVE",
"408 333 OFFCURVE",
"408 384 CURVE SMOOTH",
"408 439 OFFCURVE",
"363 469 OFFCURVE",
"320 469 CURVE SMOOTH",
"263 469 OFFCURVE",
"234 426 OFFCURVE",
"234 385 CURVE",
"207 389 LINE",
"207 455 OFFCURVE",
"252 511 OFFCURVE",
"323 511 CURVE SMOOTH",
"387 511 OFFCURVE",
"450 464 OFFCURVE",
"450 381 CURVE SMOOTH",
"450 304 OFFCURVE",
"400 249 OFFCURVE",
"322 249 CURVE SMOOTH",
"246 249 OFFCURVE",
"191 300 OFFCURVE",
"191 385 CURVE SMOOTH",
"191 489 OFFCURVE",
"274 573 OFFCURVE",
"405 573 CURVE SMOOTH",
"581 573 OFFCURVE",
"663 420 OFFCURVE",
"663 256 CURVE SMOOTH",
"663 29 OFFCURVE",
"507 -104 OFFCURVE",
"290 -104 CURVE SMOOTH",
"126 -104 OFFCURVE",
"30 -28 OFFCURVE",
"30 77 CURVE SMOOTH",
"30 149 OFFCURVE",
"76 221 OFFCURVE",
"214 221 CURVE SMOOTH",
"787 221 LINE",
"787 179 LINE",
"221 179 LINE SMOOTH",
"127 179 OFFCURVE",
"72 150 OFFCURVE",
"72 79 CURVE SMOOTH",
"72 -7 OFFCURVE",
"157 -62 OFFCURVE",
"284 -62 CURVE SMOOTH",
"491 -62 OFFCURVE",
"618 74 OFFCURVE",
"618 256 CURVE SMOOTH",
"618 371 OFFCURVE",
"568 531 OFFCURVE",
"403 531 CURVE SMOOTH",
"299 531 OFFCURVE",
"234 468 OFFCURVE",
"234 385 CURVE SMOOTH"
);
},
{
closed = 1;
nodes = (
"770 20 OFFCURVE",
"802 69 OFFCURVE",
"858 68 CURVE SMOOTH",
"925 67 OFFCURVE",
"992 19 OFFCURVE",
"992 -98 CURVE SMOOTH",
"992 -237 OFFCURVE",
"892 -349 OFFCURVE",
"737 -349 CURVE SMOOTH",
"589 -349 OFFCURVE",
"491 -276 OFFCURVE",
"491 -179 CURVE SMOOTH",
"491 -115 OFFCURVE",
"533 -59 OFFCURVE",
"602 -59 CURVE SMOOTH",
"678 -59 OFFCURVE",
"721 -108 OFFCURVE",
"721 -178 CURVE SMOOTH",
"721 -259 OFFCURVE",
"666 -293 OFFCURVE",
"603 -293 CURVE SMOOTH",
"563 -293 OFFCURVE",
"522 -254 OFFCURVE",
"517 -213 CURVE",
"534 -202 LINE",
"537 -214 OFFCURVE",
"555 -254 OFFCURVE",
"605 -254 CURVE SMOOTH",
"656 -254 OFFCURVE",
"679 -220 OFFCURVE",
"679 -178 CURVE SMOOTH",
"679 -127 OFFCURVE",
"649 -101 OFFCURVE",
"602 -101 CURVE SMOOTH",
"559 -101 OFFCURVE",
"531 -136 OFFCURVE",
"531 -178 CURVE SMOOTH",
"531 -256 OFFCURVE",
"623 -307 OFFCURVE",
"727 -307 CURVE SMOOTH",
"860 -307 OFFCURVE",
"950 -214 OFFCURVE",
"950 -98 CURVE SMOOTH",
"950 -29 OFFCURVE",
"920 26 OFFCURVE",
"858 26 CURVE SMOOTH",
"807 26 OFFCURVE",
"801 -25 OFFCURVE",
"801 -42 CURVE",
"767 -21 LINE"
);
}
);
width = 1022;
}
);
unicode = 0B86;
},
{
glyphname = tml_I;
lastChange = "2015-12-21 17:07:37 +0000";
layers = (
{
layerId = "A6FF5082-DE18-4D2D-8E01-54AF1261B41D";
name = Bold;
paths = (
{
closed = 1;
nodes = (
"628 393 OFFCURVE",
"581 480 OFFCURVE",
"503 480 CURVE SMOOTH",
"440 480 OFFCURVE",
"380 438 OFFCURVE",
"380 377 CURVE SMOOTH",
"380 349 OFFCURVE",
"398 328 OFFCURVE",
"424 328 CURVE SMOOTH",
"449 328 OFFCURVE",
"467 348 OFFCURVE",
"467 376 CURVE SMOOTH",
"467 402 OFFCURVE",
"449 420 OFFCURVE",
"424 420 CURVE SMOOTH",
"399 420 OFFCURVE",
"381 402 OFFCURVE",
"380 377 CURVE",
"326 379 LINE",
"326 444 OFFCURVE",
"371 491 OFFCURVE",
"434 491 CURVE SMOOTH",
"502 491 OFFCURVE",
"551 441 OFFCURVE",
"551 373 CURVE SMOOTH",
"551 301 OFFCURVE",
"499 249 OFFCURVE",
"427 249 CURVE SMOOTH",
"349 249 OFFCURVE",
"293 300 OFFCURVE",
"293 384 CURVE SMOOTH",
"293 489 OFFCURVE",
"379 573 OFFCURVE",
"501 573 CURVE SMOOTH",
"638 573 OFFCURVE",
"734 468 OFFCURVE",
"734 310 CURVE SMOOTH",
"723 8 OFFCURVE",
"431 -210 OFFCURVE",
"218 -210 CURVE SMOOTH",
"109 -210 OFFCURVE",
"30 -146 OFFCURVE",
"30 -57 CURVE SMOOTH",
"30 141 OFFCURVE",
"260 216 OFFCURVE",
"424 216 CURVE SMOOTH",
"591 216 OFFCURVE",
"815 139 OFFCURVE",
"815 -60 CURVE SMOOTH",
"815 -147 OFFCURVE",
"730 -210 OFFCURVE",
"612 -210 CURVE SMOOTH",
"382 -210 OFFCURVE",
"103 28 OFFCURVE",
"103 357 CURVE SMOOTH",
"103 610 OFFCURVE",
"272 754 OFFCURVE",
"514 754 CURVE SMOOTH",
"823 754 OFFCURVE",
"972 587 OFFCURVE",
"971 239 CURVE SMOOTH",
"970 0 LINE",
"857 0 LINE",
"857 223 LINE SMOOTH",
"857 539 OFFCURVE",
"731 647 OFFCURVE",
"511 647 CURVE SMOOTH",
"343 647 OFFCURVE",
"218 545 OFFCURVE",
"218 357 CURVE SMOOTH",
"218 91 OFFCURVE",
"445 -112 OFFCURVE",
"605 -112 CURVE SMOOTH",
"659 -112 OFFCURVE",
"698 -79 OFFCURVE",
"698 -43 CURVE SMOOTH",
"698 33 OFFCURVE",
"581 112 OFFCURVE",
"425 112 CURVE SMOOTH",
"261 112 OFFCURVE",
"145 41 OFFCURVE",
"145 -47 CURVE SMOOTH",
"145 -79 OFFCURVE",
"179 -112 OFFCURVE",
"227 -112 CURVE SMOOTH",
"383 -112 OFFCURVE",
"627 71 OFFCURVE",
"628 310 CURVE SMOOTH"
);
}
);
width = 1041;
},
{
layerId = "E14DABE6-6E32-45CC-852E-073741854548";
name = Light;
paths = (
{
closed = 1;
nodes = (
"692 448 OFFCURVE",
"608 531 OFFCURVE",
"496 531 CURVE SMOOTH",
"381 531 OFFCURVE",
"335 445 OFFCURVE",
"335 383 CURVE SMOOTH",
"335 327 OFFCURVE",
"373 291 OFFCURVE",
"424 291 CURVE SMOOTH",
"474 291 OFFCURVE",
"509 327 OFFCURVE",
"509 379 CURVE SMOOTH",
"509 428 OFFCURVE",
"479 469 OFFCURVE",
"423 469 CURVE SMOOTH",
"370 469 OFFCURVE",
"336 432 OFFCURVE",
"335 384 CURVE",
"306 383 LINE",
"306 443 OFFCURVE",
"352 510 OFFCURVE",
"430 510 CURVE SMOOTH",
"507 510 OFFCURVE",
"551 444 OFFCURVE",
"551 376 CURVE SMOOTH",
"551 303 OFFCURVE",
"501 249 OFFCURVE",
"424 249 CURVE SMOOTH",
"350 249 OFFCURVE",
"293 300 OFFCURVE",
"293 385 CURVE SMOOTH",
"293 489 OFFCURVE",
"379 573 OFFCURVE",
"501 573 CURVE SMOOTH",
"636 573 OFFCURVE",
"734 469 OFFCURVE",
"734 307 CURVE SMOOTH",
"734 23 OFFCURVE",
"431 -210 OFFCURVE",
"218 -210 CURVE SMOOTH",
"120 -210 OFFCURVE",
"30 -160 OFFCURVE",
"30 -46 CURVE SMOOTH",
"30 135 OFFCURVE",
"260 216 OFFCURVE",
"424 216 CURVE SMOOTH",
"595 216 OFFCURVE",
"815 129 OFFCURVE",
"815 -46 CURVE SMOOTH",
"815 -164 OFFCURVE",
"716 -210 OFFCURVE",
"614 -210 CURVE SMOOTH",
"382 -210 OFFCURVE",
"83 25 OFFCURVE",
"83 362 CURVE SMOOTH",
"83 610 OFFCURVE",
"245 754 OFFCURVE",
"513 754 CURVE SMOOTH",
"803 754 OFFCURVE",
"939 586 OFFCURVE",
"939 239 CURVE SMOOTH",
"939 0 LINE",
"897 0 LINE",
"897 223 LINE SMOOTH",
"897 567 OFFCURVE",
"761 711 OFFCURVE",
"512 711 CURVE SMOOTH",
"257 711 OFFCURVE",
"128 561 OFFCURVE",
"128 357 CURVE SMOOTH",
"128 61 OFFCURVE",
"400 -168 OFFCURVE",
"616 -168 CURVE SMOOTH",
"719 -168 OFFCURVE",
"773 -116 OFFCURVE",
"773 -49 CURVE SMOOTH",
"773 56 OFFCURVE",
"643 174 OFFCURVE",
"417 174 CURVE SMOOTH",
"195 174 OFFCURVE",
"72 60 OFFCURVE",
"72 -47 CURVE SMOOTH",
"72 -120 OFFCURVE",
"132 -168 OFFCURVE",
"216 -168 CURVE SMOOTH",
"414 -168 OFFCURVE",
"692 63 OFFCURVE",
"692 315 CURVE SMOOTH"
);
}
);
width = 969;
}
);
unicode = 0B87;
},
{
color = 0;
glyphname = tml_Ii;
lastChange = "2015-12-20 21:05:44 +0000";
layers = (
{
layerId = "A6FF5082-DE18-4D2D-8E01-54AF1261B41D";
name = Bold;
paths = (
{
closed = 1;
nodes = (
"46 1 LINE",
"46 560 LINE",
"616 559 LINE",
"616 461 LINE",
"153 462 LINE",
"153 1 LINE"
);
},
{
closed = 1;
nodes = (
"207 314 OFFCURVE",
"181 285 OFFCURVE",
"181 255 CURVE SMOOTH",
"181 225 OFFCURVE",
"207 197 OFFCURVE",
"239 197 CURVE SMOOTH",
"269 197 OFFCURVE",
"297 225 OFFCURVE",
"297 255 CURVE SMOOTH",
"297 285 OFFCURVE",
"269 314 OFFCURVE",
"239 314 CURVE SMOOTH"
);
},
{
closed = 1;
nodes = (
"337 1 LINE",
"337 494 LINE",
"444 494 LINE",
"444 1 LINE"
);
},
{
closed = 1;
nodes = (
"507 314 OFFCURVE",
"479 285 OFFCURVE",
"479 255 CURVE SMOOTH",
"479 225 OFFCURVE",
"507 197 OFFCURVE",
"537 197 CURVE SMOOTH",
"569 197 OFFCURVE",
"595 225 OFFCURVE",
"595 255 CURVE SMOOTH",
"595 285 OFFCURVE",
"569 314 OFFCURVE",
"537 314 CURVE SMOOTH"
);
}
);
width = 626;
},
{
layerId = "E14DABE6-6E32-45CC-852E-073741854548";
name = Light;
paths = (
{
closed = 1;
nodes = (
"46 0 LINE",
"46 560 LINE",
"575 560 LINE",
"575 518 LINE",
"382 518 LINE",
"379 0 LINE",
"343 0 OFFCURVE",
"370 0 OFFCURVE",
"334 0 CURVE",
"337 518 LINE",
"88 518 LINE",
"88 0 LINE"
);
},
{
closed = 1;
nodes = (
"236 217 OFFCURVE",
"252 234 OFFCURVE",
"252 255 CURVE SMOOTH",
"252 276 OFFCURVE",
"236 292 OFFCURVE",
"215 292 CURVE SMOOTH",
"194 292 OFFCURVE",
"177 276 OFFCURVE",
"177 255 CURVE SMOOTH",
"177 234 OFFCURVE",
"194 217 OFFCURVE",
"215 217 CURVE SMOOTH"
);
},
{
closed = 1;
nodes = (
"516 217 OFFCURVE",
"532 234 OFFCURVE",
"532 255 CURVE SMOOTH",
"532 276 OFFCURVE",
"516 292 OFFCURVE",
"495 292 CURVE SMOOTH",
"474 292 OFFCURVE",
"457 276 OFFCURVE",
"457 255 CURVE SMOOTH",
"457 234 OFFCURVE",
"474 217 OFFCURVE",
"495 217 CURVE SMOOTH"
);
}
);
width = 600;
}
);
unicode = 0B88;
},
{
glyphname = tml_U;
lastChange = "2015-12-21 16:59:31 +0000";
layers = (
{
layerId = "A6FF5082-DE18-4D2D-8E01-54AF1261B41D";
name = Bold;
paths = (
{
closed = 1;
nodes = (
"774 96 LINE",
"774 0 LINE",
"169 0 LINE SMOOTH",
"92 0 OFFCURVE",
"36 45 OFFCURVE",
"36 108 CURVE SMOOTH",
"36 175 OFFCURVE",
"86 224 OFFCURVE",
"159 224 CURVE SMOOTH",
"199 224 LINE SMOOTH",
"323 224 OFFCURVE",
"365 302 OFFCURVE",
"365 376 CURVE SMOOTH",
"365 447 OFFCURVE",
"321 512 OFFCURVE",
"241 512 CURVE SMOOTH",
"149 512 OFFCURVE",
"127 425 OFFCURVE",
"127 386 CURVE SMOOTH",
"127 355 OFFCURVE",
"141 333 OFFCURVE",
"171 333 CURVE SMOOTH",
"204 333 OFFCURVE",
"213 367 OFFCURVE",
"213 387 CURVE SMOOTH",
"213 419 OFFCURVE",
"195 438 OFFCURVE",
"171 438 CURVE SMOOTH",
"143 438 OFFCURVE",
"128 413 OFFCURVE",
"127 385 CURVE",
"73 397 LINE",
"73 436 OFFCURVE",
"112 509 OFFCURVE",
"181 509 CURVE SMOOTH",
"227 509 OFFCURVE",
"304 481 OFFCURVE",
"304 381 CURVE SMOOTH",
"304 303 OFFCURVE",
"252 247 OFFCURVE",
"174 247 CURVE SMOOTH",
"90 247 OFFCURVE",
"30 313 OFFCURVE",
"30 402 CURVE SMOOTH",
"30 516 OFFCURVE",
"122 596 OFFCURVE",
"245 597 CURVE SMOOTH",
"378 598 OFFCURVE",
"473 506 OFFCURVE",
"473 376 CURVE SMOOTH",
"473 250 OFFCURVE",
"385 135 OFFCURVE",
"229 132 CURVE SMOOTH",
"173 131 LINE SMOOTH",
"151 131 OFFCURVE",
"142 125 OFFCURVE",
"142 113 CURVE SMOOTH",
"142 101 OFFCURVE",
"151 95 OFFCURVE",
"174 95 CURVE SMOOTH"
);
}
);
width = 804;
},
{
layerId = "E14DABE6-6E32-45CC-852E-073741854548";
name = Light;
paths = (
{
closed = 1;
nodes = (
"768 42 LINE",
"768 0 LINE",
"154 0 LINE SMOOTH",
"64 0 OFFCURVE",
"30 43 OFFCURVE",
"30 93 CURVE SMOOTH",
"30 160 OFFCURVE",
"78 194 OFFCURVE",
"144 194 CURVE SMOOTH",
"193 194 LINE SMOOTH",
"317 194 OFFCURVE",
"399 242 OFFCURVE",
"399 376 CURVE SMOOTH",
"399 503 OFFCURVE",
"309 556 OFFCURVE",
"229 555 CURVE SMOOTH",
"106 554 OFFCURVE",
"66 464 OFFCURVE",
"66 384 CURVE SMOOTH",
"66 337 OFFCURVE",
"103 289 OFFCURVE",
"163 289 CURVE SMOOTH",
"226 289 OFFCURVE",
"256 340 OFFCURVE",
"256 390 CURVE SMOOTH",
"256 462 OFFCURVE",
"207 489 OFFCURVE",
"160 489 CURVE SMOOTH",
"100 489 OFFCURVE",
"66 449 OFFCURVE",
"66 384 CURVE",
"39 399 LINE",
"39 458 OFFCURVE",
"74 528 OFFCURVE",
"158 528 CURVE SMOOTH",
"230 528 OFFCURVE",
"298 487 OFFCURVE",
"298 390 CURVE SMOOTH",
"298 306 OFFCURVE",
"238 247 OFFCURVE",
"166 247 CURVE SMOOTH",
"82 247 OFFCURVE",
"24 313 OFFCURVE",
"24 402 CURVE SMOOTH",
"24 516 OFFCURVE",
"106 596 OFFCURVE",
"229 597 CURVE SMOOTH",
"362 598 OFFCURVE",
"441 506 OFFCURVE",
"441 376 CURVE SMOOTH",
"441 250 OFFCURVE",
"374 155 OFFCURVE",
"217 153 CURVE SMOOTH",
"137 152 LINE SMOOTH",
"94 151 OFFCURVE",
"72 127 OFFCURVE",
"72 94 CURVE SMOOTH",
"72 62 OFFCURVE",
"94 42 OFFCURVE",
"149 42 CURVE SMOOTH"
);
}
);
width = 798;
}
);
unicode = 0B89;
},
{
color = 0;
glyphname = tml_Uu;
lastChange = "2015-12-21 13:17:34 +0000";
layers = (
{
layerId = "A6FF5082-DE18-4D2D-8E01-54AF1261B41D";
name = Bold;
paths = (
{
closed = 1;
nodes = (
"169 1 LINE",
"80 0 OFFCURVE",
"36 46 OFFCURVE",
"36 108 CURVE SMOOTH",
"36 182 OFFCURVE",
"85 224 OFFCURVE",
"154 224 CURVE SMOOTH",
"214 224 LINE",
"318 226 OFFCURVE",
"350 302 OFFCURVE",
"350 376 CURVE SMOOTH",
"350 447 OFFCURVE",
"311 512 OFFCURVE",
"231 512 CURVE SMOOTH",
"139 512 OFFCURVE",
"117 425 OFFCURVE",
"117 386 CURVE SMOOTH",
"117 355 OFFCURVE",
"131 333 OFFCURVE",
"161 333 CURVE SMOOTH",
"194 333 OFFCURVE",
"203 367 OFFCURVE",
"203 387 CURVE SMOOTH",
"203 419 OFFCURVE",
"185 438 OFFCURVE",
"161 438 CURVE SMOOTH",
"133 438 OFFCURVE",
"118 413 OFFCURVE",
"117 385 CURVE",
"63 397 LINE",
"63 436 OFFCURVE",
"102 509 OFFCURVE",
"171 509 CURVE SMOOTH",
"217 509 OFFCURVE",
"290 481 OFFCURVE",
"290 381 CURVE SMOOTH",
"290 303 OFFCURVE",
"242 247 OFFCURVE",
"164 247 CURVE SMOOTH",
"80 247 OFFCURVE",
"30 313 OFFCURVE",
"30 402 CURVE SMOOTH",
"30 516 OFFCURVE",
"112 596 OFFCURVE",
"235 597 CURVE SMOOTH",
"368 598 OFFCURVE",
"447 501 OFFCURVE",
"447 371 CURVE SMOOTH",
"447 245 OFFCURVE",
"375 135 OFFCURVE",
"219 132 CURVE",
"153 131 LINE SMOOTH",
"143 131 OFFCURVE",
"132 125 OFFCURVE",
"132 113 CURVE SMOOTH",
"132 99 OFFCURVE",
"147 96 OFFCURVE",
"162 96 CURVE"
);
},
{
closed = 1;
nodes = (
"1144 97 LINE",
"1144 1 LINE",
"160 1 LINE",
"156 96 LINE"
);
},
{
closed = 1;
nodes = (
"499 325 CURVE SMOOTH",
"499 477 OFFCURVE",
"560 569 OFFCURVE",
"672 569 CURVE SMOOTH",
"769 569 OFFCURVE",
"843 467 OFFCURVE",
"843 317 CURVE SMOOTH",
"783 333 LINE SMOOTH",
"783 431 OFFCURVE",
"731 488 OFFCURVE",
"678 488 CURVE SMOOTH",
"594 488 OFFCURVE",
"581 387 OFFCURVE",
"581 298 CURVE SMOOTH",
"581 249 OFFCURVE",
"592 209 OFFCURVE",
"623 209 CURVE SMOOTH",
"656 209 OFFCURVE",
"665 247 OFFCURVE",
"665 272 CURVE SMOOTH",
"665 325 OFFCURVE",
"642 341 OFFCURVE",
"624 341 CURVE SMOOTH",
"601 341 OFFCURVE",
"580 321 OFFCURVE",
"582 270 CURVE",
"535 287 LINE",
"535 335 OFFCURVE",
"568 422 OFFCURVE",
"631 422 CURVE SMOOTH",
"688 422 OFFCURVE",
"738 363 OFFCURVE",
"738 271 CURVE SMOOTH",
"738 180 OFFCURVE",
"693 124 OFFCURVE",
"621 124 CURVE SMOOTH",
"542 124 OFFCURVE",
"499 208 OFFCURVE"
);
},
{
closed = 1;
nodes = (
"783 142 LINE",
"783 486 LINE",
"794 489 LINE",
"794 560 LINE",
"1133 560 LINE",
"1133 476 LINE",
"1066 476 LINE",
"1066 142 LINE",
"976 142 LINE",
"976 476 LINE",
"874 476 LINE",
"874 142 LINE"
);
}
);
width = 1164;
},
{
layerId = "E14DABE6-6E32-45CC-852E-073741854548";
name = Light;
paths = (
{
closed = 1;
nodes = (
"1144 42 LINE",
"1144 0 LINE",
"147 0 LINE SMOOTH",
"67 0 OFFCURVE",
"36 43 OFFCURVE",
"36 92 CURVE SMOOTH",
"36 156 OFFCURVE",
"89 186 OFFCURVE",
"144 186 CURVE SMOOTH",
"217 186 LINE SMOOTH",
"344 186 OFFCURVE",
"420 233 OFFCURVE",
"420 360 CURVE SMOOTH",
"420 501 OFFCURVE",
"315 546 OFFCURVE",
"232 546 CURVE SMOOTH",
"115 546 OFFCURVE",
"72 455 OFFCURVE",
"72 375 CURVE",
"72 328 OFFCURVE",
"109 280 OFFCURVE",
"170 280 CURVE SMOOTH",
"232 280 OFFCURVE",
"262 330 OFFCURVE",
"262 384 CURVE SMOOTH",
"262 452 OFFCURVE",
"213 480 OFFCURVE",
"165 480 CURVE SMOOTH",
"107 480 OFFCURVE",
"72 440 OFFCURVE",
"72 375 CURVE",
"45 390 LINE",
"45 450 OFFCURVE",
"79 519 OFFCURVE",
"167 519 CURVE SMOOTH",
"234 519 OFFCURVE",
"304 478 OFFCURVE",
"304 383 CURVE SMOOTH",
"304 297 OFFCURVE",
"246 238 OFFCURVE",
"169 238 CURVE SMOOTH",
"88 238 OFFCURVE",
"30 304 OFFCURVE",
"30 396 CURVE SMOOTH",
"30 504 OFFCURVE",
"110 587 OFFCURVE",
"235 588 CURVE SMOOTH",
"371 589 OFFCURVE",
"464 496 OFFCURVE",
"464 362 CURVE SMOOTH",
"464 243 OFFCURVE",
"400 146 OFFCURVE",
"236 144 CURVE SMOOTH",
"146 143 LINE SMOOTH",
"103 143 OFFCURVE",
"82 120 OFFCURVE",
"82 91 CURVE SMOOTH",
"82 64 OFFCURVE",
"99 42 OFFCURVE",
"155 42 CURVE SMOOTH"
);
},
{
closed = 1;
nodes = (
"817 120 LINE",
"817 471 LINE",
"817 473 LINE",
"817 545 LINE",
"1142 545 LINE",
"1142 503 LINE",
"1047 503 LINE",
"1047 120 LINE",
"1007 120 LINE",
"1007 503 LINE",
"859 503 LINE",
"859 120 LINE"
);
},
{
closed = 1;
nodes = (
"553 96 OFFCURVE",
"514 184 OFFCURVE",
"514 299 CURVE SMOOTH",
"514 449 OFFCURVE",
"585 555 OFFCURVE",
"694 555 CURVE SMOOTH",
"781 555 OFFCURVE",
"854 487 OFFCURVE",
"854 331 CURVE",
"817 332 LINE",
"817 450 OFFCURVE",
"774 513 OFFCURVE",
"696 513 CURVE SMOOTH",
"606 513 OFFCURVE",
"554 428 OFFCURVE",
"554 300 CURVE SMOOTH",
"554 234 OFFCURVE",
"568 136 OFFCURVE",
"633 136 CURVE SMOOTH",
"677 136 OFFCURVE",
"702 182 OFFCURVE",
"702 249 CURVE SMOOTH",
"702 319 OFFCURVE",
"673 358 OFFCURVE",
"633 358 CURVE SMOOTH",
"583 358 OFFCURVE",
"553 299 OFFCURVE",
"559 232 CURVE",
"535 247 LINE",
"535 339 OFFCURVE",
"572 398 OFFCURVE",
"635 398 CURVE SMOOTH",
"696 398 OFFCURVE",
"742 350 OFFCURVE",
"742 248 CURVE SMOOTH",
"742 163 OFFCURVE",
"702 96 OFFCURVE",
"631 96 CURVE SMOOTH"
);
}
);
width = 1164;
}
);
unicode = 0B8A;
},
{
color = 0;
glyphname = tml_E;
lastChange = "2015-12-20 21:38:57 +0000";
layers = (
{
anchors = (
{
name = tml_virama;
position = "{412, 2}";
}
);
layerId = "A6FF5082-DE18-4D2D-8E01-54AF1261B41D";
name = Bold;
paths = (
{
closed = 1;
nodes = (
"624 560 LINE",
"624 462 LINE",
"521 461 LINE",
"521 0 LINE",
"414 0 LINE",
"414 461 LINE",
"271 461 LINE SMOOTH",
"172 461 OFFCURVE",
"132 370 OFFCURVE",
"132 255 CURVE SMOOTH",
"132 158 OFFCURVE",
"149 74 OFFCURVE",
"197 74 CURVE SMOOTH",
"243 74 OFFCURVE",
"252 139 OFFCURVE",
"252 178 CURVE SMOOTH",
"252 246 OFFCURVE",
"224 281 OFFCURVE",
"198 281 CURVE SMOOTH",
"155 281 OFFCURVE",
"135 235 OFFCURVE",
"138 167 CURVE",
"82 196 LINE",
"82 269 OFFCURVE",
"125 362 OFFCURVE",
"209 362 CURVE SMOOTH",
"282 362 OFFCURVE",
"348 297 OFFCURVE",
"348 174 CURVE SMOOTH",
"348 53 OFFCURVE",
"291 -24 OFFCURVE",
"197 -24 CURVE SMOOTH",
"92 -24 OFFCURVE",
"30 90 OFFCURVE",
"30 245 CURVE SMOOTH",
"30 442 OFFCURVE",
"121 560 OFFCURVE",
"277 560 CURVE"
);
}
);
width = 649;
},
{
layerId = "E14DABE6-6E32-45CC-852E-073741854548";
name = Light;
paths = (
{
closed = 1;
nodes = (
"138 520 OFFCURVE",
"71 403 OFFCURVE",
"71 234 CURVE SMOOTH",
"71 147 OFFCURVE",
"89 18 OFFCURVE",
"173 18 CURVE SMOOTH",
"231 18 OFFCURVE",
"264 80 OFFCURVE",
"264 168 CURVE SMOOTH",
"264 261 OFFCURVE",
"227 310 OFFCURVE",
"174 310 CURVE SMOOTH",
"108 310 OFFCURVE",
"71 232 OFFCURVE",
"78 144 CURVE",
"44 164 LINE",
"45 286 OFFCURVE",
"107 350 OFFCURVE",
"177 350 CURVE SMOOTH",
"244 350 OFFCURVE",
"304 287 OFFCURVE",
"304 167 CURVE SMOOTH",
"304 55 OFFCURVE",
"252 -24 OFFCURVE",
"171 -24 CURVE SMOOTH",
"78 -24 OFFCURVE",
"30 82 OFFCURVE",
"30 233 CURVE SMOOTH",
"30 430 OFFCURVE",
"111 560 OFFCURVE",
"255 560 CURVE",
"572 560 LINE",
"572 520 LINE",
"469 520 LINE",
"469 0 LINE",
"427 0 LINE",
"427 520 LINE",
"257 520 LINE"
);
}
);
width = 582;
}
);
unicode = 0B8E;
},
{
color = 0;
glyphname = tml_Ee;
lastChange = "2015-12-20 21:40:59 +0000";
layers = (
{
anchors = (
{
name = tml_virama;
position = "{306, 8}";
}
);
components = (
{
name = tml_E;
transform = "{1, 0, 0, 1, -14, 0}";
}
);
layerId = "A6FF5082-DE18-4D2D-8E01-54AF1261B41D";
name = Bold;
paths = (
{
closed = 1;
nodes = (
"171 -162 LINE",
"400 52 LINE",
"507 0 LINE",
"246 -239 LINE"
);
}
);
width = 645;
},
{
components = (
{
name = tml_E;
}
);
layerId = "E14DABE6-6E32-45CC-852E-073741854548";
name = Light;
paths = (
{
closed = 1;
nodes = (
"181 -214 LINE",
"428 17 LINE",
"469 0 LINE",
"207 -241 LINE"
);
}
);
width = 582;
}
);
unicode = 0B8F;
},
{
glyphname = tml_Ai;
lastChange = "2015-12-22 09:32:52 +0000";
layers = (
{
layerId = "A6FF5082-DE18-4D2D-8E01-54AF1261B41D";
name = Bold;
paths = (
{
closed = 1;
nodes = (
"133 -155 OFFCURVE",
"33 -99 OFFCURVE",
"33 21 CURVE SMOOTH",
"33 202 OFFCURVE",
"233 229 OFFCURVE",
"368 240 CURVE SMOOTH",
"485 250 OFFCURVE",
"614 277 OFFCURVE",
"614 395 CURVE SMOOTH",
"614 445 OFFCURVE",
"585 485 OFFCURVE",
"545 485 CURVE SMOOTH",
"499 485 OFFCURVE",
"446 431 OFFCURVE",
"445 299 CURVE",
"344 299 LINE",
"347 479 OFFCURVE",
"420 581 OFFCURVE",
"550 581 CURVE SMOOTH",
"658 581 OFFCURVE",
"719 509 OFFCURVE",
"719 402 CURVE SMOOTH",
"719 182 OFFCURVE",
"522 151 OFFCURVE",
"369 141 CURVE SMOOTH",
"222 131 OFFCURVE",
"146 89 OFFCURVE",
"146 27 CURVE SMOOTH",
"146 -18 OFFCURVE",
"182 -49 OFFCURVE",
"228 -49 CURVE SMOOTH",
"281 -49 OFFCURVE",
"337 -18 OFFCURVE",
"337 74 CURVE",
"337 74 OFFCURVE",
"450 74 OFFCURVE",
"450 74 CURVE",
"450 12 OFFCURVE",
"472 -57 OFFCURVE",
"541 -54 CURVE SMOOTH",
"586 -52 OFFCURVE",
"614 0 OFFCURVE",
"594 65 CURVE",
"594 65 OFFCURVE",
"697 81 OFFCURVE",
"697 81 CURVE",
"697 95 OFFCURVE",
"763 -153 OFFCURVE",
"542 -153 CURVE SMOOTH",
"414 -153 OFFCURVE",
"398 -57 OFFCURVE",
"398 -57 CURVE",
"398 -57 OFFCURVE",
"381 -155 OFFCURVE",
"224 -155 CURVE SMOOTH"
);
},
{
closed = 1;
nodes = (
"344 299 LINE",
"346 374 OFFCURVE",
"322 488 OFFCURVE",
"225 488 CURVE SMOOTH",
"174 488 OFFCURVE",
"117 460 OFFCURVE",
"117 371 CURVE SMOOTH",
"117 336 OFFCURVE",
"136 317 OFFCURVE",
"155 317 CURVE SMOOTH",
"181 317 OFFCURVE",
"194 344 OFFCURVE",
"194 370 CURVE SMOOTH",
"194 407 OFFCURVE",
"174 422 OFFCURVE",
"154 422 CURVE SMOOTH",
"136 422 OFFCURVE",
"117 406 OFFCURVE",
"117 370 CURVE",
"57 412 LINE SMOOTH",
"57 412 OFFCURVE",
"81 494 OFFCURVE",
"159 495 CURVE SMOOTH",
"195 495 OFFCURVE",
"272 467 OFFCURVE",
"272 362 CURVE SMOOTH",
"272 273 OFFCURVE",
"214 234 OFFCURVE",
"152 234 CURVE SMOOTH",
"71 234 OFFCURVE",
"29 294 OFFCURVE",
"30 384 CURVE SMOOTH",
"31 513 OFFCURVE",
"113 583 OFFCURVE",
"228 582 CURVE SMOOTH",
"397 581 OFFCURVE",
"443 447 OFFCURVE",
"444 299 CURVE"
);
}
);
width = 749;
},
{
layerId = "E14DABE6-6E32-45CC-852E-073741854548";
name = Light;
paths = (
{
closed = 1;
nodes = (
"126 -155 OFFCURVE",
"33 -99 OFFCURVE",
"33 21 CURVE SMOOTH",
"33 197 OFFCURVE",
"213 199 OFFCURVE",
"368 218 CURVE SMOOTH",
"539 239 OFFCURVE",
"684 256 OFFCURVE",
"684 402 CURVE SMOOTH",
"684 482 OFFCURVE",
"647 539 OFFCURVE",
"555 539 CURVE SMOOTH",
"449 539 OFFCURVE",
"413 431 OFFCURVE",
"414 299 CURVE",
"372 299 LINE",
"375 469 OFFCURVE",
"424 581 OFFCURVE",
"555 581 CURVE SMOOTH",
"663 581 OFFCURVE",
"726 509 OFFCURVE",
"726 402 CURVE SMOOTH",
"726 202 OFFCURVE",
"523 191 OFFCURVE",
"369 174 CURVE SMOOTH",
"178 153 OFFCURVE",
"75 143 OFFCURVE",
"75 21 CURVE SMOOTH",
"75 -54 OFFCURVE",
"137 -113 OFFCURVE",
"223 -113 CURVE SMOOTH",
"307 -113 OFFCURVE",
"370 -78 OFFCURVE",
"370 74 CURVE",
"370 74 OFFCURVE",
"413 74 OFFCURVE",
"413 74 CURVE",
"413 -54 OFFCURVE",
"457 -112 OFFCURVE",
"546 -111 CURVE SMOOTH",
"643 -110 OFFCURVE",
"687 -22 OFFCURVE",
"655 75 CURVE",
"655 75 OFFCURVE",
"697 81 OFFCURVE",
"697 81 CURVE",
"718 12 OFFCURVE",
"719 -153 OFFCURVE",
"542 -153 CURVE SMOOTH",
"418 -153 OFFCURVE",
"390 -57 OFFCURVE",
"390 -57 CURVE",
"390 -57 OFFCURVE",
"370 -155 OFFCURVE",
"217 -155 CURVE SMOOTH"
);
},
{
closed = 1;
nodes = (
"372 299 LINE",
"374 432 OFFCURVE",
"340 542 OFFCURVE",
"228 542 CURVE SMOOTH",
"137 542 OFFCURVE",
"72 489 OFFCURVE",
"72 370 CURVE SMOOTH",
"72 305 OFFCURVE",
"108 274 OFFCURVE",
"152 274 CURVE SMOOTH",
"200 274 OFFCURVE",
"232 318 OFFCURVE",
"232 362 CURVE SMOOTH",
"232 417 OFFCURVE",
"203 455 OFFCURVE",
"159 455 CURVE SMOOTH",
"94 455 OFFCURVE",
"72 405 OFFCURVE",
"72 369 CURVE",
"41 380 LINE",
"41 453 OFFCURVE",
"102 495 OFFCURVE",
"157 495 CURVE SMOOTH",
"199 495 OFFCURVE",
"272 467 OFFCURVE",
"272 362 CURVE SMOOTH",
"272 273 OFFCURVE",
"214 234 OFFCURVE",
"152 234 CURVE SMOOTH",
"71 234 OFFCURVE",
"29 294 OFFCURVE",
"30 384 CURVE SMOOTH",
"31 513 OFFCURVE",
"116 583 OFFCURVE",
"231 582 CURVE SMOOTH",
"391 581 OFFCURVE",
"413 426 OFFCURVE",
"414 299 CURVE"
);
}
);
width = 749;
}
);
unicode = 0B90;
},
{
glyphname = tml_O;
lastChange = "2015-12-22 23:28:50 +0000";
layers = (
{
layerId = "A6FF5082-DE18-4D2D-8E01-54AF1261B41D";
name = Bold;
paths = (
{
closed = 1;
nodes = (
"573 152 OFFCURVE",
"643 235 OFFCURVE",
"643 350 CURVE SMOOTH",
"643 501 OFFCURVE",
"517 610 OFFCURVE",
"354 610 CURVE SMOOTH",
"158 610 OFFCURVE",
"41 483 OFFCURVE",
"41 307 CURVE SMOOTH",
"41 214 OFFCURVE",
"92 146 OFFCURVE",
"176 146 CURVE SMOOTH",
"256 146 OFFCURVE",
"303 204 OFFCURVE",
"303 285 CURVE SMOOTH",
"303 364 OFFCURVE",
"262 422 OFFCURVE",
"192 422 CURVE SMOOTH",
"118 422 OFFCURVE",
"74 369 OFFCURVE",
"74 296 CURVE",
"132 290 LINE",
"133 321 OFFCURVE",
"146 343 OFFCURVE",
"176 343 CURVE SMOOTH",
"207 343 OFFCURVE",
"219 320 OFFCURVE",
"219 289 CURVE SMOOTH",
"219 255 OFFCURVE",
"206 231 OFFCURVE",
"174 231 CURVE SMOOTH",
"144 231 OFFCURVE",
"132 260 OFFCURVE",
"132 300 CURVE SMOOTH",
"132 423 OFFCURVE",
"211 512 OFFCURVE",
"354 512 CURVE SMOOTH",
"458 512 OFFCURVE",
"541 442 OFFCURVE",
"541 345 CURVE SMOOTH",
"541 286 OFFCURVE",
"514 243 OFFCURVE",
"477 243 CURVE SMOOTH",
"444 243 OFFCURVE",
"436 269 OFFCURVE",
"436 299 CURVE",
"337 299 LINE",
"337 230 OFFCURVE",
"389 152 OFFCURVE",
"476 152 CURVE SMOOTH"
);
},
{
closed = 1;
nodes = (
"442 -164 OFFCURVE",
"515 -89 OFFCURVE",
"528 15 CURVE",
"491 12 LINE",
"607 12 LINE",
"607 98 LINE",
"486 98 LINE SMOOTH",
"451 98 OFFCURVE",
"434 109 OFFCURVE",
"434 159 CURVE SMOOTH",
"434 191 OFFCURVE",
"434 276 OFFCURVE",
"434 299 CURVE",
"337 299 LINE",
"337 160 LINE SMOOTH",
"337 73 OFFCURVE",
"387 14 OFFCURVE",
"461 14 CURVE",
"435 62 LINE",
"428 -10 OFFCURVE",
"408 -63 OFFCURVE",
"338 -63 CURVE SMOOTH",
"285 -63 OFFCURVE",
"247 -27 OFFCURVE",
"247 23 CURVE",
"148 23 LINE",
"148 -85 OFFCURVE",
"225 -164 OFFCURVE",
"332 -164 CURVE SMOOTH"
);
}
);
width = 662;
},
{
layerId = "E14DABE6-6E32-45CC-852E-073741854548";
name = Light;
paths = (
{
closed = 1;
nodes = (
"578 152 OFFCURVE",
"643 226 OFFCURVE",
"643 340 CURVE SMOOTH",
"643 501 OFFCURVE",
"517 610 OFFCURVE",
"354 610 CURVE SMOOTH",
"158 610 OFFCURVE",
"41 483 OFFCURVE",
"41 307 CURVE SMOOTH",
"41 211 OFFCURVE",
"87 146 OFFCURVE",
"176 146 CURVE SMOOTH",
"246 146 OFFCURVE",
"303 204 OFFCURVE",
"303 285 CURVE SMOOTH",
"303 364 OFFCURVE",
"249 422 OFFCURVE",
"179 422 CURVE SMOOTH",
"99 422 OFFCURVE",
"51 366 OFFCURVE",
"51 293 CURVE",
"83 290 LINE",
"83 341 OFFCURVE",
"115 380 OFFCURVE",
"176 380 CURVE SMOOTH",
"231 380 OFFCURVE",
"261 336 OFFCURVE",
"261 285 CURVE SMOOTH",
"261 231 OFFCURVE",
"224 188 OFFCURVE",
"172 188 CURVE SMOOTH",
"113 188 OFFCURVE",
"83 236 OFFCURVE",
"83 290 CURVE SMOOTH",
"83 443 OFFCURVE",
"181 568 OFFCURVE",
"354 568 CURVE SMOOTH",
"468 568 OFFCURVE",
"601 495 OFFCURVE",
"601 345 CURVE SMOOTH",
"601 256 OFFCURVE",
"563 194 OFFCURVE",
"491 194 CURVE SMOOTH",
"419 194 OFFCURVE",
"409 269 OFFCURVE",
"409 299 CURVE",
"367 299 LINE",
"367 230 OFFCURVE",
"401 152 OFFCURVE",
"491 152 CURVE SMOOTH"
);
},
{
closed = 1;
nodes = (
"448 -164 OFFCURVE",
"520 -78 OFFCURVE",
"520 36 CURVE",
"501 31 LINE",
"607 31 LINE",
"607 73 LINE",
"486 73 LINE SMOOTH",
"431 73 OFFCURVE",
"408 108 OFFCURVE",
"408 169 CURVE SMOOTH",
"408 201 OFFCURVE",
"407 276 OFFCURVE",
"407 299 CURVE",
"367 299 LINE",
"367 170 LINE SMOOTH",
"367 83 OFFCURVE",
"414 33 OFFCURVE",
"488 33 CURVE",
"479 42 LINE",
"479 -58 OFFCURVE",
"422 -122 OFFCURVE",
"332 -122 CURVE SMOOTH",
"232 -122 OFFCURVE",
"190 -40 OFFCURVE",
"190 23 CURVE",
"148 23 LINE",
"148 -85 OFFCURVE",
"225 -164 OFFCURVE",
"332 -164 CURVE SMOOTH"
);
}
);
width = 663;
}
);
unicode = 0B92;
},
{
glyphname = tml_Oo;
lastChange = "2015-12-22 10:01:01 +0000";
layers = (
{
layerId = "A6FF5082-DE18-4D2D-8E01-54AF1261B41D";
name = Bold;
paths = (
{
closed = 1;
nodes = (
"573 152 OFFCURVE",
"643 235 OFFCURVE",
"643 350 CURVE SMOOTH",
"643 501 OFFCURVE",
"517 610 OFFCURVE",
"354 610 CURVE SMOOTH",
"158 610 OFFCURVE",
"41 483 OFFCURVE",
"41 307 CURVE SMOOTH",
"41 214 OFFCURVE",
"92 146 OFFCURVE",
"176 146 CURVE SMOOTH",
"256 146 OFFCURVE",
"303 204 OFFCURVE",
"303 285 CURVE SMOOTH",
"303 364 OFFCURVE",
"262 422 OFFCURVE",
"192 422 CURVE SMOOTH",
"118 422 OFFCURVE",
"74 369 OFFCURVE",
"74 296 CURVE",
"132 290 LINE",
"133 321 OFFCURVE",
"146 343 OFFCURVE",
"176 343 CURVE SMOOTH",
"207 343 OFFCURVE",
"219 320 OFFCURVE",
"219 289 CURVE SMOOTH",
"219 255 OFFCURVE",
"206 231 OFFCURVE",
"174 231 CURVE SMOOTH",
"144 231 OFFCURVE",
"132 260 OFFCURVE",
"132 300 CURVE SMOOTH",
"132 423 OFFCURVE",
"211 512 OFFCURVE",
"354 512 CURVE SMOOTH",
"458 512 OFFCURVE",
"541 442 OFFCURVE",
"541 345 CURVE SMOOTH",
"541 286 OFFCURVE",
"514 243 OFFCURVE",
"477 243 CURVE SMOOTH",
"444 243 OFFCURVE",
"436 269 OFFCURVE",
"436 299 CURVE",
"337 299 LINE",
"337 230 OFFCURVE",
"389 152 OFFCURVE",
"476 152 CURVE SMOOTH"
);
},
{
closed = 1;
nodes = (
"442 -164 OFFCURVE",
"515 -89 OFFCURVE",
"528 15 CURVE",
"491 12 LINE",
"607 12 LINE",
"607 98 LINE",
"486 98 LINE SMOOTH",
"451 98 OFFCURVE",
"434 109 OFFCURVE",
"434 159 CURVE SMOOTH",
"434 191 OFFCURVE",
"434 276 OFFCURVE",
"434 299 CURVE",
"337 299 LINE",
"337 160 LINE SMOOTH",
"337 73 OFFCURVE",
"387 14 OFFCURVE",
"461 14 CURVE",
"435 62 LINE",
"428 -10 OFFCURVE",
"396 -73 OFFCURVE",
"326 -73 CURVE SMOOTH",
"262 -73 OFFCURVE",
"227 -37 OFFCURVE",
"227 5 CURVE SMOOTH",
"227 24 OFFCURVE",
"238 41 OFFCURVE",
"253 41 CURVE SMOOTH",
"267 41 OFFCURVE",
"278 28 OFFCURVE",
"278 9 CURVE SMOOTH",
"278 -34 OFFCURVE",
"252 -46 OFFCURVE",
"226 -62 CURVE",
"263 -120 LINE",
"286 -107 OFFCURVE",
"360 -68 OFFCURVE",
"360 17 CURVE SMOOTH",
"360 77 OFFCURVE",
"312 121 OFFCURVE",
"245 121 CURVE SMOOTH",
"177 121 OFFCURVE",
"128 74 OFFCURVE",
"128 8 CURVE SMOOTH",
"128 -100 OFFCURVE",
"225 -164 OFFCURVE",
"332 -164 CURVE SMOOTH"
);
}
);
width = 663;
},
{
layerId = "E14DABE6-6E32-45CC-852E-073741854548";
name = Light;
paths = (
{
closed = 1;
nodes = (
"578 152 OFFCURVE",
"643 226 OFFCURVE",
"643 340 CURVE SMOOTH",
"643 501 OFFCURVE",
"517 610 OFFCURVE",
"354 610 CURVE SMOOTH",
"158 610 OFFCURVE",
"41 483 OFFCURVE",
"41 307 CURVE SMOOTH",
"41 211 OFFCURVE",
"87 146 OFFCURVE",
"176 146 CURVE SMOOTH",
"246 146 OFFCURVE",
"303 204 OFFCURVE",
"303 285 CURVE SMOOTH",
"303 364 OFFCURVE",
"249 422 OFFCURVE",
"179 422 CURVE SMOOTH",
"99 422 OFFCURVE",
"51 366 OFFCURVE",
"51 293 CURVE",
"83 290 LINE",
"83 341 OFFCURVE",
"115 380 OFFCURVE",
"176 380 CURVE SMOOTH",
"231 380 OFFCURVE",
"261 336 OFFCURVE",
"261 285 CURVE SMOOTH",
"261 231 OFFCURVE",
"224 188 OFFCURVE",
"172 188 CURVE SMOOTH",
"113 188 OFFCURVE",
"83 236 OFFCURVE",
"83 290 CURVE SMOOTH",
"83 443 OFFCURVE",
"181 568 OFFCURVE",
"354 568 CURVE SMOOTH",
"468 568 OFFCURVE",
"601 495 OFFCURVE",
"601 345 CURVE SMOOTH",
"601 256 OFFCURVE",
"563 194 OFFCURVE",
"491 194 CURVE SMOOTH",
"419 194 OFFCURVE",
"409 269 OFFCURVE",
"409 299 CURVE",
"367 299 LINE",
"367 230 OFFCURVE",
"401 152 OFFCURVE",
"491 152 CURVE SMOOTH"
);
},
{
closed = 1;
nodes = (
"168 34 OFFCURVE",
"185 79 OFFCURVE",
"245 79 CURVE SMOOTH",
"288 79 OFFCURVE",
"318 50 OFFCURVE",
"318 2 CURVE SMOOTH",
"318 -46 OFFCURVE",
"282 -86 OFFCURVE",
"236 -107 CURVE",
"260 -135 LINE",
"312 -116 OFFCURVE",
"359 -69 OFFCURVE",
"359 7 CURVE SMOOTH",
"359 91 OFFCURVE",
"299 121 OFFCURVE",
"245 121 CURVE SMOOTH",
"201 121 OFFCURVE",
"128 96 OFFCURVE",
"128 0 CURVE SMOOTH",
"128 -108 OFFCURVE",
"231 -164 OFFCURVE",
"330 -164 CURVE SMOOTH",
"446 -164 OFFCURVE",
"520 -78 OFFCURVE",
"520 36 CURVE",
"501 31 LINE",
"607 31 LINE",
"607 73 LINE",
"486 73 LINE SMOOTH",
"431 73 OFFCURVE",
"408 108 OFFCURVE",
"408 169 CURVE SMOOTH",
"408 201 OFFCURVE",
"407 276 OFFCURVE",
"407 299 CURVE",
"367 299 LINE",
"367 170 LINE SMOOTH",
"367 83 OFFCURVE",
"414 33 OFFCURVE",
"488 33 CURVE",
"479 42 LINE",
"479 -58 OFFCURVE",
"420 -122 OFFCURVE",
"330 -122 CURVE SMOOTH",
"230 -122 OFFCURVE",
"168 -64 OFFCURVE",
"168 0 CURVE SMOOTH"
);
}
);
width = 600;
}
);
unicode = 0B93;
},
{
glyphname = tml_Ka;
lastChange = "2015-12-21 17:00:02 +0000";
layers = (
{
anchors = (
{
name = Anchor0;
position = "{309, 0}";
},
{
name = Anchor1;
position = "{479, 0}";
},
{
name = Anchor3;
position = "{14, 0}";
}
);
layerId = "A6FF5082-DE18-4D2D-8E01-54AF1261B41D";
name = Bold;
paths = (
{
closed = 1;
nodes = (
"30 172 CURVE SMOOTH",
"30 271 OFFCURVE",
"92 341 OFFCURVE",
"210 341 CURVE SMOOTH",
"441 341 LINE SMOOTH",
"535 341 OFFCURVE",
"611 306 OFFCURVE",
"611 167 CURVE SMOOTH",
"611 17 OFFCURVE",
"528 0 OFFCURVE",
"446 0 CURVE",
"425 0 LINE",
"425 93 LINE",
"441 93 LINE SMOOTH",
"485 93 OFFCURVE",
"513 123 OFFCURVE",
"513 168 CURVE SMOOTH",
"513 225 OFFCURVE",
"479 242 OFFCURVE",
"438 242 CURVE SMOOTH",
"212 244 LINE SMOOTH",
"159 244 OFFCURVE",
"130 212 OFFCURVE",
"130 167 CURVE SMOOTH",
"130 124 OFFCURVE",
"164 89 OFFCURVE",
"215 89 CURVE SMOOTH",
"270 89 OFFCURVE",
"308 130 OFFCURVE",
"308 207 CURVE SMOOTH",
"308 289 LINE",
"318 301 LINE",
"318 461 LINE",
"223 461 LINE",
"223 309 LINE",
"139 309 LINE",
"139 560 LINE",
"518 560 LINE",
"518 461 LINE",
"415 461 LINE",
"415 207 LINE SMOOTH",
"415 103 OFFCURVE",
"375 -9 OFFCURVE",
"217 -9 CURVE SMOOTH",
"82 -9 OFFCURVE",
"30 75 OFFCURVE"
);
}
);
width = 641;
},
{
layerId = "E14DABE6-6E32-45CC-852E-073741854548";
name = Light;
paths = (
{
closed = 1;
nodes = (
"201 299 LINE SMOOTH",
"114 299 OFFCURVE",
"72 248 OFFCURVE",
"72 177 CURVE SMOOTH",
"72 96 OFFCURVE",
"128 43 OFFCURVE",
"209 43 CURVE SMOOTH",
"282 43 OFFCURVE",
"347 86 OFFCURVE",
"347 207 CURVE SMOOTH",
"347 289 LINE",
"347 301 LINE",
"347 518 LINE",
"191 518 LINE",
"191 309 LINE",
"149 309 LINE",
"149 560 LINE",
"512 560 LINE",
"512 518 LINE",
"389 518 LINE",
"389 207 LINE SMOOTH",
"389 104 OFFCURVE",
"348 1 OFFCURVE",
"213 1 CURVE SMOOTH",
"104 1 OFFCURVE",
"33 68 OFFCURVE",
"30 175 CURVE SMOOTH",
"27 272 OFFCURVE",
"86 341 OFFCURVE",
"183 341 CURVE SMOOTH",
"432 341 LINE",
"554 341 OFFCURVE",
"611 275 OFFCURVE",
"611 167 CURVE SMOOTH",
"611 43 OFFCURVE",
"538 0 OFFCURVE",
"446 0 CURVE",
"425 0 LINE",
"425 42 LINE",
"441 42 LINE SMOOTH",
"543 42 OFFCURVE",
"569 105 OFFCURVE",
"569 167 CURVE SMOOTH",
"569 257 OFFCURVE",
"520 299 OFFCURVE",
"417 299 CURVE"
);
}
);
width = 641;
}
);
unicode = 0B95;
},
{
glyphname = tml_Nga;
lastChange = "2015-12-21 17:00:32 +0000";
layers = (
{
anchors = (
{
name = Anchor0;
position = "{354, 0}";
},
{
name = Anchor1;
position = "{519, -10}";
},
{
name = Anchor4;
position = "{853, 0}";
}
);
layerId = "A6FF5082-DE18-4D2D-8E01-54AF1261B41D";
name = Bold;
paths = (
{
closed = 1;
nodes = (
"30 0 LINE",
"30 560 LINE",
"440 560 LINE",
"440 462 LINE",
"338 462 LINE",
"338 164 LINE",
"230 164 LINE",
"230 462 LINE",
"137 462 LINE",
"137 0 LINE"
);
},
{
closed = 1;
nodes = (
"228 98 LINE",
"697 97 LINE",
"697 0 LINE",
"228 0 LINE"
);
},
{
closed = 1;
nodes = (
"298 98 LINE",
"415 98 OFFCURVE",
"443 187 OFFCURVE",
"443 240 CURVE SMOOTH",
"443 283 OFFCURVE",
"424 317 OFFCURVE",
"387 317 CURVE SMOOTH",
"348 317 OFFCURVE",
"338 279 OFFCURVE",
"338 254 CURVE",
"289 285 LINE",
"289 358 OFFCURVE",
"340 408 OFFCURVE",
"413 408 CURVE SMOOTH",
"491 408 OFFCURVE",
"548 352 OFFCURVE",
"548 257 CURVE SMOOTH",
"548 136 OFFCURVE",
"454 22 OFFCURVE",
"307 22 CURVE"
);
},
{
closed = 1;
nodes = (
"613 560 LINE",
"720 560 LINE",
"720 0 LINE",
"613 0 LINE"
);
}
);
width = 750;
},
{
layerId = "E14DABE6-6E32-45CC-852E-073741854548";
name = Light;
paths = (
{
closed = 1;
nodes = (
"30 0 LINE",
"30 560 LINE",
"386 560 LINE",
"386 518 LINE",
"274 518 LINE",
"274 164 LINE",
"232 164 LINE",
"232 518 LINE",
"72 518 LINE",
"72 0 LINE"
);
},
{
closed = 1;
nodes = (
"232 42 LINE",
"628 42 LINE",
"628 0 LINE",
"232 0 LINE"
);
},
{
closed = 1;
nodes = (
"243 42 LINE",
"400 42 OFFCURVE",
"461 144 OFFCURVE",
"461 247 CURVE SMOOTH",
"461 318 OFFCURVE",
"429 366 OFFCURVE",
"362 366 CURVE SMOOTH",
"303 366 OFFCURVE",
"274 319 OFFCURVE",
"274 274 CURVE",
"238 275 LINE",
"238 348 OFFCURVE",
"293 408 OFFCURVE",
"371 408 CURVE SMOOTH",
"448 408 OFFCURVE",
"503 349 OFFCURVE",
"503 249 CURVE SMOOTH",
"503 118 OFFCURVE",
"428 6 OFFCURVE",
"243 6 CURVE"
);
},
{
closed = 1;
nodes = (
"609 560 LINE",
"651 560 LINE",
"651 0 LINE",
"609 0 LINE"
);
}
);
width = 681;
}
);
unicode = 0B99;
},
{
color = 0;
glyphname = tml_Ca;
lastChange = "2015-12-20 21:20:46 +0000";
layers = (
{
anchors = (
{
name = Anchor0;
position = "{325, 0}";
},
{
name = Anchor1;
position = "{114, 0}";
},
{
name = Anchor3;
position = "{2, 0}";
}
);
layerId = "A6FF5082-DE18-4D2D-8E01-54AF1261B41D";
name = Bold;
paths = (
{
closed = 1;
nodes = (
"82 -13 OFFCURVE",
"30 75 OFFCURVE",
"30 172 CURVE SMOOTH",
"30 271 OFFCURVE",
"94 341 OFFCURVE",
"212 341 CURVE SMOOTH",
"518 341 LINE",
"518 341 OFFCURVE",
"518 244 OFFCURVE",
"518 244 CURVE",
"212 244 LINE SMOOTH",
"159 244 OFFCURVE",
"130 212 OFFCURVE",
"130 167 CURVE SMOOTH",
"130 124 OFFCURVE",
"166 85 OFFCURVE",
"217 85 CURVE SMOOTH",
"282 85 OFFCURVE",
"308 140 OFFCURVE",
"308 207 CURVE SMOOTH",
"308 289 LINE",
"318 301 LINE",
"318 461 LINE",
"223 461 LINE",
"223 309 LINE",
"139 309 LINE",
"139 560 LINE",
"518 560 LINE",
"518 461 LINE",
"415 461 LINE",
"415 207 LINE SMOOTH",
"415 103 OFFCURVE",
"375 -13 OFFCURVE",
"217 -13 CURVE SMOOTH"
);
}
);
width = 558;
},
{
layerId = "E14DABE6-6E32-45CC-852E-073741854548";
name = Light;
paths = (
{
closed = 1;
nodes = (
"201 299 LINE SMOOTH",
"114 299 OFFCURVE",
"72 248 OFFCURVE",
"72 177 CURVE SMOOTH",
"72 96 OFFCURVE",
"128 43 OFFCURVE",
"209 43 CURVE SMOOTH",
"282 43 OFFCURVE",
"347 86 OFFCURVE",
"347 207 CURVE SMOOTH",
"347 289 LINE",
"347 301 LINE",
"347 518 LINE",
"191 518 LINE",
"191 309 LINE",
"149 309 LINE",
"149 560 LINE",
"512 560 LINE",
"512 518 LINE",
"389 518 LINE",
"389 207 LINE SMOOTH",
"389 104 OFFCURVE",
"348 1 OFFCURVE",
"213 1 CURVE SMOOTH",
"104 1 OFFCURVE",
"33 68 OFFCURVE",
"30 175 CURVE SMOOTH",
"27 272 OFFCURVE",
"86 341 OFFCURVE",
"183 341 CURVE SMOOTH",
"512 341 LINE",
"512 299 LINE"
);
}
);
width = 552;
}
);
unicode = 0B9A;
},
{
glyphname = tml_Ja;
lastChange = "2015-12-22 10:34:07 +0000";
layers = (
{
anchors = (
{
name = Anchor0;
position = "{420, 0}";
},
{
name = Anchor1;
position = "{378, 0}";
}
);
layerId = "A6FF5082-DE18-4D2D-8E01-54AF1261B41D";
name = Bold;
paths = (
{
closed = 1;
nodes = (
"21 24 CURVE SMOOTH",
"21 202 OFFCURVE",
"217 236 OFFCURVE",
"356 250 CURVE SMOOTH",
"477 262 OFFCURVE",
"592 275 OFFCURVE",
"592 397 CURVE SMOOTH",
"592 444 OFFCURVE",
"575 475 OFFCURVE",
"534 475 CURVE SMOOTH",
"487 475 OFFCURVE",
"447 435 OFFCURVE",
"447 354 CURVE SMOOTH",
"447 340 OFFCURVE",
"447 321 OFFCURVE",
"447 299 CURVE",
"342 299 LINE",
"346 465 OFFCURVE",
"399 581 OFFCURVE",
"537 581 CURVE SMOOTH",
"637 581 OFFCURVE",
"707 520 OFFCURVE",
"707 396 CURVE SMOOTH",
"707 179 OFFCURVE",
"492 154 OFFCURVE",
"344 141 CURVE SMOOTH",
"271 135 OFFCURVE",
"141 119 OFFCURVE",
"141 30 CURVE SMOOTH",
"141 -18 OFFCURVE",
"180 -39 OFFCURVE",
"221 -39 CURVE SMOOTH",
"340 -39 OFFCURVE",
"381 143 OFFCURVE",
"559 143 CURVE SMOOTH",
"650 143 OFFCURVE",
"716 78 OFFCURVE",
"716 -11 CURVE SMOOTH",
"716 -94 OFFCURVE",
"645 -154 OFFCURVE",
"554 -154 CURVE SMOOTH",
"464 -154 LINE",
"465 -48 LINE",
"551 -48 LINE SMOOTH",
"579 -48 OFFCURVE",
"599 -31 OFFCURVE",
"599 -7 CURVE SMOOTH",
"599 16 OFFCURVE",
"579 33 OFFCURVE",
"552 33 CURVE SMOOTH",
"456 33 OFFCURVE",
"410 -155 OFFCURVE",
"219 -155 CURVE SMOOTH",
"115 -155 OFFCURVE",
"21 -99 OFFCURVE"
);
},
{
closed = 1;
nodes = (
"337 299 LINE",
"337 318 OFFCURVE",
"337 319 OFFCURVE",
"337 344 CURVE SMOOTH",
"337 415 OFFCURVE",
"278 488 OFFCURVE",
"223 488 CURVE SMOOTH",
"155 488 OFFCURVE",
"105 441 OFFCURVE",
"105 377 CURVE SMOOTH",
"105 332 OFFCURVE",
"124 317 OFFCURVE",
"143 317 CURVE SMOOTH",
"169 317 OFFCURVE",
"182 344 OFFCURVE",
"182 372 CURVE SMOOTH",
"182 406 OFFCURVE",
"162 422 OFFCURVE",
"143 422 CURVE SMOOTH",
"124 422 OFFCURVE",
"105 406 OFFCURVE",
"105 370 CURVE",
"45 412 LINE SMOOTH",
"45 412 OFFCURVE",
"73 495 OFFCURVE",
"143 495 CURVE SMOOTH",
"184 495 OFFCURVE",
"260 467 OFFCURVE",
"260 363 CURVE SMOOTH",
"260 273 OFFCURVE",
"203 234 OFFCURVE",
"139 234 CURVE SMOOTH",
"62 234 OFFCURVE",
"18 289 OFFCURVE",
"18 384 CURVE SMOOTH",
"19 518 OFFCURVE",
"108 584 OFFCURVE",
"216 582 CURVE SMOOTH",
"375 579 OFFCURVE",
"437 432 OFFCURVE",
"439 299 CURVE"
);
}
);
width = 757;
},
{
layerId = "E14DABE6-6E32-45CC-852E-073741854548";
name = Light;
paths = (
{
closed = 1;
nodes = (
"362 299 LINE",
"364 432 OFFCURVE",
"330 542 OFFCURVE",
"218 542 CURVE SMOOTH",
"127 542 OFFCURVE",
"62 489 OFFCURVE",
"62 370 CURVE SMOOTH",
"62 305 OFFCURVE",
"98 274 OFFCURVE",
"142 274 CURVE SMOOTH",
"190 274 OFFCURVE",
"222 318 OFFCURVE",
"222 362 CURVE SMOOTH",
"222 417 OFFCURVE",
"193 455 OFFCURVE",
"149 455 CURVE SMOOTH",
"84 455 OFFCURVE",
"62 405 OFFCURVE",
"62 369 CURVE",
"31 380 LINE",
"31 453 OFFCURVE",
"92 495 OFFCURVE",
"147 495 CURVE SMOOTH",
"189 495 OFFCURVE",
"262 467 OFFCURVE",
"262 362 CURVE SMOOTH",
"262 273 OFFCURVE",
"204 234 OFFCURVE",
"142 234 CURVE SMOOTH",
"61 234 OFFCURVE",
"19 294 OFFCURVE",
"20 384 CURVE SMOOTH",
"21 513 OFFCURVE",
"106 583 OFFCURVE",
"221 582 CURVE SMOOTH",
"381 581 OFFCURVE",
"403 426 OFFCURVE",
"404 299 CURVE"
);
},
{
closed = 1;
nodes = (
"108 -155 OFFCURVE",
"23 -99 OFFCURVE",
"23 21 CURVE SMOOTH",
"23 197 OFFCURVE",
"216 198 OFFCURVE",
"358 218 CURVE SMOOTH",
"528 242 OFFCURVE",
"674 258 OFFCURVE",
"674 402 CURVE SMOOTH",
"674 480 OFFCURVE",
"637 539 OFFCURVE",
"545 539 CURVE SMOOTH",
"439 539 OFFCURVE",
"403 431 OFFCURVE",
"404 299 CURVE",
"362 299 LINE",
"365 469 OFFCURVE",
"413 581 OFFCURVE",
"545 581 CURVE SMOOTH",
"653 581 OFFCURVE",
"716 516 OFFCURVE",
"716 402 CURVE SMOOTH",
"716 205 OFFCURVE",
"513 192 OFFCURVE",
"359 174 CURVE SMOOTH",
"198 155 OFFCURVE",
"65 141 OFFCURVE",
"65 21 CURVE SMOOTH",
"65 -54 OFFCURVE",
"119 -113 OFFCURVE",
"205 -113 CURVE SMOOTH",
"347 -113 OFFCURVE",
"381 124 OFFCURVE",
"561 124 CURVE SMOOTH",
"655 124 OFFCURVE",
"700 63 OFFCURVE",
"700 -14 CURVE SMOOTH",
"700 -100 OFFCURVE",
"632 -156 OFFCURVE",
"551 -154 CURVE",
"454 -154 LINE",
"454 -112 LINE",
"548 -112 LINE",
"587 -111 OFFCURVE",
"656 -96 OFFCURVE",
"656 -14 CURVE SMOOTH",
"656 47 OFFCURVE",
"619 82 OFFCURVE",
"554 82 CURVE SMOOTH",
"406 82 OFFCURVE",
"391 -155 OFFCURVE",
"199 -155 CURVE SMOOTH"
);
}
);
width = 756;
}
);
unicode = 0B9C;
},
{
glyphname = tml_Nya;
lastChange = "2015-12-21 17:00:52 +0000";
layers = (
{
anchors = (
{
name = Anchor0;
position = "{942, -7}";
},
{
name = Anchor1;
position = "{870, -7}";
},
{
name = Anchor4;
position = "{883, 0}";
},
{
name = tml_virama;
position = "{423, 2}";
}
);
layerId = "A6FF5082-DE18-4D2D-8E01-54AF1261B41D";
name = Bold;
paths = (
{
closed = 1;
nodes = (
"242 245 CURVE SMOOTH",
"242 442 OFFCURVE",
"335 560 OFFCURVE",
"491 560 CURVE SMOOTH",
"489 462 LINE SMOOTH",
"390 462 OFFCURVE",
"344 370 OFFCURVE",
"344 255 CURVE SMOOTH",
"344 158 OFFCURVE",
"361 74 OFFCURVE",
"409 74 CURVE SMOOTH",
"455 74 OFFCURVE",
"464 139 OFFCURVE",
"464 178 CURVE SMOOTH",
"464 246 OFFCURVE",
"436 281 OFFCURVE",
"410 281 CURVE SMOOTH",
"367 281 OFFCURVE",
"347 235 OFFCURVE",
"350 167 CURVE",
"294 196 LINE",
"294 269 OFFCURVE",
"337 362 OFFCURVE",
"421 362 CURVE SMOOTH",
"494 362 OFFCURVE",
"560 297 OFFCURVE",
"560 174 CURVE SMOOTH",
"560 53 OFFCURVE",
"503 -24 OFFCURVE",
"409 -24 CURVE SMOOTH",
"304 -24 OFFCURVE",
"242 90 OFFCURVE"
);
},
{
closed = 1;
nodes = (
"481 462 LINE",
"489 560 LINE",
"826 560 LINE",
"826 462 LINE",
"723 462 LINE",
"723 1 LINE",
"616 1 LINE",
"616 462 LINE"
);
},
{
closed = 1;
nodes = (
"518 -275 CURVE SMOOTH",
"223 -274 OFFCURVE",
"31 -84 OFFCURVE",
"30 227 CURVE SMOOTH",
"30 368 OFFCURVE",
"80 477 OFFCURVE",
"138 572 CURVE",
"227 527 LINE",
"171 434 OFFCURVE",
"134 350 OFFCURVE",
"134 227 CURVE SMOOTH",
"134 -17 OFFCURVE",
"290 -176 OFFCURVE",
"519 -175 CURVE SMOOTH",
"757 -174 OFFCURVE",
"842 -54 OFFCURVE",
"842 134 CURVE SMOOTH",
"842 213 OFFCURVE",
"815 267 OFFCURVE",
"774 267 CURVE SMOOTH",
"732 267 OFFCURVE",
"723 229 OFFCURVE",
"723 204 CURVE",
"674 235 LINE SMOOTH",
"674 308 OFFCURVE",
"722 358 OFFCURVE",
"786 358 CURVE SMOOTH",
"880 358 OFFCURVE",
"944 280 OFFCURVE",
"944 131 CURVE SMOOTH",
"944 -117 OFFCURVE",
"826 -276 OFFCURVE"
);
}
);
width = 974;
},
{
layerId = "E14DABE6-6E32-45CC-852E-073741854548";
name = Light;
paths = (
{
closed = 1;
nodes = (
"431 519 LINE",
"429 560 LINE",
"744 560 LINE",
"744 519 LINE",
"608 519 LINE",
"608 1 LINE",
"566 1 LINE",
"566 519 LINE"
);
},
{
closed = 1;
nodes = (
"852 -67 OFFCURVE",
"763 -276 OFFCURVE",
"474 -275 CURVE SMOOTH",
"196 -274 OFFCURVE",
"30 -68 OFFCURVE",
"30 227 CURVE SMOOTH",
"30 368 OFFCURVE",
"68 487 OFFCURVE",
"126 572 CURVE",
"163 550 LINE",
"107 467 OFFCURVE",
"74 370 OFFCURVE",
"74 227 CURVE SMOOTH",
"74 -27 OFFCURVE",
"214 -231 OFFCURVE",
"475 -231 CURVE SMOOTH",
"747 -231 OFFCURVE",
"810 -24 OFFCURVE",
"810 124 CURVE SMOOTH",
"810 263 OFFCURVE",
"762 316 OFFCURVE",
"697 316 CURVE SMOOTH",
"619 316 OFFCURVE",
"607 247 OFFCURVE",
"608 212 CURVE",
"581 223 LINE",
"581 292 OFFCURVE",
"620 356 OFFCURVE",
"701 356 CURVE SMOOTH",
"795 356 OFFCURVE",
"852 270 OFFCURVE",
"852 121 CURVE SMOOTH"
);
},
{
closed = 1;
nodes = (
"315 519 OFFCURVE",
"238 403 OFFCURVE",
"238 234 CURVE SMOOTH",
"238 147 OFFCURVE",
"256 18 OFFCURVE",
"340 18 CURVE SMOOTH",
"398 18 OFFCURVE",
"431 80 OFFCURVE",
"431 168 CURVE SMOOTH",
"431 261 OFFCURVE",
"394 310 OFFCURVE",
"341 310 CURVE SMOOTH",
"275 310 OFFCURVE",
"238 232 OFFCURVE",
"245 144 CURVE",
"211 164 LINE",
"212 286 OFFCURVE",
"274 350 OFFCURVE",
"344 350 CURVE SMOOTH",
"411 350 OFFCURVE",
"471 287 OFFCURVE",
"471 167 CURVE SMOOTH",
"471 55 OFFCURVE",
"419 -24 OFFCURVE",
"338 -24 CURVE SMOOTH",
"245 -24 OFFCURVE",
"197 82 OFFCURVE",
"197 233 CURVE SMOOTH",
"197 430 OFFCURVE",
"288 560 OFFCURVE",
"432 560 CURVE",
"434 519 LINE"
);
}
);
width = 882;
}
);
unicode = 0B9E;
},
{
glyphname = tml_Tta;
lastChange = "2015-12-21 17:01:20 +0000";
layers = (
{
anchors = (
{
name = Anchor0;
position = "{318, 0}";
}
);
layerId = "A6FF5082-DE18-4D2D-8E01-54AF1261B41D";
name = Bold;
paths = (
{
closed = 1;
nodes = (
"30 1 LINE",
"30 560 LINE",
"137 560 LINE",
"137 99 LINE",
"547 99 LINE",
"547 1 LINE"
);
}
);
width = 577;
},
{
layerId = "E14DABE6-6E32-45CC-852E-073741854548";
name = Light;
paths = (
{
closed = 1;
nodes = (
"30 1 LINE",
"30 560 LINE",
"72 560 LINE",
"72 43 LINE",
"539 43 LINE",
"539 1 LINE"
);
}
);
width = 569;
}
);
unicode = 0B9F;
},
{
color = 0;
glyphname = tml_Nna;
lastChange = "2015-12-20 21:18:11 +0000";
layers = (
{
anchors = (
{
name = Anchor0;
position = "{711, 0}";
},
{
name = Anchor1;
position = "{860, 0}";
},
{
name = tml_virama;
position = "{477, 1}";
}
);
layerId = "A6FF5082-DE18-4D2D-8E01-54AF1261B41D";
name = Bold;
paths = (
{
closed = 1;
nodes = (
"851 572 OFFCURVE",
"1026 475 OFFCURVE",
"1026 207 CURVE SMOOTH",
"1026 57 OFFCURVE",
"972 -23 OFFCURVE",
"869 -23 CURVE SMOOTH",
"768 -23 OFFCURVE",
"709 55 OFFCURVE",
"709 215 CURVE SMOOTH",
"709 410 OFFCURVE",
"815 561 OFFCURVE",
"1000 561 CURVE",
"1277 561 LINE",
"1277 463 LINE",
"1174 461 LINE",
"1174 1 LINE",
"1066 1 LINE",
"1066 461 LINE",
"1001 461 LINE",
"882 461 OFFCURVE",
"814 359 OFFCURVE",
"814 208 CURVE SMOOTH",
"814 133 OFFCURVE",
"831 65 OFFCURVE",
"867 65 CURVE SMOOTH",
"905 65 OFFCURVE",
"920 137 OFFCURVE",
"920 209 CURVE SMOOTH",
"920 424 OFFCURVE",
"785 474 OFFCURVE",
"689 474 CURVE SMOOTH",
"524 474 OFFCURVE",
"475 327 OFFCURVE",
"475 199 CURVE SMOOTH",
"475 123 OFFCURVE",
"492 65 OFFCURVE",
"528 65 CURVE SMOOTH",
"567 65 OFFCURVE",
"580 124 OFFCURVE",
"580 194 CURVE SMOOTH",
"580 397 OFFCURVE",
"455 476 OFFCURVE",
"332 474 CURVE SMOOTH",
"258 473 OFFCURVE",
"132 418 OFFCURVE",
"132 233 CURVE SMOOTH",
"132 165 OFFCURVE",
"149 64 OFFCURVE",
"199 64 CURVE SMOOTH",
"242 64 OFFCURVE",
"252 139 OFFCURVE",
"252 179 CURVE SMOOTH",
"252 238 OFFCURVE",
"230 281 OFFCURVE",
"195 281 CURVE SMOOTH",
"158 281 OFFCURVE",
"134 234 OFFCURVE",
"138 167 CURVE",
"82 196 LINE",
"82 269 OFFCURVE",
"124 362 OFFCURVE",
"210 362 CURVE SMOOTH",
"282 362 OFFCURVE",
"348 298 OFFCURVE",
"348 171 CURVE SMOOTH",
"348 50 OFFCURVE",
"288 -24 OFFCURVE",
"201 -24 CURVE SMOOTH",
"92 -24 OFFCURVE",
"30 91 OFFCURVE",
"30 236 CURVE SMOOTH",
"30 483 OFFCURVE",
"212 570 OFFCURVE",
"341 570 CURVE SMOOTH",
"449 570 OFFCURVE",
"688 510 OFFCURVE",
"688 200 CURVE SMOOTH",
"688 52 OFFCURVE",
"620 -23 OFFCURVE",
"528 -23 CURVE SMOOTH",
"434 -23 OFFCURVE",
"370 57 OFFCURVE",
"370 206 CURVE SMOOTH",
"370 401 OFFCURVE",
"471 572 OFFCURVE",
"689 572 CURVE SMOOTH"
);
}
);
width = 1307;
},
{
layerId = "E14DABE6-6E32-45CC-852E-073741854548";
name = Light;
paths = (
{
closed = 1;
nodes = (
"177 531 OFFCURVE",
"71 407 OFFCURVE",
"71 238 CURVE SMOOTH",
"71 151 OFFCURVE",
"89 22 OFFCURVE",
"173 22 CURVE SMOOTH",
"231 22 OFFCURVE",
"264 84 OFFCURVE",
"264 172 CURVE SMOOTH",
"264 265 OFFCURVE",
"227 314 OFFCURVE",
"174 314 CURVE SMOOTH",
"108 314 OFFCURVE",
"71 236 OFFCURVE",
"78 148 CURVE",
"44 168 LINE",
"45 290 OFFCURVE",
"107 354 OFFCURVE",
"177 354 CURVE SMOOTH",
"244 354 OFFCURVE",
"299 291 OFFCURVE",
"299 171 CURVE SMOOTH",
"299 59 OFFCURVE",
"252 -20 OFFCURVE",
"171 -20 CURVE SMOOTH",
"78 -20 OFFCURVE",
"30 86 OFFCURVE",
"30 237 CURVE SMOOTH",
"30 434 OFFCURVE",
"152 572 OFFCURVE",
"326 572 CURVE SMOOTH",
"481 572 OFFCURVE",
"641 474 OFFCURVE",
"641 218 CURVE SMOOTH",
"641 77 OFFCURVE",
"598 -23 OFFCURVE",
"493 -23 CURVE SMOOTH",
"391 -23 OFFCURVE",
"341 75 OFFCURVE",
"341 214 CURVE SMOOTH",
"341 425 OFFCURVE",
"456 571 OFFCURVE",
"663 572 CURVE SMOOTH",
"818 572 OFFCURVE",
"983 474 OFFCURVE",
"983 218 CURVE SMOOTH",
"983 77 OFFCURVE",
"940 -23 OFFCURVE",
"835 -23 CURVE SMOOTH",
"733 -23 OFFCURVE",
"683 75 OFFCURVE",
"683 214 CURVE SMOOTH",
"683 425 OFFCURVE",
"795 560 OFFCURVE",
"987 561 CURVE",
"1242 561 LINE",
"1242 519 LINE",
"1124 519 LINE",
"1124 1 LINE",
"1082 1 LINE",
"1082 519 LINE",
"988 519 LINE",
"815 519 OFFCURVE",
"725 388 OFFCURVE",
"725 214 CURVE SMOOTH",
"725 115 OFFCURVE",
"756 19 OFFCURVE",
"835 19 CURVE SMOOTH",
"913 19 OFFCURVE",
"941 115 OFFCURVE",
"941 214 CURVE SMOOTH",
"941 455 OFFCURVE",
"786 531 OFFCURVE",
"663 531 CURVE SMOOTH",
"475 531 OFFCURVE",
"383 388 OFFCURVE",
"383 214 CURVE SMOOTH",
"383 115 OFFCURVE",
"414 19 OFFCURVE",
"493 19 CURVE SMOOTH",
"571 19 OFFCURVE",
"599 115 OFFCURVE",
"599 214 CURVE SMOOTH",
"599 455 OFFCURVE",
"449 531 OFFCURVE",
"326 531 CURVE SMOOTH"
);
}
);
width = 1272;
}
);
unicode = 0BA3;
},
{
glyphname = tml_Ta;
lastChange = "2015-12-21 17:01:44 +0000";
layers = (
{
anchors = (
{
name = Anchor0;
position = "{309, 1}";
},
{
name = Anchor1;
position = "{478, 1}";
},
{
name = Anchor3;
position = "{14, -7}";
},
{
name = _Anchor2;
position = "{194, 0}";
}
);
layerId = "A6FF5082-DE18-4D2D-8E01-54AF1261B41D";
name = Bold;
paths = (
{
closed = 1;
nodes = (
"230 -158 LINE SMOOTH",
"142 -158 OFFCURVE",
"152 -197 OFFCURVE",
"151 -236 CURVE",
"41 -236 LINE",
"42 -129 OFFCURVE",
"84 -61 OFFCURVE",
"224 -61 CURVE SMOOTH",
"328 -61 LINE SMOOTH",
"436 -60 OFFCURVE",
"504 14 OFFCURVE",
"504 87 CURVE SMOOTH",
"504 179 OFFCURVE",
"478 241 OFFCURVE",
"388 242 CURVE SMOOTH",
"191 244 LINE SMOOTH",
"150 244 OFFCURVE",
"130 214 OFFCURVE",
"130 175 CURVE SMOOTH",
"130 123 OFFCURVE",
"161 96 OFFCURVE",
"212 96 CURVE SMOOTH",
"277 96 OFFCURVE",
"308 140 OFFCURVE",
"308 207 CURVE SMOOTH",
"308 289 LINE",
"318 301 LINE",
"318 464 LINE",
"223 464 LINE",
"223 309 LINE",
"139 309 LINE",
"139 560 LINE",
"518 560 LINE",
"518 464 LINE",
"415 464 LINE",
"415 207 LINE SMOOTH",
"415 100 OFFCURVE",
"375 1 OFFCURVE",
"212 1 CURVE SMOOTH",
"82 1 OFFCURVE",
"31 75 OFFCURVE",
"30 175 CURVE SMOOTH",
"29 268 OFFCURVE",
"84 341 OFFCURVE",
"172 341 CURVE SMOOTH",
"391 341 LINE SMOOTH",
"538 341 OFFCURVE",
"603 239 OFFCURVE",
"603 86 CURVE SMOOTH",
"603 -35 OFFCURVE",
"489 -156 OFFCURVE",
"334 -157 CURVE SMOOTH"
);
}
);
width = 633;
},
{
layerId = "E14DABE6-6E32-45CC-852E-073741854548";
name = Light;
paths = (
{
closed = 1;
nodes = (
"220 -138 LINE SMOOTH",
"138 -139 OFFCURVE",
"132 -197 OFFCURVE",
"131 -236 CURVE",
"89 -236 LINE",
"90 -129 OFFCURVE",
"149 -95 OFFCURVE",
"215 -95 CURVE SMOOTH",
"322 -95 LINE SMOOTH",
"406 -95 OFFCURVE",
"545 -43 OFFCURVE",
"545 116 CURVE SMOOTH",
"545 243 OFFCURVE",
"506 299 OFFCURVE",
"372 299 CURVE SMOOTH",
"201 299 LINE SMOOTH",
"114 299 OFFCURVE",
"72 248 OFFCURVE",
"72 177 CURVE SMOOTH",
"72 96 OFFCURVE",
"128 43 OFFCURVE",
"209 43 CURVE SMOOTH",
"282 43 OFFCURVE",
"347 86 OFFCURVE",
"347 207 CURVE SMOOTH",
"347 289 LINE",
"347 301 LINE",
"347 518 LINE",
"191 518 LINE",
"191 309 LINE",
"149 309 LINE",
"149 560 LINE",
"512 560 LINE",
"512 518 LINE",
"389 518 LINE",
"389 207 LINE SMOOTH",
"389 104 OFFCURVE",
"348 1 OFFCURVE",
"213 1 CURVE SMOOTH",
"104 1 OFFCURVE",
"33 68 OFFCURVE",
"30 175 CURVE SMOOTH",
"27 272 OFFCURVE",
"86 341 OFFCURVE",
"183 341 CURVE SMOOTH",
"375 341 LINE SMOOTH",
"520 341 OFFCURVE",
"591 271 OFFCURVE",
"591 117 CURVE SMOOTH",
"591 -47 OFFCURVE",
"467 -136 OFFCURVE",
"331 -137 CURVE SMOOTH"
);
}
);
width = 621;
}
);
unicode = 0BA4;
},
{
glyphname = tml_Na;
lastChange = "2015-12-21 17:02:09 +0000";
layers = (
{
anchors = (
{
name = Anchor0;
position = "{213, 0}";
},
{
name = Anchor1;
position = "{413, 0}";
},
{
name = Anchor3;
position = "{1, -7}";
},
{
name = _Anchor2;
position = "{181, 0}";
}
);
guideLines = (
{
angle = 90;
position = "{150, 1}";
}
);
layerId = "A6FF5082-DE18-4D2D-8E01-54AF1261B41D";
name = Bold;
paths = (
{
closed = 1;
nodes = (
"33 1 LINE",
"33 560 LINE",
"482 560 LINE",
"482 462 LINE",
"379 462 LINE",
"379 1 LINE",
"271 1 LINE",
"271 462 LINE",
"140 462 LINE",
"140 1 LINE"
);
},
{
closed = 1;
nodes = (
"602 -46 OFFCURVE",
"521 -155 OFFCURVE",
"333 -157 CURVE SMOOTH",
"229 -158 LINE SMOOTH",
"131 -159 OFFCURVE",
"141 -197 OFFCURVE",
"140 -236 CURVE",
"30 -236 LINE",
"31 -129 OFFCURVE",
"73 -61 OFFCURVE",
"223 -61 CURVE SMOOTH",
"327 -61 LINE SMOOTH",
"440 -60 OFFCURVE",
"504 -1 OFFCURVE",
"499 123 CURVE SMOOTH",
"499 200 OFFCURVE",
"480 266 OFFCURVE",
"428 266 CURVE SMOOTH",
"385 266 OFFCURVE",
"379 218 OFFCURVE",
"379 179 CURVE",
"310 220 LINE",
"312 265 OFFCURVE",
"350 359 OFFCURVE",
"439 358 CURVE SMOOTH",
"558 357 OFFCURVE",
"602 253 OFFCURVE",
"602 118 CURVE",
"602 118 LINE"
);
}
);
width = 632;
},
{
layerId = "E14DABE6-6E32-45CC-852E-073741854548";
name = Light;
paths = (
{
closed = 1;
nodes = (
"30 1 LINE",
"30 560 LINE",
"446 560 LINE",
"446 518 LINE",
"310 518 LINE",
"310 1 LINE",
"268 1 LINE",
"268 518 LINE",
"72 518 LINE",
"72 1 LINE"
);
},
{
closed = 1;
nodes = (
"461 -94 OFFCURVE",
"514 -5 OFFCURVE",
"514 123 CURVE SMOOTH",
"514 237 OFFCURVE",
"490 311 OFFCURVE",
"405 311 CURVE SMOOTH",
"353 311 OFFCURVE",
"310 264 OFFCURVE",
"310 188 CURVE",
"274 210 LINE",
"276 275 OFFCURVE",
"321 352 OFFCURVE",
"410 351 CURVE SMOOTH",
"532 350 OFFCURVE",
"556 233 OFFCURVE",
"556 118 CURVE",
"556 118 LINE",
"556 -64 OFFCURVE",
"451 -135 OFFCURVE",
"272 -137 CURVE",
"164 -138 LINE SMOOTH",
"82 -139 OFFCURVE",
"76 -197 OFFCURVE",
"75 -236 CURVE",
"33 -236 LINE",
"34 -129 OFFCURVE",
"93 -96 OFFCURVE",
"159 -96 CURVE SMOOTH",
"266 -96 LINE"
);
}
);
width = 586;
}
);
unicode = 0BA8;
},
{
glyphname = tml_Nnna;
lastChange = "2015-12-21 17:02:31 +0000";
layers = (
{
anchors = (
{
name = Anchor0;
position = "{547, 0}";
},
{
name = Anchor1;
position = "{602, 0}";
}
);
layerId = "A6FF5082-DE18-4D2D-8E01-54AF1261B41D";
name = Bold;
paths = (
{
closed = 1;
nodes = (
"30 246 CURVE",
"30 450 OFFCURVE",
"145 571 OFFCURVE",
"340 572 CURVE",
"340 474 LINE",
"191 474 OFFCURVE",
"132 378 OFFCURVE",
"132 256 CURVE",
"132 159 OFFCURVE",
"149 75 OFFCURVE",
"197 75 CURVE",
"243 75 OFFCURVE",
"252 139 OFFCURVE",
"252 178 CURVE",
"252 239 OFFCURVE",
"224 272 OFFCURVE",
"198 272 CURVE",
"158 272 OFFCURVE",
"130 222 OFFCURVE",
"142 148 CURVE SMOOTH",
"55 217 LINE SMOOTH",
"77 267 OFFCURVE",
"107 373 OFFCURVE",
"204 373 CURVE",
"273 373 OFFCURVE",
"354 316 OFFCURVE",
"354 175 CURVE",
"354 54 OFFCURVE",
"295 -23 OFFCURVE",
"197 -23 CURVE",
"92 -23 OFFCURVE",
"30 91 OFFCURVE"
);
},
{
closed = 1;
nodes = (
"340 474 LINE SMOOTH",
"340 572 LINE SMOOTH",
"362 572 LINE SMOOTH",
"362 474 LINE SMOOTH"
);
},
{
closed = 1;
nodes = (
"360 474 CURVE",
"360 572 LINE",
"515 572 OFFCURVE",
"679 470 OFFCURVE",
"679 214 CURVE",
"679 53 OFFCURVE",
"636 -23 OFFCURVE",
"531 -23 CURVE",
"429 -23 OFFCURVE",
"379 55 OFFCURVE",
"379 214 CURVE",
"379 425 OFFCURVE",
"461 560 OFFCURVE",
"653 561 CURVE SMOOTH",
"938 561 LINE SMOOTH",
"938 463 LINE SMOOTH",
"836 463 LINE SMOOTH",
"836 1 LINE SMOOTH",
"728 1 LINE SMOOTH",
"728 463 LINE SMOOTH",
"654 463 LINE SMOOTH",
"533 463 OFFCURVE",
"487 368 OFFCURVE",
"487 214 CURVE",
"487 142 OFFCURVE",
"502 75 OFFCURVE",
"531 75 CURVE",
"559 75 OFFCURVE",
"571 134 OFFCURVE",
"571 213 CURVE",
"571 414 OFFCURVE",
"453 474 OFFCURVE"
);
}
);
width = 968;
},
{
layerId = "E14DABE6-6E32-45CC-852E-073741854548";
name = Light;
paths = (
{
closed = 1;
nodes = (
"316 531 LINE",
"316 572 LINE",
"328 572 LINE",
"328 531 LINE"
);
},
{
closed = 1;
nodes = (
"604 455 OFFCURVE",
"449 531 OFFCURVE",
"326 531 CURVE",
"326 572 LINE",
"481 572 OFFCURVE",
"646 470 OFFCURVE",
"646 214 CURVE SMOOTH",
"646 73 OFFCURVE",
"603 -23 OFFCURVE",
"498 -23 CURVE SMOOTH",
"396 -23 OFFCURVE",
"346 75 OFFCURVE",
"346 214 CURVE SMOOTH",
"346 425 OFFCURVE",
"438 560 OFFCURVE",
"630 561 CURVE",
"905 561 LINE",
"905 519 LINE",
"787 519 LINE",
"787 1 LINE",
"745 1 LINE",
"745 519 LINE",
"631 519 LINE",
"458 519 OFFCURVE",
"388 388 OFFCURVE",
"388 214 CURVE SMOOTH",
"388 115 OFFCURVE",
"419 19 OFFCURVE",
"498 19 CURVE SMOOTH",
"576 19 OFFCURVE",
"604 115 OFFCURVE",
"604 214 CURVE SMOOTH"
);
},
{
closed = 1;
nodes = (
"167 531 OFFCURVE",
"71 407 OFFCURVE",
"71 238 CURVE SMOOTH",
"71 151 OFFCURVE",
"89 22 OFFCURVE",
"173 22 CURVE SMOOTH",
"231 22 OFFCURVE",
"264 84 OFFCURVE",
"264 172 CURVE SMOOTH",
"264 265 OFFCURVE",
"227 314 OFFCURVE",
"174 314 CURVE SMOOTH",
"108 314 OFFCURVE",
"71 236 OFFCURVE",
"78 148 CURVE",
"44 168 LINE",
"45 290 OFFCURVE",
"107 354 OFFCURVE",
"177 354 CURVE SMOOTH",
"244 354 OFFCURVE",
"304 291 OFFCURVE",
"304 171 CURVE SMOOTH",
"304 59 OFFCURVE",
"252 -20 OFFCURVE",
"171 -20 CURVE SMOOTH",
"78 -20 OFFCURVE",
"30 86 OFFCURVE",
"30 237 CURVE SMOOTH",
"30 434 OFFCURVE",
"142 572 OFFCURVE",
"316 572 CURVE",
"316 531 LINE"
);
}
);
width = 919;
}
);
unicode = 0BA9;
},
{
glyphname = tml_Pa;
lastChange = "2015-12-21 17:02:49 +0000";
layers = (
{
anchors = (
{
name = Anchor0;
position = "{221, 0}";
},
{
name = Anchor1;
position = "{390, 0}";
},
{
name = Anchor4;
position = "{710, 0}";
}
);
layerId = "A6FF5082-DE18-4D2D-8E01-54AF1261B41D";
name = Bold;
paths = (
{
closed = 1;
nodes = (
"30 1 LINE",
"30 560 LINE",
"137 560 LINE",
"137 99 LINE",
"372 99 LINE",
"372 560 LINE",
"480 560 LINE",
"480 1 LINE"
);
}
);
width = 510;
},
{
layerId = "E14DABE6-6E32-45CC-852E-073741854548";
name = Light;
paths = (
{
closed = 1;
nodes = (
"30 1 LINE",
"30 560 LINE",
"74 560 LINE",
"74 41 LINE",
"436 41 LINE",
"436 560 LINE",
"480 560 LINE",
"480 1 LINE"
);
}
);
width = 510;
}
);
unicode = 0BAA;
},
{
glyphname = tml_Ma;
lastChange = "2015-12-21 17:03:09 +0000";
layers = (
{
anchors = (
{
name = Anchor0;
position = "{373, 0}";
},
{
name = Anchor1;
position = "{287, 0}";
},
{
name = tml_virama;
position = "{281, 0}";
}
);
layerId = "A6FF5082-DE18-4D2D-8E01-54AF1261B41D";
name = Bold;
paths = (
{
closed = 1;
nodes = (
"30 0 LINE",
"30 559 LINE",
"137 559 LINE",
"137 98 LINE",
"376 98 LINE",
"392 0 LINE"
);
},
{
closed = 1;
nodes = (
"265 68 LINE SMOOTH",
"265 442 LINE",
"265 534 OFFCURVE",
"305 575 OFFCURVE",
"398 576 CURVE SMOOTH",
"561 577 OFFCURVE",
"616 426 OFFCURVE",
"617 299 CURVE SMOOTH",
"618 114 OFFCURVE",
"544 0 OFFCURVE",
"388 0 CURVE",
"369 98 LINE",
"509 97 OFFCURVE",
"520 215 OFFCURVE",
"520 299 CURVE SMOOTH",
"520 381 OFFCURVE",
"487 487 OFFCURVE",
"409 487 CURVE SMOOTH",
"382 487 OFFCURVE",
"373 467 OFFCURVE",
"373 432 CURVE",
"373 68 LINE"
);
}
);
width = 647;
},
{
layerId = "E14DABE6-6E32-45CC-852E-073741854548";
name = Light;
paths = (
{
closed = 1;
nodes = (
"30 0 LINE",
"30 559 LINE",
"72 559 LINE",
"72 42 LINE",
"352 42 LINE",
"359 0 LINE"
);
},
{
closed = 1;
nodes = (
"256 28 LINE SMOOTH",
"256 434 LINE",
"256 504 OFFCURVE",
"285 575 OFFCURVE",
"365 576 CURVE SMOOTH",
"528 577 OFFCURVE",
"583 426 OFFCURVE",
"584 299 CURVE SMOOTH",
"585 114 OFFCURVE",
"511 0 OFFCURVE",
"355 0 CURVE",
"347 42 LINE",
"480 41 OFFCURVE",
"542 139 OFFCURVE",
"542 299 CURVE SMOOTH",
"542 445 OFFCURVE",
"469 534 OFFCURVE",
"376 534 CURVE SMOOTH",
"342 534 OFFCURVE",
"298 514 OFFCURVE",
"298 432 CURVE",
"298 28 LINE"
);
}
);
width = 614;
}
);
unicode = 0BAE;
},
{
glyphname = tml_Ya;
lastChange = "2015-12-21 17:03:33 +0000";
layers = (
{
anchors = (
{
name = Anchor0;
position = "{333, 0}";
},
{
name = Anchor1;
position = "{509, 0}";
},
{
name = Anchor4;
position = "{813, 0}";
}
);
layerId = "A6FF5082-DE18-4D2D-8E01-54AF1261B41D";
name = Bold;
paths = (
{
closed = 1;
nodes = (
"30 132 CURVE SMOOTH",
"30 560 LINE",
"137 560 LINE",
"137 167 LINE SMOOTH",
"137 107 OFFCURVE",
"169 83 OFFCURVE",
"203 83 CURVE SMOOTH",
"246 83 OFFCURVE",
"271 121 OFFCURVE",
"271 178 CURVE",
"327 159 LINE",
"322 68 OFFCURVE",
"287 -17 OFFCURVE",
"182 -17 CURVE SMOOTH",
"94 -17 OFFCURVE",
"30 33 OFFCURVE"
);
},
{
closed = 1;
nodes = (
"311 0 LINE",
"271 147 LINE",
"271 560 LINE",
"378 560 LINE",
"378 99 LINE",
"541 99 LINE",
"541 560 LINE",
"648 560 LINE",
"648 0 LINE"
);
}
);
width = 678;
},
{
layerId = "E14DABE6-6E32-45CC-852E-073741854548";
name = Light;
paths = (
{
closed = 1;
nodes = (
"30 141 CURVE SMOOTH",
"30 560 LINE",
"72 560 LINE",
"72 179 LINE SMOOTH",
"72 141 OFFCURVE",
"64 25 OFFCURVE",
"172 25 CURVE SMOOTH",
"244 25 OFFCURVE",
"290 76 OFFCURVE",
"290 170 CURVE",
"322 159 LINE",
"322 32 OFFCURVE",
"251 -12 OFFCURVE",
"180 -17 CURVE SMOOTH",
"88 -24 OFFCURVE",
"30 39 OFFCURVE"
);
},
{
closed = 1;
nodes = (
"303 0 LINE",
"290 57 LINE",
"290 560 LINE",
"332 560 LINE",
"332 42 LINE",
"576 42 LINE",
"576 560 LINE",
"618 560 LINE",
"618 0 LINE"
);
}
);
width = 648;
}
);
unicode = 0BAF;
},
{
glyphname = tml_Ra;
lastChange = "2015-12-21 17:03:59 +0000";
layers = (
{
anchors = (
{
name = Anchor0;
position = "{229, 0}";
},
{
name = Anchor1;
position = "{88, -6}";
}
);
layerId = "A6FF5082-DE18-4D2D-8E01-54AF1261B41D";
name = Bold;
paths = (
{
closed = 1;
nodes = (
"50 0 LINE",
"50 560 LINE",
"519 560 LINE",
"519 461 LINE",
"416 461 LINE",
"416 0 LINE",
"380 0 OFFCURVE",
"344 0 OFFCURVE",
"308 0 CURVE",
"308 461 LINE",
"157 461 LINE",
"157 0 LINE"
);
},
{
closed = 1;
nodes = (
"88 -174 LINE",
"309 33 LINE",
"416 0 LINE",
"154 -241 LINE"
);
}
);
width = 549;
},
{
layerId = "E14DABE6-6E32-45CC-852E-073741854548";
name = Light;
paths = (
{
closed = 1;
nodes = (
"30 0 LINE",
"30 560 LINE",
"459 560 LINE",
"459 518 LINE",
"326 518 LINE",
"323 0 LINE",
"287 0 OFFCURVE",
"314 0 OFFCURVE",
"278 0 CURVE",
"281 518 LINE",
"72 518 LINE",
"72 0 LINE"
);
},
{
closed = 1;
nodes = (
"33 -212 LINE",
"278 17 LINE",
"323 0 LINE",
"61 -241 LINE"
);
}
);
width = 469;
}
);
unicode = 0BB0;
},
{
glyphname = tml_Rra;
lastChange = "2015-12-21 17:04:21 +0000";
layers = (
{
anchors = (
{
name = Anchor0;
position = "{309, 0}";
},
{
name = Anchor1;
position = "{178, 0}";
},
{
name = Anchor3;
position = "{-9, -7}";
},
{
name = _Anchor2;
position = "{171, 0}";
}
);
layerId = "A6FF5082-DE18-4D2D-8E01-54AF1261B41D";
name = Bold;
paths = (
{
closed = 1;
nodes = (
"271 573 OFFCURVE",
"348 534 OFFCURVE",
"351 426 CURVE",
"271 390 LINE",
"272 443 OFFCURVE",
"247 473 OFFCURVE",
"205 473 CURVE SMOOTH",
"175 473 OFFCURVE",
"141 452 OFFCURVE",
"139 392 CURVE SMOOTH",
"139 0 LINE",
"30 0 LINE",
"30 408 LINE SMOOTH",
"30 506 OFFCURVE",
"106 575 OFFCURVE",
"195 574 CURVE SMOOTH"
);
},
{
closed = 1;
nodes = (
"271 1 LINE",
"271 460 LINE",
"378 460 LINE",
"376 -1 LINE"
);
},
{
closed = 1;
nodes = (
"659 -8 OFFCURVE",
"590 -162 OFFCURVE",
"363 -164 CURVE SMOOTH",
"219 -165 LINE SMOOTH",
"151 -165 OFFCURVE",
"141 -204 OFFCURVE",
"140 -243 CURVE",
"30 -243 LINE",
"31 -136 OFFCURVE",
"73 -61 OFFCURVE",
"213 -61 CURVE SMOOTH",
"357 -61 LINE SMOOTH",
"476 -61 OFFCURVE",
"551 13 OFFCURVE",
"549 234 CURVE SMOOTH",
"547 416 OFFCURVE",
"519 476 OFFCURVE",
"450 476 CURVE SMOOTH",
"389 476 OFFCURVE",
"377 420 OFFCURVE",
"376 390 CURVE",
"306 431 LINE",
"306 506 OFFCURVE",
"356 573 OFFCURVE",
"455 573 CURVE SMOOTH",
"597 573 OFFCURVE",
"659 461 OFFCURVE",
"659 234 CURVE SMOOTH"
);
}
);
width = 689;
},
{
layerId = "E14DABE6-6E32-45CC-852E-073741854548";
name = Light;
paths = (
{
closed = 1;
nodes = (
"267 573 OFFCURVE",
"326 524 OFFCURVE",
"329 426 CURVE",
"293 390 LINE",
"293 493 OFFCURVE",
"257 531 OFFCURVE",
"185 531 CURVE SMOOTH",
"115 531 OFFCURVE",
"72 483 OFFCURVE",
"72 393 CURVE SMOOTH",
"72 0 LINE",
"30 0 LINE",
"30 404 LINE SMOOTH",
"30 502 OFFCURVE",
"86 575 OFFCURVE",
"191 574 CURVE SMOOTH"
);
},
{
closed = 1;
nodes = (
"293 0 LINE",
"293 460 LINE",
"337 460 LINE",
"335 0 LINE"
);
},
{
closed = 1;
nodes = (
"555 -96 OFFCURVE",
"587 23 OFFCURVE",
"587 234 CURVE SMOOTH",
"587 446 OFFCURVE",
"564 534 OFFCURVE",
"450 534 CURVE SMOOTH",
"365 534 OFFCURVE",
"337 470 OFFCURVE",
"336 390 CURVE",
"311 431 LINE",
"311 498 OFFCURVE",
"354 573 OFFCURVE",
"453 573 CURVE SMOOTH",
"595 573 OFFCURVE",
"629 461 OFFCURVE",
"629 234 CURVE SMOOTH",
"629 2 OFFCURVE",
"590 -136 OFFCURVE",
"363 -137 CURVE SMOOTH",
"165 -138 LINE SMOOTH",
"83 -138 OFFCURVE",
"77 -197 OFFCURVE",
"76 -236 CURVE",
"34 -236 LINE",
"35 -129 OFFCURVE",
"94 -96 OFFCURVE",
"160 -96 CURVE SMOOTH",
"357 -96 LINE SMOOTH"
);
}
);
width = 659;
}
);
unicode = 0BB1;
},
{
glyphname = tml_La;
lastChange = "2015-12-21 17:04:46 +0000";
layers = (
{
anchors = (
{
name = Anchor0;
position = "{396, 0}";
},
{
name = Anchor2;
position = "{719, 0}";
}
);
layerId = "A6FF5082-DE18-4D2D-8E01-54AF1261B41D";
name = Bold;
paths = (
{
closed = 1;
nodes = (
"558 -23 CURVE SMOOTH",
"714 -23 OFFCURVE",
"732 151 OFFCURVE",
"732 255 CURVE SMOOTH",
"732 401 OFFCURVE",
"679 525 OFFCURVE",
"624 584 CURVE SMOOTH",
"537 530 LINE SMOOTH",
"537 530 OFFCURVE",
"626 445 OFFCURVE",
"626 256 CURVE SMOOTH",
"626 161 OFFCURVE",
"619 75 OFFCURVE",
"558 75 CURVE SMOOTH",
"510 75 OFFCURVE",
"492 121 OFFCURVE",
"492 181 CURVE SMOOTH",
"492 229 OFFCURVE",
"501 290 OFFCURVE",
"501 332 CURVE SMOOTH",
"501 463 OFFCURVE",
"415 574 OFFCURVE",
"280 573 CURVE SMOOTH",
"122 572 OFFCURVE",
"30 448 OFFCURVE",
"30 245 CURVE SMOOTH",
"30 90 OFFCURVE",
"92 -23 OFFCURVE",
"197 -23 CURVE SMOOTH",
"292 -23 OFFCURVE",
"348 54 OFFCURVE",
"348 175 CURVE SMOOTH",
"348 308 OFFCURVE",
"273 362 OFFCURVE",
"209 362 CURVE SMOOTH",
"126 362 OFFCURVE",
"81 268 OFFCURVE",
"81 197 CURVE",
"141 148 LINE",
"129 228 OFFCURVE",
"158 282 OFFCURVE",
"197 282 CURVE SMOOTH",
"223 282 OFFCURVE",
"252 245 OFFCURVE",
"252 178 CURVE SMOOTH",
"252 139 OFFCURVE",
"243 75 OFFCURVE",
"197 75 CURVE SMOOTH",
"149 75 OFFCURVE",
"131 159 OFFCURVE",
"131 256 CURVE SMOOTH",
"131 377 OFFCURVE",
"180 476 OFFCURVE",
"280 476 CURVE SMOOTH",
"332 476 OFFCURVE",
"396 425 OFFCURVE",
"397 335 CURVE SMOOTH",
"397 293 OFFCURVE",
"391 240 OFFCURVE",
"391 190 CURVE SMOOTH",
"391 79 OFFCURVE",
"413 -23 OFFCURVE"
);
}
);
width = 772;
},
{
layerId = "E14DABE6-6E32-45CC-852E-073741854548";
name = Light;
paths = (
{
closed = 1;
nodes = (
"432 198 LINE",
"426 92 OFFCURVE",
"470 21 OFFCURVE",
"545 21 CURVE SMOOTH",
"605 21 OFFCURVE",
"666 84 OFFCURVE",
"666 249 CURVE SMOOTH",
"666 363 OFFCURVE",
"637 475 OFFCURVE",
"552 561 CURVE",
"589 584 LINE",
"653 524 OFFCURVE",
"709 398 OFFCURVE",
"709 253 CURVE SMOOTH",
"709 152 OFFCURVE",
"682 -23 OFFCURVE",
"546 -23 CURVE SMOOTH",
"450 -23 OFFCURVE",
"387 61 OFFCURVE",
"393 194 CURVE",
"396 352 LINE",
"400 454 OFFCURVE",
"346 531 OFFCURVE",
"248 531 CURVE SMOOTH",
"126 531 OFFCURVE",
"71 407 OFFCURVE",
"71 238 CURVE SMOOTH",
"71 151 OFFCURVE",
"89 22 OFFCURVE",
"173 22 CURVE SMOOTH",
"231 22 OFFCURVE",
"264 84 OFFCURVE",
"264 172 CURVE SMOOTH",
"264 265 OFFCURVE",
"227 314 OFFCURVE",
"174 314 CURVE SMOOTH",
"108 314 OFFCURVE",
"71 236 OFFCURVE",
"78 148 CURVE",
"44 168 LINE",
"45 290 OFFCURVE",
"107 354 OFFCURVE",
"177 354 CURVE SMOOTH",
"244 354 OFFCURVE",
"304 291 OFFCURVE",
"304 171 CURVE SMOOTH",
"304 59 OFFCURVE",
"252 -20 OFFCURVE",
"171 -20 CURVE SMOOTH",
"78 -20 OFFCURVE",
"30 86 OFFCURVE",
"30 237 CURVE SMOOTH",
"30 434 OFFCURVE",
"108 571 OFFCURVE",
"247 571 CURVE SMOOTH",
"376 571 OFFCURVE",
"439 475 OFFCURVE",
"435 342 CURVE"
);
}
);
width = 739;
}
);
unicode = 0BB2;
},
{
glyphname = tml_Lla;
lastChange = "2015-12-22 10:04:14 +0000";
layers = (
{
anchors = (
{
name = Anchor0;
position = "{472, 0}";
},
{
name = Anchor1;
position = "{493, 0}";
}
);
layerId = "A6FF5082-DE18-4D2D-8E01-54AF1261B41D";
name = Bold;
paths = (
{
closed = 1;
nodes = (
"30 245 CURVE SMOOTH",
"30 450 OFFCURVE",
"119 573 OFFCURVE",
"269 573 CURVE SMOOTH",
"399 573 OFFCURVE",
"490 436 OFFCURVE",
"490 235 CURVE SMOOTH",
"409 257 LINE SMOOTH",
"409 388 OFFCURVE",
"354 476 OFFCURVE",
"269 476 CURVE SMOOTH",
"176 476 OFFCURVE",
"132 378 OFFCURVE",
"132 255 CURVE SMOOTH",
"132 158 OFFCURVE",
"149 74 OFFCURVE",
"197 74 CURVE SMOOTH",
"243 74 OFFCURVE",
"252 139 OFFCURVE",
"252 178 CURVE SMOOTH",
"252 246 OFFCURVE",
"224 281 OFFCURVE",
"198 281 CURVE SMOOTH",
"155 281 OFFCURVE",
"135 235 OFFCURVE",
"138 167 CURVE",
"79 196 LINE",
"79 259 OFFCURVE",
"122 362 OFFCURVE",
"207 362 CURVE SMOOTH",
"282 362 OFFCURVE",
"350 297 OFFCURVE",
"350 174 CURVE SMOOTH",
"350 53 OFFCURVE",
"293 -24 OFFCURVE",
"197 -24 CURVE SMOOTH",
"92 -24 OFFCURVE",
"30 90 OFFCURVE"
);
},
{
closed = 1;
nodes = (
"409 1 LINE",
"409 462 LINE",
"424 466 LINE",
"424 560 LINE",
"878 560 LINE",
"878 462 LINE",
"775 462 LINE",
"775 1 LINE",
"668 1 LINE",
"668 462 LINE",
"517 462 LINE",
"517 1 LINE"
);
}
);
width = 908;
},
{
layerId = "E14DABE6-6E32-45CC-852E-073741854548";
name = Light;
paths = (
{
closed = 1;
nodes = (
"430 1 LINE",
"430 462 LINE",
"430 466 LINE",
"430 560 LINE",
"857 560 LINE",
"857 518 LINE",
"721 518 LINE",
"721 1 LINE",
"679 1 LINE",
"679 518 LINE",
"473 518 LINE",
"473 1 LINE"
);
},
{
closed = 1;
nodes = (
"88 -20 OFFCURVE",
"40 86 OFFCURVE",
"40 237 CURVE SMOOTH",
"40 434 OFFCURVE",
"121 571 OFFCURVE",
"265 571 CURVE SMOOTH",
"379 571 OFFCURVE",
"473 485 OFFCURVE",
"473 280 CURVE",
"430 281 LINE",
"430 442 OFFCURVE",
"369 531 OFFCURVE",
"267 531 CURVE SMOOTH",
"148 531 OFFCURVE",
"81 407 OFFCURVE",
"81 238 CURVE SMOOTH",
"81 151 OFFCURVE",
"99 22 OFFCURVE",
"183 22 CURVE SMOOTH",
"241 22 OFFCURVE",
"274 84 OFFCURVE",
"274 172 CURVE SMOOTH",
"274 265 OFFCURVE",
"237 314 OFFCURVE",
"184 314 CURVE SMOOTH",
"118 314 OFFCURVE",
"81 236 OFFCURVE",
"88 148 CURVE",
"54 168 LINE",
"55 290 OFFCURVE",
"117 354 OFFCURVE",
"187 354 CURVE SMOOTH",
"254 354 OFFCURVE",
"314 291 OFFCURVE",
"314 171 CURVE SMOOTH",
"314 59 OFFCURVE",
"262 -20 OFFCURVE",
"181 -20 CURVE SMOOTH"
);
}
);
width = 887;
}
);
unicode = 0BB3;
},
{
color = 0;
glyphname = tml_Llla;
lastChange = "2015-12-20 21:28:25 +0000";
layers = (
{
anchors = (
{
name = Anchor0;
position = "{377, 0}";
},
{
name = Anchor1;
position = "{224, 0}";
},
{
name = tml_virama;
position = "{297, 0}";
}
);
layerId = "A6FF5082-DE18-4D2D-8E01-54AF1261B41D";
name = Bold;
paths = (
{
closed = 1;
nodes = (
"563 0 OFFCURVE",
"639 128 OFFCURVE",
"633 299 CURVE SMOOTH",
"629 432 OFFCURVE",
"575 573 OFFCURVE",
"414 573 CURVE SMOOTH",
"317 573 OFFCURVE",
"281 518 OFFCURVE",
"281 429 CURVE",
"281 8 LINE",
"281 -136 OFFCURVE",
"354 -175 OFFCURVE",
"401 -175 CURVE",
"398 -178 OFFCURVE",
"354 -133 OFFCURVE",
"354 -133 CURVE",
"354 -133 OFFCURVE",
"329 -190 OFFCURVE",
"262 -190 CURVE SMOOTH",
"180 -190 OFFCURVE",
"163 -133 OFFCURVE",
"163 -82 CURVE",
"50 -83 LINE",
"50 -206 OFFCURVE",
"134 -293 OFFCURVE",
"255 -293 CURVE SMOOTH",
"382 -293 OFFCURVE",
"456 -197 OFFCURVE",
"456 -166 CURVE",
"456 -163 OFFCURVE",
"429 -179 OFFCURVE",
"429 -179 CURVE",
"562 -179 LINE",
"562 -89 LINE",
"523 -89 OFFCURVE",
"499 -89 OFFCURVE",
"473 -89 CURVE",
"408 -89 OFFCURVE",
"389 -57 OFFCURVE",
"389 -2 CURVE",
"389 429 LINE",
"389 467 OFFCURVE",
"401 484 OFFCURVE",
"430 484 CURVE SMOOTH",
"490 484 OFFCURVE",
"535 414 OFFCURVE",
"535 275 CURVE SMOOTH",
"535 182 OFFCURVE",
"515 95 OFFCURVE",
"385 98 CURVE",
"153 98 LINE",
"153 559 LINE",
"46 559 LINE",
"46 0 LINE",
"404 0 LINE"
);
}
);
width = 642;
},
{
layerId = "E14DABE6-6E32-45CC-852E-073741854548";
name = Light;
paths = (
{
closed = 1;
nodes = (
"298 442 LINE",
"298 514 OFFCURVE",
"324 535 OFFCURVE",
"378 535 CURVE SMOOTH",
"471 535 OFFCURVE",
"542 445 OFFCURVE",
"542 299 CURVE SMOOTH",
"542 139 OFFCURVE",
"480 41 OFFCURVE",
"347 42 CURVE",
"72 42 LINE",
"72 559 LINE",
"30 559 LINE",
"30 0 LINE",
"355 0 LINE",
"511 0 OFFCURVE",
"585 114 OFFCURVE",
"584 299 CURVE SMOOTH",
"583 426 OFFCURVE",
"534 577 OFFCURVE",
"376 576 CURVE SMOOTH",
"296 575 OFFCURVE",
"256 529 OFFCURVE",
"256 456 CURVE",
"256 8 LINE",
"256 -126 OFFCURVE",
"348 -159 OFFCURVE",
"386 -159 CURVE",
"383 -162 OFFCURVE",
"377 -138 OFFCURVE",
"377 -138 CURVE",
"377 -138 OFFCURVE",
"347 -251 OFFCURVE",
"230 -251 CURVE SMOOTH",
"118 -251 OFFCURVE",
"72 -164 OFFCURVE",
"72 -83 CURVE",
"30 -83 LINE",
"30 -206 OFFCURVE",
"109 -293 OFFCURVE",
"230 -293 CURVE SMOOTH",
"357 -293 OFFCURVE",
"411 -177 OFFCURVE",
"411 -146 CURVE",
"411 -143 OFFCURVE",
"384 -159 OFFCURVE",
"384 -159 CURVE",
"537 -159 LINE",
"537 -119 LINE",
"498 -119 OFFCURVE",
"418 -119 OFFCURVE",
"392 -119 CURVE",
"317 -119 OFFCURVE",
"298 -47 OFFCURVE",
"298 8 CURVE"
);
}
);
width = 600;
}
);
unicode = 0BB4;
},
{
glyphname = tml_Va;
lastChange = "2015-12-21 17:05:18 +0000";
layers = (
{
anchors = (
{
name = Anchor0;
position = "{403, 0}";
},
{
name = Anchor1;
position = "{615, 0}";
},
{
name = Anchor4;
position = "{956, 0}";
}
);
layerId = "A6FF5082-DE18-4D2D-8E01-54AF1261B41D";
name = Bold;
paths = (
{
closed = 1;
nodes = (
"92 -24 OFFCURVE",
"30 90 OFFCURVE",
"30 245 CURVE SMOOTH",
"30 448 OFFCURVE",
"123 573 OFFCURVE",
"279 573 CURVE SMOOTH",
"416 573 OFFCURVE",
"514 455 OFFCURVE",
"512 280 CURVE SMOOTH",
"511 185 OFFCURVE",
"489 101 OFFCURVE",
"470 59 CURVE",
"379 84 LINE",
"396 123 OFFCURVE",
"409 174 OFFCURVE",
"409 263 CURVE SMOOTH",
"409 389 OFFCURVE",
"357 476 OFFCURVE",
"277 476 CURVE SMOOTH",
"178 476 OFFCURVE",
"132 376 OFFCURVE",
"132 255 CURVE SMOOTH",
"132 158 OFFCURVE",
"149 74 OFFCURVE",
"197 74 CURVE SMOOTH",
"243 74 OFFCURVE",
"252 139 OFFCURVE",
"252 178 CURVE SMOOTH",
"252 246 OFFCURVE",
"224 281 OFFCURVE",
"198 281 CURVE SMOOTH",
"155 281 OFFCURVE",
"135 235 OFFCURVE",
"138 167 CURVE",
"82 196 LINE",
"82 269 OFFCURVE",
"125 362 OFFCURVE",
"209 362 CURVE SMOOTH",
"282 362 OFFCURVE",
"348 297 OFFCURVE",
"348 174 CURVE SMOOTH",
"348 53 OFFCURVE",
"291 -24 OFFCURVE",
"197 -24 CURVE SMOOTH"
);
},
{
closed = 1;
nodes = (
"379 84 LINE",
"484 101 LINE",
"593 101 LINE",
"593 559 LINE",
"700 559 LINE",
"700 1 LINE",
"379 1 LINE"
);
}
);
width = 730;
},
{
layerId = "E14DABE6-6E32-45CC-852E-073741854548";
name = Light;
paths = (
{
closed = 1;
nodes = (
"78 -20 OFFCURVE",
"30 86 OFFCURVE",
"30 237 CURVE SMOOTH",
"30 434 OFFCURVE",
"111 571 OFFCURVE",
"255 571 CURVE SMOOTH",
"369 571 OFFCURVE",
"463 475 OFFCURVE",
"463 280 CURVE SMOOTH",
"463 174 OFFCURVE",
"433 84 OFFCURVE",
"401 1 CURVE",
"367 34 LINE",
"381 63 OFFCURVE",
"420 169 OFFCURVE",
"420 281 CURVE SMOOTH",
"420 428 OFFCURVE",
"359 531 OFFCURVE",
"257 531 CURVE SMOOTH",
"138 531 OFFCURVE",
"71 407 OFFCURVE",
"71 238 CURVE SMOOTH",
"71 151 OFFCURVE",
"89 22 OFFCURVE",
"173 22 CURVE SMOOTH",
"231 22 OFFCURVE",
"264 84 OFFCURVE",
"264 172 CURVE SMOOTH",
"264 265 OFFCURVE",
"227 314 OFFCURVE",
"174 314 CURVE SMOOTH",
"108 314 OFFCURVE",
"71 236 OFFCURVE",
"78 148 CURVE",
"44 168 LINE",
"45 290 OFFCURVE",
"107 354 OFFCURVE",
"177 354 CURVE SMOOTH",
"244 354 OFFCURVE",
"304 291 OFFCURVE",
"304 171 CURVE SMOOTH",
"304 59 OFFCURVE",
"252 -20 OFFCURVE",
"171 -20 CURVE SMOOTH"
);
},
{
closed = 1;
nodes = (
"367 34 LINE",
"416 43 LINE",
"615 43 LINE",
"615 559 LINE",
"657 559 LINE",
"657 1 LINE",
"367 1 LINE"
);
}
);
width = 687;
}
);
rightMetricsKey = "=tml_Pa";
unicode = 0BB5;
},
{
glyphname = tml_Sha;
lastChange = "2015-12-21 17:05:45 +0000";
layers = (
{
anchors = (
{
name = Anchor0;
position = "{529, 0}";
},
{
name = Anchor1;
position = "{641, 1}";
},
{
name = tml_virama;
position = "{345, 1}";
}
);
layerId = "A6FF5082-DE18-4D2D-8E01-54AF1261B41D";
name = Bold;
paths = (
{
closed = 1;
nodes = (
"30 560 LINE",
"137 560 LINE",
"137 153 LINE SMOOTH",
"137 108 OFFCURVE",
"152 83 OFFCURVE",
"182 83 CURVE SMOOTH",
"216 83 OFFCURVE",
"230 105 OFFCURVE",
"230 153 CURVE SMOOTH",
"230 560 LINE",
"337 560 LINE",
"337 153 LINE SMOOTH",
"337 41 OFFCURVE",
"282 -17 OFFCURVE",
"180 -17 CURVE SMOOTH",
"83 -17 OFFCURVE",
"30 46 OFFCURVE",
"30 153 CURVE SMOOTH"
);
},
{
closed = 1;
nodes = (
"230 462 LINE",
"230 560 LINE",
"552 560 LINE",
"561 462 LINE"
);
},
{
closed = 1;
nodes = (
"425 143 CURVE SMOOTH",
"425 545 LINE SMOOTH",
"530 545 LINE",
"530 143 LINE SMOOTH",
"530 95 OFFCURVE",
"561 86 OFFCURVE",
"578 86 CURVE SMOOTH",
"623 86 OFFCURVE",
"645 156 OFFCURVE",
"645 284 CURVE SMOOTH",
"645 427 OFFCURVE",
"618 463 OFFCURVE",
"556 462 CURVE",
"547 560 LINE",
"669 560 OFFCURVE",
"750 521 OFFCURVE",
"749 284 CURVE SMOOTH",
"748 96 OFFCURVE",
"685 -15 OFFCURVE",
"575 -15 CURVE SMOOTH",
"504 -15 OFFCURVE",
"425 15 OFFCURVE"
);
}
);
width = 776;
},
{
layerId = "E14DABE6-6E32-45CC-852E-073741854548";
name = Light;
paths = (
{
closed = 1;
nodes = (
"30 560 LINE",
"72 560 LINE",
"72 157 LINE SMOOTH",
"72 76 OFFCURVE",
"98 25 OFFCURVE",
"173 25 CURVE SMOOTH",
"244 25 OFFCURVE",
"275 76 OFFCURVE",
"275 157 CURVE SMOOTH",
"275 560 LINE",
"317 560 LINE",
"317 157 LINE SMOOTH",
"317 44 OFFCURVE",
"265 -17 OFFCURVE",
"173 -17 CURVE SMOOTH",
"78 -17 OFFCURVE",
"30 45 OFFCURVE",
"30 157 CURVE SMOOTH"
);
},
{
closed = 1;
nodes = (
"275 518 LINE",
"275 560 LINE",
"532 560 LINE",
"541 518 LINE"
);
},
{
closed = 1;
nodes = (
"435 143 CURVE SMOOTH",
"435 545 LINE SMOOTH",
"477 545 LINE",
"477 143 LINE SMOOTH",
"477 55 OFFCURVE",
"505 27 OFFCURVE",
"558 27 CURVE SMOOTH",
"626 27 OFFCURVE",
"684 108 OFFCURVE",
"684 284 CURVE SMOOTH",
"684 480 OFFCURVE",
"638 519 OFFCURVE",
"536 518 CURVE",
"527 560 LINE",
"649 560 OFFCURVE",
"727 521 OFFCURVE",
"726 284 CURVE SMOOTH",
"725 96 OFFCURVE",
"664 -15 OFFCURVE",
"558 -15 CURVE SMOOTH",
"487 -15 OFFCURVE",
"435 15 OFFCURVE"
);
}
);
width = 747;
}
);
unicode = 0BB6;
},
{
glyphname = tml_Ssa;
lastChange = "2015-12-22 17:19:40 +0000";
layers = (
{
anchors = (
{
name = Anchor0;
position = "{634, -4}";
},
{
name = Anchor1;
position = "{565, -4}";
},
{
name = tml_virama;
position = "{455, 0}";
}
);
layerId = "A6FF5082-DE18-4D2D-8E01-54AF1261B41D";
name = Bold;
paths = (
{
closed = 1;
nodes = (
"92 -24 OFFCURVE",
"30 90 OFFCURVE",
"30 245 CURVE SMOOTH",
"30 448 OFFCURVE",
"123 573 OFFCURVE",
"279 573 CURVE SMOOTH",
"414 573 OFFCURVE",
"508 452 OFFCURVE",
"508 279 CURVE SMOOTH",
"508 144 OFFCURVE",
"467 59 OFFCURVE",
"467 59 CURVE",
"378 81 LINE",
"396 121 OFFCURVE",
"409 182 OFFCURVE",
"409 263 CURVE SMOOTH",
"409 389 OFFCURVE",
"358 476 OFFCURVE",
"279 476 CURVE SMOOTH",
"179 476 OFFCURVE",
"132 376 OFFCURVE",
"132 255 CURVE SMOOTH",
"132 158 OFFCURVE",
"149 74 OFFCURVE",
"197 74 CURVE SMOOTH",
"243 74 OFFCURVE",
"252 139 OFFCURVE",
"252 178 CURVE SMOOTH",
"252 246 OFFCURVE",
"224 281 OFFCURVE",
"198 281 CURVE SMOOTH",
"155 281 OFFCURVE",
"135 235 OFFCURVE",
"138 167 CURVE",
"54 216 LINE",
"54 272 OFFCURVE",
"114 362 OFFCURVE",
"199 362 CURVE SMOOTH",
"280 362 OFFCURVE",
"354 297 OFFCURVE",
"354 174 CURVE SMOOTH",
"354 53 OFFCURVE",
"295 -24 OFFCURVE",
"197 -24 CURVE SMOOTH"
);
},
{
closed = 1;
nodes = (
"378 0 LINE",
"378 81 LINE",
"485 99 LINE",
"900 99 LINE",
"900 473 LINE",
"1007 473 LINE",
"1007 0 LINE"
);
},
{
closed = 1;
nodes = (
"822 -146 LINE",
"715 -146 LINE",
"715 428 LINE SMOOTH",
"715 450 OFFCURVE",
"709 475 OFFCURVE",
"684 475 CURVE SMOOTH",
"661 475 OFFCURVE",
"642 452 OFFCURVE",
"642 401 CURVE SMOOTH",
"642 360 OFFCURVE",
"654 256 OFFCURVE",
"772 256 CURVE SMOOTH",
"878 256 OFFCURVE",
"899 308 OFFCURVE",
"900 379 CURVE SMOOTH",
"955 376 LINE SMOOTH",
"955 271 OFFCURVE",
"928 155 OFFCURVE",
"768 155 CURVE SMOOTH",
"650 155 OFFCURVE",
"541 240 OFFCURVE",
"539 410 CURVE SMOOTH",
"538 514 OFFCURVE",
"605 573 OFFCURVE",
"680 573 CURVE SMOOTH",
"803 573 OFFCURVE",
"823 483 OFFCURVE",
"822 418 CURVE SMOOTH"
);
}
);
width = 1037;
},
{
layerId = "E14DABE6-6E32-45CC-852E-073741854548";
name = Light;
paths = (
{
closed = 1;
nodes = (
"78 -20 OFFCURVE",
"30 86 OFFCURVE",
"30 237 CURVE SMOOTH",
"30 434 OFFCURVE",
"111 571 OFFCURVE",
"255 571 CURVE SMOOTH",
"369 571 OFFCURVE",
"463 475 OFFCURVE",
"463 280 CURVE SMOOTH",
"463 174 OFFCURVE",
"433 84 OFFCURVE",
"401 1 CURVE",
"367 34 LINE",
"381 63 OFFCURVE",
"420 169 OFFCURVE",
"420 281 CURVE SMOOTH",
"420 428 OFFCURVE",
"359 531 OFFCURVE",
"257 531 CURVE SMOOTH",
"138 531 OFFCURVE",
"71 407 OFFCURVE",
"71 238 CURVE SMOOTH",
"71 151 OFFCURVE",
"89 22 OFFCURVE",
"173 22 CURVE SMOOTH",
"231 22 OFFCURVE",
"264 84 OFFCURVE",
"264 172 CURVE SMOOTH",
"264 265 OFFCURVE",
"227 314 OFFCURVE",
"174 314 CURVE SMOOTH",
"108 314 OFFCURVE",
"71 236 OFFCURVE",
"78 148 CURVE",
"44 168 LINE",
"45 290 OFFCURVE",
"107 354 OFFCURVE",
"177 354 CURVE SMOOTH",
"244 354 OFFCURVE",
"304 291 OFFCURVE",
"304 171 CURVE SMOOTH",
"304 59 OFFCURVE",
"252 -20 OFFCURVE",
"171 -20 CURVE SMOOTH"
);
},
{
closed = 1;
nodes = (
"367 34 LINE",
"416 43 LINE",
"860 43 LINE",
"860 472 LINE",
"902 472 LINE",
"902 1 LINE",
"367 1 LINE"
);
},
{
closed = 1;
nodes = (
"757 -146 LINE",
"715 -146 LINE",
"715 438 LINE SMOOTH",
"715 491 OFFCURVE",
"692 531 OFFCURVE",
"647 531 CURVE SMOOTH",
"564 531 OFFCURVE",
"541 456 OFFCURVE",
"541 400 CURVE SMOOTH",
"541 299 OFFCURVE",
"610 197 OFFCURVE",
"728 197 CURVE SMOOTH",
"834 197 OFFCURVE",
"859 298 OFFCURVE",
"860 379 CURVE",
"897 376 LINE",
"897 271 OFFCURVE",
"868 155 OFFCURVE",
"728 155 CURVE SMOOTH",
"610 155 OFFCURVE",
"501 240 OFFCURVE",
"499 410 CURVE SMOOTH",
"498 507 OFFCURVE",
"565 573 OFFCURVE",
"640 573 CURVE SMOOTH",
"757 573 OFFCURVE",
"757 463 OFFCURVE",
"757 438 CURVE SMOOTH"
);
}
);
width = 932;
}
);
unicode = 0BB7;
},
{
glyphname = tml_Sa;
lastChange = "2015-12-22 18:01:23 +0000";
layers = (
{
anchors = (
{
name = Anchor0;
position = "{518, 0}";
},
{
name = Anchor2;
position = "{1100, 0}";
},
{
name = tml_virama;
position = "{445, 0}";
}
);
layerId = "A6FF5082-DE18-4D2D-8E01-54AF1261B41D";
name = Bold;
paths = (
{
closed = 1;
nodes = (
"964 151 OFFCURVE",
"946 -23 OFFCURVE",
"790 -23 CURVE SMOOTH",
"645 -23 OFFCURVE",
"634 74 OFFCURVE",
"634 180 CURVE SMOOTH",
"634 385 LINE SMOOTH",
"633 445 OFFCURVE",
"605 472 OFFCURVE",
"572 472 CURVE SMOOTH",
"516 472 OFFCURVE",
"504 404 OFFCURVE",
"504 338 CURVE",
"431 368 LINE",
"431 471 OFFCURVE",
"475 574 OFFCURVE",
"582 574 CURVE SMOOTH",
"686 574 OFFCURVE",
"736 487 OFFCURVE",
"736 382 CURVE SMOOTH",
"736 171 LINE SMOOTH",
"736 116 OFFCURVE",
"738 75 OFFCURVE",
"790 75 CURVE SMOOTH",
"851 75 OFFCURVE",
"858 161 OFFCURVE",
"858 256 CURVE SMOOTH",
"858 445 OFFCURVE",
"769 530 OFFCURVE",
"769 530 CURVE",
"856 584 LINE",
"911 525 OFFCURVE",
"964 401 OFFCURVE",
"964 255 CURVE SMOOTH"
);
},
{
closed = 1;
nodes = (
"30 245 CURVE SMOOTH",
"30 450 OFFCURVE",
"119 573 OFFCURVE",
"282 573 CURVE SMOOTH",
"387 573 OFFCURVE",
"504 502 OFFCURVE",
"504 340 CURVE SMOOTH",
"504 322 OFFCURVE",
"504 41 OFFCURVE",
"504 0 CURVE",
"403 1 LINE",
"403 35 OFFCURVE",
"403 328 OFFCURVE",
"403 339 CURVE SMOOTH",
"403 427 OFFCURVE",
"347 476 OFFCURVE",
"282 476 CURVE SMOOTH",
"176 476 OFFCURVE",
"132 378 OFFCURVE",
"132 255 CURVE SMOOTH",
"132 158 OFFCURVE",
"149 74 OFFCURVE",
"197 74 CURVE SMOOTH",
"243 74 OFFCURVE",
"252 139 OFFCURVE",
"252 178 CURVE SMOOTH",
"252 246 OFFCURVE",
"224 281 OFFCURVE",
"198 281 CURVE SMOOTH",
"155 281 OFFCURVE",
"135 235 OFFCURVE",
"138 167 CURVE",
"79 196 LINE",
"79 259 OFFCURVE",
"122 362 OFFCURVE",
"207 362 CURVE SMOOTH",
"282 362 OFFCURVE",
"350 297 OFFCURVE",
"350 174 CURVE SMOOTH",
"350 53 OFFCURVE",
"293 -24 OFFCURVE",
"197 -24 CURVE SMOOTH",
"92 -24 OFFCURVE",
"30 90 OFFCURVE"
);
}
);
width = 1004;
},
{
layerId = "E14DABE6-6E32-45CC-852E-073741854548";
name = Light;
paths = (
{
closed = 1;
nodes = (
"78 -20 OFFCURVE",
"30 86 OFFCURVE",
"30 237 CURVE SMOOTH",
"30 434 OFFCURVE",
"115 571 OFFCURVE",
"259 571 CURVE SMOOTH",
"373 571 OFFCURVE",
"463 516 OFFCURVE",
"463 321 CURVE",
"463 0 LINE",
"420 0 LINE",
"420 321 LINE",
"420 474 OFFCURVE",
"359 531 OFFCURVE",
"261 531 CURVE SMOOTH",
"142 531 OFFCURVE",
"71 407 OFFCURVE",
"71 238 CURVE SMOOTH",
"71 151 OFFCURVE",
"89 22 OFFCURVE",
"173 22 CURVE SMOOTH",
"231 22 OFFCURVE",
"264 84 OFFCURVE",
"264 172 CURVE SMOOTH",
"264 265 OFFCURVE",
"227 314 OFFCURVE",
"174 314 CURVE SMOOTH",
"108 314 OFFCURVE",
"71 236 OFFCURVE",
"78 148 CURVE",
"44 168 LINE",
"45 290 OFFCURVE",
"107 354 OFFCURVE",
"177 354 CURVE SMOOTH",
"244 354 OFFCURVE",
"304 291 OFFCURVE",
"304 171 CURVE SMOOTH",
"304 59 OFFCURVE",
"252 -20 OFFCURVE",
"171 -20 CURVE SMOOTH"
);
},
{
closed = 1;
nodes = (
"927 151 OFFCURVE",
"911 -23 OFFCURVE",
"780 -23 CURVE SMOOTH",
"665 -23 OFFCURVE",
"654 74 OFFCURVE",
"654 150 CURVE SMOOTH",
"654 375 LINE SMOOTH",
"654 435 OFFCURVE",
"653 532 OFFCURVE",
"565 532 CURVE SMOOTH",
"458 532 OFFCURVE",
"463 396 OFFCURVE",
"463 330 CURVE",
"420 338 LINE",
"420 431 OFFCURVE",
"436 574 OFFCURVE",
"563 574 CURVE SMOOTH",
"667 574 OFFCURVE",
"696 496 OFFCURVE",
"696 382 CURVE SMOOTH",
"696 141 LINE SMOOTH",
"696 86 OFFCURVE",
"704 19 OFFCURVE",
"780 19 CURVE SMOOTH",
"871 19 OFFCURVE",
"885 160 OFFCURVE",
"885 255 CURVE SMOOTH",
"885 444 OFFCURVE",
"804 539 OFFCURVE",
"796 549 CURVE",
"833 571 LINE",
"884 512 OFFCURVE",
"927 401 OFFCURVE",
"927 255 CURVE SMOOTH"
);
}
);
width = 960;
}
);
unicode = 0BB8;
},
{
glyphname = tml_Ha;
lastChange = "2015-12-22 18:13:23 +0000";
layers = (
{
layerId = "A6FF5082-DE18-4D2D-8E01-54AF1261B41D";
name = Bold;
paths = (
{
closed = 1;
nodes = (
"30 245 CURVE SMOOTH",
"30 448 OFFCURVE",
"123 573 OFFCURVE",
"279 573 CURVE SMOOTH",
"416 573 OFFCURVE",
"514 455 OFFCURVE",
"512 280 CURVE SMOOTH",
"511 185 OFFCURVE",
"489 101 OFFCURVE",
"470 59 CURVE",
"379 84 LINE",
"396 123 OFFCURVE",
"409 174 OFFCURVE",
"409 263 CURVE SMOOTH",
"409 389 OFFCURVE",
"357 476 OFFCURVE",
"277 476 CURVE SMOOTH",
"178 476 OFFCURVE",
"132 376 OFFCURVE",
"132 255 CURVE SMOOTH",
"132 158 OFFCURVE",
"149 74 OFFCURVE",
"197 74 CURVE SMOOTH",
"243 74 OFFCURVE",
"252 139 OFFCURVE",
"252 178 CURVE SMOOTH",
"252 246 OFFCURVE",
"224 281 OFFCURVE",
"198 281 CURVE SMOOTH",
"155 281 OFFCURVE",
"135 235 OFFCURVE",
"138 167 CURVE",
"82 196 LINE",
"82 269 OFFCURVE",
"125 362 OFFCURVE",
"209 362 CURVE SMOOTH",
"282 362 OFFCURVE",
"348 297 OFFCURVE",
"348 174 CURVE SMOOTH",
"348 53 OFFCURVE",
"291 -24 OFFCURVE",
"197 -24 CURVE SMOOTH",
"92 -24 OFFCURVE",
"30 90 OFFCURVE"
);
},
{
closed = 1;
nodes = (
"379 84 LINE",
"484 101 LINE",
"597 101 LINE",
"597 219 LINE",
"702 219 LINE",
"702 1 LINE",
"379 1 LINE"
);
},
{
closed = 1;
nodes = (
"843 574 OFFCURVE",
"928 514 OFFCURVE",
"931 416 CURVE",
"835 390 LINE",
"836 443 OFFCURVE",
"809 473 OFFCURVE",
"767 473 CURVE SMOOTH",
"737 473 OFFCURVE",
"702 460 OFFCURVE",
"702 400 CURVE SMOOTH",
"702 80 LINE",
"597 80 LINE",
"597 426 LINE SMOOTH",
"597 524 OFFCURVE",
"673 574 OFFCURVE",
"763 574 CURVE SMOOTH"
);
},
{
closed = 1;
nodes = (
"835 1 LINE",
"835 460 LINE",
"942 460 LINE",
"938 -1 LINE"
);
},
{
closed = 1;
nodes = (
"1154 -164 OFFCURVE",
"927 -164 CURVE SMOOTH",
"233 -165 LINE SMOOTH",
"165 -165 OFFCURVE",
"155 -204 OFFCURVE",
"154 -243 CURVE",
"44 -243 LINE",
"45 -136 OFFCURVE",
"87 -61 OFFCURVE",
"227 -61 CURVE SMOOTH",
"921 -61 LINE SMOOTH",
"1040 -61 OFFCURVE",
"1115 23 OFFCURVE",
"1113 244 CURVE SMOOTH",
"1111 426 OFFCURVE",
"1077 476 OFFCURVE",
"1014 476 CURVE SMOOTH",
"960 476 OFFCURVE",
"941 420 OFFCURVE",
"941 390 CURVE",
"870 431 LINE",
"870 506 OFFCURVE",
"932 573 OFFCURVE",
"1014 573 CURVE SMOOTH",
"1161 573 OFFCURVE",
"1223 461 OFFCURVE",
"1223 234 CURVE SMOOTH",
"1223 -8 OFFCURVE"
);
}
);
width = 1253;
},
{
layerId = "E14DABE6-6E32-45CC-852E-073741854548";
name = Light;
paths = (
{
closed = 1;
nodes = (
"78 -20 OFFCURVE",
"30 86 OFFCURVE",
"30 237 CURVE SMOOTH",
"30 434 OFFCURVE",
"111 571 OFFCURVE",
"255 571 CURVE SMOOTH",
"369 571 OFFCURVE",
"463 475 OFFCURVE",
"463 280 CURVE SMOOTH",
"463 174 OFFCURVE",
"433 84 OFFCURVE",
"401 1 CURVE",
"367 34 LINE",
"381 63 OFFCURVE",
"420 169 OFFCURVE",
"420 281 CURVE SMOOTH",
"420 428 OFFCURVE",
"359 531 OFFCURVE",
"257 531 CURVE SMOOTH",
"138 531 OFFCURVE",
"71 407 OFFCURVE",
"71 238 CURVE SMOOTH",
"71 151 OFFCURVE",
"89 22 OFFCURVE",
"173 22 CURVE SMOOTH",
"231 22 OFFCURVE",
"264 84 OFFCURVE",
"264 172 CURVE SMOOTH",
"264 265 OFFCURVE",
"227 314 OFFCURVE",
"174 314 CURVE SMOOTH",
"108 314 OFFCURVE",
"71 236 OFFCURVE",
"78 148 CURVE",
"44 168 LINE",
"45 290 OFFCURVE",
"107 354 OFFCURVE",
"177 354 CURVE SMOOTH",
"244 354 OFFCURVE",
"304 291 OFFCURVE",
"304 171 CURVE SMOOTH",
"304 59 OFFCURVE",
"252 -20 OFFCURVE",
"171 -20 CURVE SMOOTH"
);
},
{
closed = 1;
nodes = (
"367 34 LINE",
"416 43 LINE",
"615 43 LINE",
"615 209 LINE",
"657 209 LINE",
"657 1 LINE",
"367 1 LINE"
);
},
{
closed = 1;
nodes = (
"852 573 OFFCURVE",
"911 524 OFFCURVE",
"914 426 CURVE",
"878 390 LINE",
"878 493 OFFCURVE",
"842 531 OFFCURVE",
"770 531 CURVE SMOOTH",
"700 531 OFFCURVE",
"657 483 OFFCURVE",
"657 393 CURVE SMOOTH",
"657 80 LINE",
"615 80 LINE",
"615 404 LINE SMOOTH",
"615 502 OFFCURVE",
"671 575 OFFCURVE",
"776 574 CURVE SMOOTH"
);
},
{
closed = 1;
nodes = (
"878 0 LINE",
"878 460 LINE",
"922 460 LINE",
"920 0 LINE"
);
},
{
closed = 1;
nodes = (
"1140 -96 OFFCURVE",
"1172 23 OFFCURVE",
"1172 234 CURVE SMOOTH",
"1172 446 OFFCURVE",
"1149 534 OFFCURVE",
"1035 534 CURVE SMOOTH",
"950 534 OFFCURVE",
"922 470 OFFCURVE",
"921 390 CURVE",
"896 431 LINE",
"896 498 OFFCURVE",
"939 573 OFFCURVE",
"1038 573 CURVE SMOOTH",
"1180 573 OFFCURVE",
"1214 461 OFFCURVE",
"1214 234 CURVE SMOOTH",
"1214 2 OFFCURVE",
"1175 -137 OFFCURVE",
"948 -137 CURVE SMOOTH",
"193 -138 LINE SMOOTH",
"111 -138 OFFCURVE",
"105 -197 OFFCURVE",
"104 -236 CURVE",
"62 -236 LINE",
"63 -129 OFFCURVE",
"122 -96 OFFCURVE",
"188 -96 CURVE SMOOTH",
"942 -96 LINE SMOOTH"
);
}
);
width = 1244;
}
);
unicode = 0BB9;
},
{
glyphname = tml_Visarga;
lastChange = "2015-11-24 00:05:41 +0000";
layers = (
{
layerId = "A6FF5082-DE18-4D2D-8E01-54AF1261B41D";
name = Bold;
paths = (
{
closed = 1;
nodes = (
"460 141 OFFCURVE",
"523 204 OFFCURVE",
"523 282 CURVE SMOOTH",
"523 360 OFFCURVE",
"460 423 OFFCURVE",
"382 423 CURVE SMOOTH",
"303 423 OFFCURVE",
"240 360 OFFCURVE",
"240 282 CURVE SMOOTH",
"240 204 OFFCURVE",
"303 141 OFFCURVE",
"382 141 CURVE SMOOTH"
);
},
{
closed = 1;
nodes = (
"354 233 OFFCURVE",
"331 256 OFFCURVE",
"331 285 CURVE SMOOTH",
"331 313 OFFCURVE",
"354 336 OFFCURVE",
"383 336 CURVE SMOOTH",
"411 336 OFFCURVE",
"434 313 OFFCURVE",
"434 285 CURVE SMOOTH",
"434 256 OFFCURVE",
"411 233 OFFCURVE",
"383 233 CURVE SMOOTH"
);
},
{
closed = 1;
nodes = (
"659 -210 OFFCURVE",
"722 -147 OFFCURVE",
"722 -69 CURVE SMOOTH",
"722 9 OFFCURVE",
"659 72 OFFCURVE",
"581 72 CURVE SMOOTH",
"502 72 OFFCURVE",
"439 9 OFFCURVE",
"439 -69 CURVE SMOOTH",
"439 -147 OFFCURVE",
"502 -210 OFFCURVE",
"581 -210 CURVE SMOOTH"
);
},
{
closed = 1;
nodes = (
"553 -118 OFFCURVE",
"530 -95 OFFCURVE",
"530 -66 CURVE SMOOTH",
"530 -38 OFFCURVE",
"553 -15 OFFCURVE",
"582 -15 CURVE SMOOTH",
"610 -15 OFFCURVE",
"633 -38 OFFCURVE",
"633 -66 CURVE SMOOTH",
"633 -95 OFFCURVE",
"610 -118 OFFCURVE",
"582 -118 CURVE SMOOTH"
);
},
{
closed = 1;
nodes = (
"280 -210 OFFCURVE",
"343 -147 OFFCURVE",
"343 -69 CURVE SMOOTH",
"343 9 OFFCURVE",
"280 72 OFFCURVE",
"202 72 CURVE SMOOTH",
"123 72 OFFCURVE",
"60 9 OFFCURVE",
"60 -69 CURVE SMOOTH",
"60 -147 OFFCURVE",
"123 -210 OFFCURVE",
"202 -210 CURVE SMOOTH"
);
},
{
closed = 1;
nodes = (
"174 -118 OFFCURVE",
"151 -95 OFFCURVE",
"151 -66 CURVE SMOOTH",
"151 -38 OFFCURVE",
"174 -15 OFFCURVE",
"203 -15 CURVE SMOOTH",
"231 -15 OFFCURVE",
"254 -38 OFFCURVE",
"254 -66 CURVE SMOOTH",
"254 -95 OFFCURVE",
"231 -118 OFFCURVE",
"203 -118 CURVE SMOOTH"
);
}
);
width = 773;
},
{
layerId = "E14DABE6-6E32-45CC-852E-073741854548";
name = Light;
width = 600;
}
);
unicode = 0B83;
},
{
color = 0;
glyphname = tml_Ten;
lastChange = "2015-12-21 09:25:51 +0000";
layers = (
{
layerId = "A6FF5082-DE18-4D2D-8E01-54AF1261B41D";
name = Bold;
paths = (
{
closed = 1;
nodes = (
"353 -10 OFFCURVE",
"318 94 OFFCURVE",
"313 291 CURVE",
"409 292 LINE",
"413 148 OFFCURVE",
"432 88 OFFCURVE",
"507 90 CURVE SMOOTH",
"570 91 OFFCURVE",
"591 184 OFFCURVE",
"591 291 CURVE SMOOTH",
"591 382 OFFCURVE",
"563 475 OFFCURVE",
"483 475 CURVE SMOOTH",
"451 475 OFFCURVE",
"424 453 OFFCURVE",
"390 419 CURVE",
"320 499 LINE",
"349 525 OFFCURVE",
"405 575 OFFCURVE",
"490 575 CURVE SMOOTH",
"641 575 OFFCURVE",
"699 429 OFFCURVE",
"699 261 CURVE SMOOTH",
"699 94 OFFCURVE",
"627 -10 OFFCURVE",
"508 -10 CURVE SMOOTH"
);
},
{
closed = 1;
nodes = (
"98 -17 OFFCURVE",
"26 67 OFFCURVE",
"26 234 CURVE SMOOTH",
"26 364 OFFCURVE",
"79 470 OFFCURVE",
"119 550 CURVE",
"217 508 LINE",
"194 464 OFFCURVE",
"134 366 OFFCURVE",
"134 254 CURVE SMOOTH",
"134 147 OFFCURVE",
"158 87 OFFCURVE",
"223 87 CURVE SMOOTH",
"286 87 OFFCURVE",
"317 140 OFFCURVE",
"313 291 CURVE",
"408 292 LINE",
"415 88 OFFCURVE",
"372 -17 OFFCURVE",
"217 -17 CURVE SMOOTH"
);
}
);
width = 719;
},
{
layerId = "E14DABE6-6E32-45CC-852E-073741854548";
name = Light;
paths = (
{
closed = 1;
nodes = (
"369 -10 OFFCURVE",
"341 95 OFFCURVE",
"336 292 CURVE",
"378 292 LINE",
"382 148 OFFCURVE",
"389 31 OFFCURVE",
"501 32 CURVE SMOOTH",
"601 33 OFFCURVE",
"650 128 OFFCURVE",
"650 285 CURVE SMOOTH",
"650 426 OFFCURVE",
"576 538 OFFCURVE",
"486 538 CURVE SMOOTH",
"424 538 OFFCURVE",
"381 504 OFFCURVE",
"347 470 CURVE",
"321 499 LINE",
"348 527 OFFCURVE",
"394 575 OFFCURVE",
"479 575 CURVE SMOOTH",
"630 575 OFFCURVE",
"692 429 OFFCURVE",
"692 261 CURVE SMOOTH",
"692 94 OFFCURVE",
"620 -10 OFFCURVE",
"501 -10 CURVE SMOOTH"
);
},
{
closed = 1;
nodes = (
"102 -17 OFFCURVE",
"26 67 OFFCURVE",
"26 234 CURVE SMOOTH",
"26 364 OFFCURVE",
"79 470 OFFCURVE",
"119 550 CURVE",
"158 527 LINE",
"135 483 OFFCURVE",
"68 373 OFFCURVE",
"68 239 CURVE SMOOTH",
"68 112 OFFCURVE",
"119 25 OFFCURVE",
"207 25 CURVE SMOOTH",
"318 25 OFFCURVE",
"340 101 OFFCURVE",
"336 292 CURVE",
"378 292 LINE",
"385 88 OFFCURVE",
"360 -17 OFFCURVE",
"207 -17 CURVE SMOOTH"
);
}
);
width = 600;
}
);
unicode = 0BF0;
},
{
color = 0;
glyphname = tml_Hundred;
lastChange = "2015-12-21 09:36:23 +0000";
layers = (
{
layerId = "A6FF5082-DE18-4D2D-8E01-54AF1261B41D";
name = Bold;
paths = (
{
closed = 1;
nodes = (
"94 578 OFFCURVE",
"182 578 CURVE SMOOTH",
"287 578 OFFCURVE",
"322 493 OFFCURVE",
"327 402 CURVE",
"271 383 LINE",
"271 440 OFFCURVE",
"246 478 OFFCURVE",
"203 478 CURVE SMOOTH",
"169 478 OFFCURVE",
"137 454 OFFCURVE",
"137 394 CURVE SMOOTH",
"137 1 LINE",
"30 1 LINE",
"30 429 LINE SMOOTH",
"30 528 OFFCURVE"
);
},
{
closed = 1;
nodes = (
"738 559 LINE",
"738 460 LINE",
"638 461 LINE",
"638 1 LINE",
"531 1 LINE",
"531 462 LINE",
"378 462 LINE",
"378 1 LINE",
"271 1 LINE",
"271 414 LINE",
"311 560 LINE",
"638 560 LINE"
);
}
);
width = 768;
},
{
layerId = "E14DABE6-6E32-45CC-852E-073741854548";
name = Light;
paths = (
{
closed = 1;
nodes = (
"45 515 OFFCURVE",
"91 578 OFFCURVE",
"180 578 CURVE SMOOTH",
"263 578 OFFCURVE",
"322 529 OFFCURVE",
"322 402 CURVE",
"290 391 LINE",
"290 484 OFFCURVE",
"264 536 OFFCURVE",
"185 536 CURVE SMOOTH",
"131 536 OFFCURVE",
"87 508 OFFCURVE",
"87 416 CURVE SMOOTH",
"87 1 LINE",
"45 1 LINE",
"45 423 LINE SMOOTH"
);
},
{
closed = 1;
nodes = (
"708 519 LINE",
"598 519 LINE",
"598 1 LINE",
"556 1 LINE",
"556 519 LINE",
"332 519 LINE",
"332 1 LINE",
"290 1 LINE",
"290 504 LINE",
"303 561 LINE",
"708 561 LINE"
);
}
);
width = 768;
}
);
unicode = 0BF1;
},
{
glyphname = tml_Thousand;
lastChange = "2015-12-22 22:51:50 +0000";
layers = (
{
components = (
{
name = tml_Ca;
}
);
layerId = "A6FF5082-DE18-4D2D-8E01-54AF1261B41D";
name = Bold;
paths = (
{
closed = 1;
nodes = (
"481 -191 OFFCURVE",
"490 -83 OFFCURVE",
"631 -81 CURVE",
"687 -81 LINE",
"767 -80 OFFCURVE",
"789 -26 OFFCURVE",
"789 19 CURVE SMOOTH",
"789 90 OFFCURVE",
"752 118 OFFCURVE",
"680 118 CURVE SMOOTH",
"574 118 LINE SMOOTH",
"539 118 OFFCURVE",
"527 99 OFFCURVE",
"527 73 CURVE SMOOTH",
"527 52 OFFCURVE",
"546 36 OFFCURVE",
"574 36 CURVE SMOOTH",
"614 36 OFFCURVE",
"622 62 OFFCURVE",
"622 102 CURVE",
"622 246 LINE",
"721 246 LINE",
"720 96 LINE",
"720 25 OFFCURVE",
"691 -52 OFFCURVE",
"575 -51 CURVE",
"468 -51 OFFCURVE",
"433 23 OFFCURVE",
"433 73 CURVE SMOOTH",
"433 126 OFFCURVE",
"474 205 OFFCURVE",
"558 205 CURVE",
"671 205 LINE",
"730 205 OFFCURVE",
"885 208 OFFCURVE",
"885 21 CURVE SMOOTH",
"885 -75 OFFCURVE",
"830 -170 OFFCURVE",
"701 -170 CURVE",
"649 -170 LINE",
"577 -170 OFFCURVE",
"586 -221 OFFCURVE",
"586 -237 CURVE",
"481 -237 LINE"
);
},
{
closed = 1;
nodes = (
"486 341 LINE",
"811 341 LINE",
"811 244 LINE",
"486 244 LINE"
);
}
);
width = 925;
},
{
components = (
{
name = tml_Ca;
}
);
layerId = "E14DABE6-6E32-45CC-852E-073741854548";
name = Light;
paths = (
{
closed = 1;
nodes = (
"492 -191 OFFCURVE",
"491 -107 OFFCURVE",
"608 -105 CURVE",
"667 -105 LINE",
"759 -104 OFFCURVE",
"803 -36 OFFCURVE",
"803 26 CURVE SMOOTH",
"803 108 OFFCURVE",
"774 173 OFFCURVE",
"660 173 CURVE SMOOTH",
"549 173 LINE SMOOTH",
"490 173 OFFCURVE",
"455 136 OFFCURVE",
"455 81 CURVE SMOOTH",
"455 30 OFFCURVE",
"497 -9 OFFCURVE",
"555 -9 CURVE SMOOTH",
"618 -9 OFFCURVE",
"642 26 OFFCURVE",
"642 102 CURVE",
"642 306 LINE",
"684 306 LINE",
"684 96 LINE",
"684 25 OFFCURVE",
"664 -52 OFFCURVE",
"555 -51 CURVE",
"448 -51 OFFCURVE",
"413 31 OFFCURVE",
"413 81 CURVE SMOOTH",
"413 134 OFFCURVE",
"450 215 OFFCURVE",
"548 215 CURVE",
"671 215 LINE",
"750 215 OFFCURVE",
"845 182 OFFCURVE",
"845 24 CURVE SMOOTH",
"845 -72 OFFCURVE",
"775 -147 OFFCURVE",
"671 -147 CURVE",
"599 -147 LINE",
"527 -147 OFFCURVE",
"536 -221 OFFCURVE",
"536 -237 CURVE",
"492 -237 LINE"
);
},
{
closed = 1;
nodes = (
"486 341 LINE",
"791 341 LINE",
"791 299 LINE",
"486 299 LINE"
);
}
);
width = 552;
}
);
unicode = 0BF2;
},
{
glyphname = tml_Zero;
lastChange = "2015-12-24 00:48:35 +0000";
layers = (
{
layerId = "A6FF5082-DE18-4D2D-8E01-54AF1261B41D";
name = Bold;
paths = (
{
closed = 1;
nodes = (
"397 -5 OFFCURVE",
"474 95 OFFCURVE",
"474 203 CURVE SMOOTH",
"474 314 OFFCURVE",
"392 409 OFFCURVE",
"267 409 CURVE SMOOTH",
"152 409 OFFCURVE",
"60 328 OFFCURVE",
"60 199 CURVE SMOOTH",
"60 72 OFFCURVE",
"148 -5 OFFCURVE",
"264 -5 CURVE SMOOTH"
);
},
{
closed = 1;
nodes = (
"188 89 OFFCURVE",
"149 149 OFFCURVE",
"149 201 CURVE SMOOTH",
"149 260 OFFCURVE",
"199 312 OFFCURVE",
"269 312 CURVE SMOOTH",
"338 312 OFFCURVE",
"384 262 OFFCURVE",
"384 201 CURVE SMOOTH",
"384 147 OFFCURVE",
"347 89 OFFCURVE",
"268 89 CURVE SMOOTH"
);
}
);
width = 543;
},
{
layerId = "E14DABE6-6E32-45CC-852E-073741854548";
name = Light;
paths = (
{
closed = 1;
nodes = (
"397 -5 OFFCURVE",
"474 95 OFFCURVE",
"474 203 CURVE SMOOTH",
"474 314 OFFCURVE",
"392 409 OFFCURVE",
"267 409 CURVE SMOOTH",
"152 409 OFFCURVE",
"60 328 OFFCURVE",
"60 199 CURVE SMOOTH",
"60 72 OFFCURVE",
"148 -5 OFFCURVE",
"264 -5 CURVE SMOOTH"
);
},
{
closed = 1;
nodes = (
"368 367 OFFCURVE",
"432 284 OFFCURVE",
"432 203 CURVE SMOOTH",
"432 123 OFFCURVE",
"364 37 OFFCURVE",
"269 37 CURVE SMOOTH",
"168 37 OFFCURVE",
"102 106 OFFCURVE",
"102 199 CURVE SMOOTH",
"102 281 OFFCURVE",
"150 367 OFFCURVE",
"270 367 CURVE SMOOTH"
);
}
);
width = 600;
}
);
unicode = 0BE6;
},
{
color = 0;
glyphname = tml_Two;
lastChange = "2015-12-21 10:00:26 +0000";
layers = (
{
layerId = "A6FF5082-DE18-4D2D-8E01-54AF1261B41D";
name = Bold;
paths = (
{
closed = 1;
nodes = (
"169 1 LINE",
"80 0 OFFCURVE",
"36 46 OFFCURVE",
"36 108 CURVE SMOOTH",
"36 182 OFFCURVE",
"85 224 OFFCURVE",
"154 224 CURVE SMOOTH",
"214 224 LINE",
"318 226 OFFCURVE",
"350 302 OFFCURVE",
"350 376 CURVE SMOOTH",
"350 447 OFFCURVE",
"311 512 OFFCURVE",
"231 512 CURVE SMOOTH",
"139 512 OFFCURVE",
"117 425 OFFCURVE",
"117 386 CURVE SMOOTH",
"117 355 OFFCURVE",
"131 333 OFFCURVE",
"161 333 CURVE SMOOTH",
"194 333 OFFCURVE",
"203 367 OFFCURVE",
"203 387 CURVE SMOOTH",
"203 419 OFFCURVE",
"185 438 OFFCURVE",
"161 438 CURVE SMOOTH",
"133 438 OFFCURVE",
"118 413 OFFCURVE",
"117 385 CURVE",
"63 397 LINE",
"63 436 OFFCURVE",
"102 509 OFFCURVE",
"171 509 CURVE SMOOTH",
"217 509 OFFCURVE",
"290 481 OFFCURVE",
"290 381 CURVE SMOOTH",
"290 303 OFFCURVE",
"242 247 OFFCURVE",
"164 247 CURVE SMOOTH",
"80 247 OFFCURVE",
"30 313 OFFCURVE",
"30 402 CURVE SMOOTH",
"30 516 OFFCURVE",
"112 596 OFFCURVE",
"235 597 CURVE SMOOTH",
"368 598 OFFCURVE",
"447 501 OFFCURVE",
"447 371 CURVE SMOOTH",
"447 245 OFFCURVE",
"375 135 OFFCURVE",
"219 132 CURVE",
"153 131 LINE SMOOTH",
"143 131 OFFCURVE",
"132 125 OFFCURVE",
"132 113 CURVE SMOOTH",
"132 99 OFFCURVE",
"147 96 OFFCURVE",
"162 96 CURVE"
);
},
{
closed = 1;
nodes = (
"504 97 LINE",
"504 1 LINE",
"160 1 LINE",
"156 96 LINE"
);
}
);
width = 534;
},
{
layerId = "E14DABE6-6E32-45CC-852E-073741854548";
name = Light;
paths = (
{
closed = 1;
nodes = (
"151 42 LINE",
"514 42 LINE",
"514 0 LINE",
"153 0 LINE"
);
},
{
closed = 1;
nodes = (
"67 0 OFFCURVE",
"36 43 OFFCURVE",
"36 92 CURVE SMOOTH",
"36 156 OFFCURVE",
"89 186 OFFCURVE",
"144 186 CURVE SMOOTH",
"217 186 LINE SMOOTH",
"344 186 OFFCURVE",
"420 233 OFFCURVE",
"420 360 CURVE SMOOTH",
"420 501 OFFCURVE",
"315 546 OFFCURVE",
"232 546 CURVE SMOOTH",
"115 546 OFFCURVE",
"72 455 OFFCURVE",
"72 375 CURVE",
"72 328 OFFCURVE",
"109 280 OFFCURVE",
"170 280 CURVE SMOOTH",
"232 280 OFFCURVE",
"262 330 OFFCURVE",
"262 384 CURVE SMOOTH",
"262 452 OFFCURVE",
"213 480 OFFCURVE",
"165 480 CURVE SMOOTH",
"107 480 OFFCURVE",
"72 440 OFFCURVE",
"72 375 CURVE",
"45 390 LINE",
"45 450 OFFCURVE",
"79 519 OFFCURVE",
"167 519 CURVE SMOOTH",
"234 519 OFFCURVE",
"304 478 OFFCURVE",
"304 383 CURVE SMOOTH",
"304 297 OFFCURVE",
"246 238 OFFCURVE",
"169 238 CURVE SMOOTH",
"88 238 OFFCURVE",
"30 304 OFFCURVE",
"30 396 CURVE SMOOTH",
"30 504 OFFCURVE",
"110 587 OFFCURVE",
"235 588 CURVE SMOOTH",
"371 589 OFFCURVE",
"464 496 OFFCURVE",
"464 362 CURVE SMOOTH",
"464 243 OFFCURVE",
"400 146 OFFCURVE",
"236 144 CURVE SMOOTH",
"146 143 LINE SMOOTH",
"103 143 OFFCURVE",
"82 120 OFFCURVE",
"82 91 CURVE SMOOTH",
"82 64 OFFCURVE",
"99 42 OFFCURVE",
"155 42 CURVE",
"157 0 LINE"
);
}
);
width = 544;
}
);
unicode = 0BE8;
},
{
color = 0;
glyphname = tml_Three;
lastChange = "2015-12-21 09:39:38 +0000";
layers = (
{
layerId = "A6FF5082-DE18-4D2D-8E01-54AF1261B41D";
name = Bold;
paths = (
{
closed = 1;
nodes = (
"50 0 LINE",
"50 560 LINE",
"460 560 LINE",
"460 462 LINE",
"358 462 LINE",
"358 164 LINE",
"250 164 LINE",
"250 462 LINE",
"157 462 LINE",
"157 0 LINE"
);
},
{
closed = 1;
nodes = (
"248 98 LINE",
"717 97 LINE",
"717 -2 LINE",
"248 -1 LINE"
);
},
{
closed = 1;
nodes = (
"318 98 LINE",
"435 98 OFFCURVE",
"463 187 OFFCURVE",
"463 240 CURVE SMOOTH",
"463 283 OFFCURVE",
"444 317 OFFCURVE",
"407 317 CURVE SMOOTH",
"368 317 OFFCURVE",
"358 279 OFFCURVE",
"358 254 CURVE",
"309 285 LINE",
"309 358 OFFCURVE",
"360 408 OFFCURVE",
"433 408 CURVE SMOOTH",
"511 408 OFFCURVE",
"568 352 OFFCURVE",
"568 257 CURVE SMOOTH",
"568 136 OFFCURVE",
"474 22 OFFCURVE",
"327 22 CURVE"
);
}
);
width = 727;
},
{
layerId = "E14DABE6-6E32-45CC-852E-073741854548";
name = Light;
paths = (
{
closed = 1;
nodes = (
"30 0 LINE",
"30 560 LINE",
"386 560 LINE",
"386 518 LINE",
"274 518 LINE",
"274 164 LINE",
"232 164 LINE",
"232 518 LINE",
"72 518 LINE",
"72 0 LINE"
);
},
{
closed = 1;
nodes = (
"232 42 LINE",
"638 42 LINE",
"638 0 LINE",
"232 0 LINE"
);
},
{
closed = 1;
nodes = (
"243 42 LINE",
"400 42 OFFCURVE",
"461 144 OFFCURVE",
"461 247 CURVE SMOOTH",
"461 318 OFFCURVE",
"432 369 OFFCURVE",
"365 369 CURVE SMOOTH",
"306 369 OFFCURVE",
"274 322 OFFCURVE",
"274 274 CURVE",
"251 279 LINE",
"251 352 OFFCURVE",
"294 408 OFFCURVE",
"372 408 CURVE SMOOTH",
"449 408 OFFCURVE",
"503 349 OFFCURVE",
"503 249 CURVE SMOOTH",
"503 118 OFFCURVE",
"438 13 OFFCURVE",
"253 13 CURVE"
);
}
);
width = 600;
}
);
unicode = 0BE9;
},
{
glyphname = tml_Four;
lastChange = "2015-12-22 22:41:23 +0000";
layers = (
{
components = (
{
name = tml_Ca;
}
);
layerId = "A6FF5082-DE18-4D2D-8E01-54AF1261B41D";
name = Bold;
paths = (
{
closed = 1;
nodes = (
"586 341 LINE",
"586 560 LINE",
"677 560 LINE",
"677 243 LINE",
"459 243 LINE",
"459 344 LINE",
"459 341 LINE"
);
}
);
width = 697;
},
{
components = (
{
name = tml_Ca;
}
);
layerId = "E14DABE6-6E32-45CC-852E-073741854548";
name = Light;
paths = (
{
closed = 1;
nodes = (
"586 341 LINE",
"586 560 LINE",
"628 560 LINE",
"628 299 LINE",
"459 299 LINE",
"459 344 LINE",
"459 341 LINE"
);
}
);
width = 552;
}
);
unicode = 0BEA;
},
{
color = 0;
glyphname = tml_Five;
lastChange = "2015-12-21 13:35:28 +0000";
layers = (
{
layerId = "A6FF5082-DE18-4D2D-8E01-54AF1261B41D";
name = Bold;
paths = (
{
closed = 1;
nodes = (
"337 0 LINE",
"337 560 LINE",
"806 560 LINE",
"806 462 LINE",
"703 462 LINE",
"703 0 LINE",
"667 0 OFFCURVE",
"631 0 OFFCURVE",
"595 0 CURVE",
"595 462 LINE",
"444 462 LINE",
"444 0 LINE"
);
},
{
closed = 1;
nodes = (
"912 799 OFFCURVE",
"1113 601 OFFCURVE",
"1113 316 CURVE SMOOTH",
"1113 -1 LINE",
"1001 -1 LINE",
"1001 143 OFFCURVE",
"1001 139 OFFCURVE",
"1001 281 CURVE SMOOTH",
"1001 557 OFFCURVE",
"810 694 OFFCURVE",
"577 694 CURVE SMOOTH",
"364 694 OFFCURVE",
"159 569 OFFCURVE",
"159 244 CURVE SMOOTH",
"159 20 OFFCURVE",
"290 -161 OFFCURVE",
"529 -160 CURVE SMOOTH",
"737 -159 OFFCURVE",
"822 -54 OFFCURVE",
"822 134 CURVE SMOOTH",
"822 213 OFFCURVE",
"795 267 OFFCURVE",
"754 267 CURVE SMOOTH",
"712 267 OFFCURVE",
"703 229 OFFCURVE",
"703 204 CURVE",
"654 235 LINE SMOOTH",
"654 308 OFFCURVE",
"702 358 OFFCURVE",
"766 358 CURVE SMOOTH",
"860 358 OFFCURVE",
"924 280 OFFCURVE",
"924 131 CURVE SMOOTH",
"924 -117 OFFCURVE",
"796 -266 OFFCURVE",
"518 -265 CURVE SMOOTH",
"223 -264 OFFCURVE",
"40 -47 OFFCURVE",
"40 247 CURVE SMOOTH",
"40 568 OFFCURVE",
"245 803 OFFCURVE",
"571 801 CURVE SMOOTH"
);
},
{
closed = 0;
nodes = (
"207 527 LINE"
);
}
);
width = 1138;
},
{
layerId = "E14DABE6-6E32-45CC-852E-073741854548";
name = Light;
paths = (
{
closed = 1;
nodes = (
"342 0 LINE",
"342 560 LINE",
"746 560 LINE",
"746 518 LINE",
"627 518 LINE",
"627 0 LINE",
"591 0 OFFCURVE",
"621 0 OFFCURVE",
"585 0 CURVE",
"585 518 LINE",
"384 518 LINE",
"384 0 LINE"
);
},
{
closed = 1;
nodes = (
"876 802 OFFCURVE",
"1057 594 OFFCURVE",
"1057 309 CURVE SMOOTH",
"1057 -1 LINE",
"1013 -1 LINE",
"1013 143 OFFCURVE",
"1013 143 OFFCURVE",
"1013 285 CURVE SMOOTH",
"1013 641 OFFCURVE",
"774 758 OFFCURVE",
"541 758 CURVE SMOOTH",
"266 758 OFFCURVE",
"83 579 OFFCURVE",
"83 254 CURVE SMOOTH",
"83 -20 OFFCURVE",
"273 -224 OFFCURVE",
"512 -223 CURVE SMOOTH",
"750 -222 OFFCURVE",
"821 -31 OFFCURVE",
"821 107 CURVE SMOOTH",
"821 252 OFFCURVE",
"758 299 OFFCURVE",
"707 299 CURVE SMOOTH",
"650 299 OFFCURVE",
"627 243 OFFCURVE",
"627 204 CURVE",
"603 222 LINE",
"603 293 OFFCURVE",
"652 339 OFFCURVE",
"709 339 CURVE SMOOTH",
"810 339 OFFCURVE",
"863 235 OFFCURVE",
"863 107 CURVE SMOOTH",
"863 -66 OFFCURVE",
"780 -266 OFFCURVE",
"502 -265 CURVE SMOOTH",
"267 -264 OFFCURVE",
"41 -70 OFFCURVE",
"41 254 CURVE SMOOTH",
"41 575 OFFCURVE",
"224 800 OFFCURVE",
"535 801 CURVE SMOOTH"
);
},
{
closed = 0;
nodes = (
"207 527 LINE"
);
}
);
width = 1138;
}
);
unicode = 0BEB;
},
{
glyphname = tml_Six;
lastChange = "2015-12-22 23:36:28 +0000";
layers = (
{
layerId = "A6FF5082-DE18-4D2D-8E01-54AF1261B41D";
name = Bold;
paths = (
{
closed = 1;
nodes = (
"478 212 OFFCURVE",
"469 244 OFFCURVE",
"438 244 CURVE",
"212 244 LINE SMOOTH",
"159 244 OFFCURVE",
"130 212 OFFCURVE",
"130 167 CURVE SMOOTH",
"130 124 OFFCURVE",
"166 85 OFFCURVE",
"217 85 CURVE SMOOTH",
"282 85 OFFCURVE",
"308 140 OFFCURVE",
"308 207 CURVE SMOOTH",
"308 289 LINE",
"318 301 LINE",
"318 461 LINE",
"223 461 LINE",
"223 309 LINE",
"139 309 LINE",
"139 560 LINE",
"518 560 LINE",
"518 461 LINE",
"415 461 LINE",
"415 207 LINE SMOOTH",
"415 103 OFFCURVE",
"375 -13 OFFCURVE",
"217 -13 CURVE SMOOTH",
"82 -13 OFFCURVE",
"30 75 OFFCURVE",
"30 172 CURVE SMOOTH",
"30 271 OFFCURVE",
"94 341 OFFCURVE",
"212 341 CURVE SMOOTH",
"438 341 LINE",
"536 341 OFFCURVE",
"575 240 OFFCURVE",
"575 204 CURVE",
"478 180 LINE"
);
},
{
closed = 1;
nodes = (
"867 244 LINE",
"767 244 LINE",
"767 0 LINE",
"670 0 LINE",
"670 245 LINE",
"624 245 OFFCURVE",
"575 234 OFFCURVE",
"575 164 CURVE",
"575 0 LINE",
"478 0 LINE",
"478 183 LINE",
"478 265 OFFCURVE",
"529 341 OFFCURVE",
"650 341 CURVE",
"867 341 LINE"
);
}
);
width = 897;
},
{
layerId = "E14DABE6-6E32-45CC-852E-073741854548";
name = Light;
paths = (
{
closed = 1;
nodes = (
"827 299 LINE",
"747 299 LINE",
"747 0 LINE",
"705 0 LINE",
"705 299 LINE",
"605 299 OFFCURVE",
"560 278 OFFCURVE",
"560 188 CURVE",
"560 0 LINE",
"518 0 LINE",
"518 213 LINE",
"518 265 OFFCURVE",
"561 341 OFFCURVE",
"670 341 CURVE",
"827 341 LINE"
);
},
{
closed = 1;
nodes = (
"201 299 LINE SMOOTH",
"114 299 OFFCURVE",
"72 248 OFFCURVE",
"72 177 CURVE SMOOTH",
"72 96 OFFCURVE",
"128 43 OFFCURVE",
"209 43 CURVE SMOOTH",
"282 43 OFFCURVE",
"347 86 OFFCURVE",
"347 207 CURVE SMOOTH",
"347 289 LINE",
"347 301 LINE",
"347 518 LINE",
"191 518 LINE",
"191 309 LINE",
"149 309 LINE",
"149 560 LINE",
"512 560 LINE",
"512 518 LINE",
"389 518 LINE",
"389 207 LINE SMOOTH",
"389 104 OFFCURVE",
"348 1 OFFCURVE",
"213 1 CURVE SMOOTH",
"104 1 OFFCURVE",
"33 68 OFFCURVE",
"30 175 CURVE SMOOTH",
"27 272 OFFCURVE",
"86 341 OFFCURVE",
"183 341 CURVE SMOOTH",
"434 341 LINE",
"507 341 OFFCURVE",
"554 285 OFFCURVE",
"554 239 CURVE",
"518 213 LINE",
"518 229 OFFCURVE",
"512 299 OFFCURVE",
"424 299 CURVE"
);
}
);
width = 600;
}
);
unicode = 0BEC;
},
{
color = 0;
glyphname = tml_Seven;
lastChange = "2015-12-21 09:43:05 +0000";
layers = (
{
layerId = "A6FF5082-DE18-4D2D-8E01-54AF1261B41D";
name = Bold;
paths = (
{
closed = 1;
nodes = (
"92 -24 OFFCURVE",
"30 90 OFFCURVE",
"30 245 CURVE SMOOTH",
"30 442 OFFCURVE",
"123 560 OFFCURVE",
"279 560 CURVE SMOOTH",
"277 462 LINE SMOOTH",
"178 462 OFFCURVE",
"132 370 OFFCURVE",
"132 255 CURVE SMOOTH",
"132 158 OFFCURVE",
"149 74 OFFCURVE",
"197 74 CURVE SMOOTH",
"243 74 OFFCURVE",
"252 139 OFFCURVE",
"252 178 CURVE SMOOTH",
"252 246 OFFCURVE",
"224 281 OFFCURVE",
"198 281 CURVE SMOOTH",
"155 281 OFFCURVE",
"135 235 OFFCURVE",
"138 167 CURVE",
"82 196 LINE",
"82 269 OFFCURVE",
"125 362 OFFCURVE",
"209 362 CURVE SMOOTH",
"282 362 OFFCURVE",
"348 297 OFFCURVE",
"348 174 CURVE SMOOTH",
"348 53 OFFCURVE",
"291 -24 OFFCURVE",
"197 -24 CURVE SMOOTH"
);
},
{
closed = 1;
nodes = (
"269 462 LINE",
"277 560 LINE",
"521 560 LINE",
"521 1 LINE",
"414 1 LINE",
"414 462 LINE"
);
}
);
width = 571;
},
{
layerId = "E14DABE6-6E32-45CC-852E-073741854548";
name = Light;
paths = (
{
closed = 1;
nodes = (
"138 520 OFFCURVE",
"71 403 OFFCURVE",
"71 234 CURVE SMOOTH",
"71 147 OFFCURVE",
"89 18 OFFCURVE",
"173 18 CURVE SMOOTH",
"231 18 OFFCURVE",
"264 80 OFFCURVE",
"264 168 CURVE SMOOTH",
"264 261 OFFCURVE",
"227 310 OFFCURVE",
"174 310 CURVE SMOOTH",
"108 310 OFFCURVE",
"71 232 OFFCURVE",
"78 144 CURVE",
"44 164 LINE",
"45 286 OFFCURVE",
"107 350 OFFCURVE",
"177 350 CURVE SMOOTH",
"244 350 OFFCURVE",
"304 287 OFFCURVE",
"304 167 CURVE SMOOTH",
"304 55 OFFCURVE",
"252 -24 OFFCURVE",
"171 -24 CURVE SMOOTH",
"78 -24 OFFCURVE",
"30 82 OFFCURVE",
"30 233 CURVE SMOOTH",
"30 430 OFFCURVE",
"111 560 OFFCURVE",
"255 560 CURVE",
"469 560 LINE",
"469 0 LINE",
"427 0 LINE",
"427 520 LINE",
"257 520 LINE"
);
}
);
width = 499;
}
);
unicode = 0BED;
},
{
glyphname = tml_Nine;
lastChange = "2015-12-24 00:44:00 +0000";
layers = (
{
components = (
{
name = tml_Ca;
}
);
layerId = "A6FF5082-DE18-4D2D-8E01-54AF1261B41D";
name = Bold;
paths = (
{
closed = 1;
nodes = (
"523 341 LINE",
"700 351 OFFCURVE",
"740 223 OFFCURVE",
"740 144 CURVE SMOOTH",
"740 50 OFFCURVE",
"685 -1 OFFCURVE",
"610 -1 CURVE SMOOTH",
"539 -1 OFFCURVE",
"481 50 OFFCURVE",
"481 139 CURVE SMOOTH",
"481 302 OFFCURVE",
"604 360 OFFCURVE",
"708 360 CURVE SMOOTH",
"831 360 OFFCURVE",
"915 280 OFFCURVE",
"915 165 CURVE SMOOTH",
"915 80 OFFCURVE",
"873 15 OFFCURVE",
"837 -14 CURVE",
"837 -14 OFFCURVE",
"772 46 OFFCURVE",
"772 46 CURVE",
"805 81 OFFCURVE",
"826 120 OFFCURVE",
"826 171 CURVE SMOOTH",
"826 233 OFFCURVE",
"768 279 OFFCURVE",
"708 279 CURVE SMOOTH",
"622 279 OFFCURVE",
"567 223 OFFCURVE",
"567 147 CURVE SMOOTH",
"567 121 OFFCURVE",
"583 77 OFFCURVE",
"612 77 CURVE SMOOTH",
"641 77 OFFCURVE",
"653 112 OFFCURVE",
"653 138 CURVE SMOOTH",
"653 214 OFFCURVE",
"608 242 OFFCURVE",
"558 244 CURVE",
"430 244 LINE",
"417 341 LINE"
);
}
);
width = 954;
},
{
components = (
{
name = tml_Ca;
}
);
layerId = "E14DABE6-6E32-45CC-852E-073741854548";
name = Light;
paths = (
{
closed = 1;
nodes = (
"489 341 LINE",
"686 351 OFFCURVE",
"703 205 OFFCURVE",
"703 144 CURVE SMOOTH",
"703 50 OFFCURVE",
"649 -1 OFFCURVE",
"574 -1 CURVE SMOOTH",
"503 -1 OFFCURVE",
"451 53 OFFCURVE",
"451 142 CURVE SMOOTH",
"451 298 OFFCURVE",
"564 360 OFFCURVE",
"678 360 CURVE SMOOTH",
"798 360 OFFCURVE",
"885 280 OFFCURVE",
"885 165 CURVE SMOOTH",
"885 80 OFFCURVE",
"843 15 OFFCURVE",
"807 -14 CURVE",
"807 -14 OFFCURVE",
"775 16 OFFCURVE",
"775 16 CURVE",
"808 51 OFFCURVE",
"843 94 OFFCURVE",
"843 165 CURVE SMOOTH",
"843 257 OFFCURVE",
"769 318 OFFCURVE",
"678 318 CURVE SMOOTH",
"554 318 OFFCURVE",
"493 242 OFFCURVE",
"493 146 CURVE SMOOTH",
"493 90 OFFCURVE",
"523 41 OFFCURVE",
"574 41 CURVE SMOOTH",
"635 41 OFFCURVE",
"661 98 OFFCURVE",
"661 144 CURVE SMOOTH",
"661 246 OFFCURVE",
"598 297 OFFCURVE",
"528 299 CURVE",
"430 299 LINE",
"417 341 LINE"
);
}
);
width = 552;
}
);
unicode = 0BEF;
},
{
glyphname = tml_Rupee;
lastChange = "2015-12-24 03:51:59 +0000";
layers = (
{
layerId = "A6FF5082-DE18-4D2D-8E01-54AF1261B41D";
name = Bold;
paths = (
{
closed = 1;
nodes = (
"313 1 LINE",
"313 560 LINE",
"762 560 LINE",
"762 462 LINE",
"659 462 LINE",
"659 1 LINE",
"551 1 LINE",
"551 462 LINE",
"420 462 LINE",
"420 1 LINE"
);
},
{
closed = 1;
nodes = (
"267 843 OFFCURVE",
"160 601 OFFCURVE",
"160 341 CURVE SMOOTH",
"160 74 OFFCURVE",
"251 -160 OFFCURVE",
"498 -160 CURVE SMOOTH",
"657 -160 OFFCURVE",
"779 -56 OFFCURVE",
"779 129 CURVE SMOOTH",
"779 197 OFFCURVE",
"760 266 OFFCURVE",
"708 266 CURVE SMOOTH",
"665 266 OFFCURVE",
"659 218 OFFCURVE",
"659 179 CURVE",
"590 220 LINE",
"594 268 OFFCURVE",
"625 358 OFFCURVE",
"725 358 CURVE SMOOTH",
"834 358 OFFCURVE",
"882 252 OFFCURVE",
"882 118 CURVE",
"882 118 LINE",
"882 -104 OFFCURVE",
"722 -267 OFFCURVE",
"490 -267 CURVE SMOOTH",
"186 -267 OFFCURVE",
"50 4 OFFCURVE",
"50 340 CURVE SMOOTH",
"50 746 OFFCURVE",
"272 954 OFFCURVE",
"523 954 CURVE SMOOTH",
"723 954 OFFCURVE",
"841 862 OFFCURVE",
"841 734 CURVE SMOOTH",
"841 654 OFFCURVE",
"785 601 OFFCURVE",
"709 601 CURVE SMOOTH",
"634 601 OFFCURVE",
"583 653 OFFCURVE",
"583 724 CURVE SMOOTH",
"583 793 OFFCURVE",
"632 843 OFFCURVE",
"699 843 CURVE SMOOTH",
"764 843 OFFCURVE",
"808 796 OFFCURVE",
"808 731 CURVE",
"754 729 LINE",
"753 754 OFFCURVE",
"735 772 OFFCURVE",
"710 772 CURVE SMOOTH",
"685 772 OFFCURVE",
"667 754 OFFCURVE",
"667 727 CURVE SMOOTH",
"667 700 OFFCURVE",
"685 680 OFFCURVE",
"710 680 CURVE SMOOTH",
"736 680 OFFCURVE",
"754 701 OFFCURVE",
"754 729 CURVE SMOOTH",
"754 771 OFFCURVE",
"713 796 OFFCURVE",
"689 815 CURVE SMOOTH",
"652 844 OFFCURVE",
"591 850 OFFCURVE",
"523 848 CURVE"
);
}
);
width = 932;
},
{
layerId = "E14DABE6-6E32-45CC-852E-073741854548";
name = Light;
paths = (
{
closed = 1;
nodes = (
"300 1 LINE",
"300 560 LINE",
"727 560 LINE",
"727 518 LINE",
"591 518 LINE",
"591 1 LINE",
"549 1 LINE",
"549 518 LINE",
"343 518 LINE",
"343 1 LINE"
);
},
{
closed = 1;
nodes = (
"227 907 OFFCURVE",
"78 640 OFFCURVE",
"78 320 CURVE SMOOTH",
"78 13 OFFCURVE",
"214 -225 OFFCURVE",
"460 -225 CURVE SMOOTH",
"667 -225 OFFCURVE",
"780 -67 OFFCURVE",
"780 118 CURVE SMOOTH",
"780 206 OFFCURVE",
"761 316 OFFCURVE",
"679 316 CURVE SMOOTH",
"636 316 OFFCURVE",
"591 278 OFFCURVE",
"591 179 CURVE",
"550 200 LINE",
"554 248 OFFCURVE",
"579 358 OFFCURVE",
"679 358 CURVE SMOOTH",
"788 358 OFFCURVE",
"822 242 OFFCURVE",
"822 118 CURVE",
"822 118 LINE",
"822 -104 OFFCURVE",
"683 -267 OFFCURVE",
"460 -267 CURVE SMOOTH",
"204 -267 OFFCURVE",
"36 -36 OFFCURVE",
"36 320 CURVE SMOOTH",
"36 703 OFFCURVE",
"232 954 OFFCURVE",
"483 954 CURVE SMOOTH",
"673 954 OFFCURVE",
"788 862 OFFCURVE",
"788 734 CURVE SMOOTH",
"788 654 OFFCURVE",
"737 601 OFFCURVE",
"661 601 CURVE SMOOTH",
"586 601 OFFCURVE",
"533 658 OFFCURVE",
"533 729 CURVE SMOOTH",
"533 808 OFFCURVE",
"587 863 OFFCURVE",
"659 863 CURVE SMOOTH",
"720 863 OFFCURVE",
"774 792 OFFCURVE",
"774 727 CURVE",
"746 727 LINE",
"747 787 OFFCURVE",
"714 821 OFFCURVE",
"659 821 CURVE SMOOTH",
"612 821 OFFCURVE",
"575 785 OFFCURVE",
"575 729 CURVE SMOOTH",
"575 681 OFFCURVE",
"613 643 OFFCURVE",
"661 643 CURVE SMOOTH",
"714 643 OFFCURVE",
"747 681 OFFCURVE",
"746 727 CURVE SMOOTH",
"744 811 OFFCURVE",
"734 814 OFFCURVE",
"712 837 CURVE SMOOTH",
"680 870 OFFCURVE",
"605 914 OFFCURVE",
"483 912 CURVE"
);
}
);
width = 872;
}
);
unicode = 0BF9;
},
{
glyphname = tml_Day;
lastChange = "2015-12-24 03:53:12 +0000";
layers = (
{
anchors = (
{
name = tml_virama;
position = "{408, 2}";
}
);
layerId = "A6FF5082-DE18-4D2D-8E01-54AF1261B41D";
name = Bold;
paths = (
{
closed = 1;
nodes = (
"25 245 CURVE SMOOTH",
"25 448 OFFCURVE",
"118 570 OFFCURVE",
"274 570 CURVE SMOOTH",
"411.41 570 OFFCURVE",
"508.469 451.686 OFFCURVE",
"507 279 CURVE SMOOTH",
"506.007 162.216 OFFCURVE",
"477.916 101.29 OFFCURVE",
"459 59 CURVE",
"374 84 LINE",
"391.419 123.341 OFFCURVE",
"404 173.5 OFFCURVE",
"404 263 CURVE SMOOTH",
"404 389 OFFCURVE",
"352.215 473 OFFCURVE",
"272 473 CURVE SMOOTH",
"173.361 473 OFFCURVE",
"127 376 OFFCURVE",
"127 255 CURVE SMOOTH",
"127 158 OFFCURVE",
"144 74 OFFCURVE",
"192 74 CURVE SMOOTH",
"238 74 OFFCURVE",
"247 139 OFFCURVE",
"247 178 CURVE SMOOTH",
"247 245.559 OFFCURVE",
"219 281 OFFCURVE",
"193 281 CURVE SMOOTH",
"150.143 281 OFFCURVE",
"130.143 235.032 OFFCURVE",
"133 167 CURVE",
"77 196 LINE",
"77 269.238 OFFCURVE",
"119.686 362 OFFCURVE",
"204 362 CURVE SMOOTH",
"276.722 362 OFFCURVE",
"343 296.688 OFFCURVE",
"343 174 CURVE SMOOTH",
"343 53 OFFCURVE",
"286.255 -24 OFFCURVE",
"192 -24 CURVE SMOOTH",
"87 -24 OFFCURVE",
"25 90 OFFCURVE"
);
},
{
closed = 1;
nodes = (
"374 84 LINE",
"474 99 LINE",
"597 99 LINE",
"597 1 LINE",
"375 1 LINE"
);
}
);
width = 621;
},
{
layerId = "E14DABE6-6E32-45CC-852E-073741854548";
name = Light;
paths = (
{
closed = 1;
nodes = (
"78 -20 OFFCURVE",
"30 86 OFFCURVE",
"30 237 CURVE SMOOTH",
"30 434 OFFCURVE",
"111 571 OFFCURVE",
"255 571 CURVE SMOOTH",
"369 571 OFFCURVE",
"463 475 OFFCURVE",
"463 280 CURVE SMOOTH",
"463 174 OFFCURVE",
"433 84 OFFCURVE",
"401 1 CURVE",
"367 34 LINE",
"381 63 OFFCURVE",
"420 169 OFFCURVE",
"420 281 CURVE SMOOTH",
"420 428 OFFCURVE",
"359 531 OFFCURVE",
"257 531 CURVE SMOOTH",
"138 531 OFFCURVE",
"71 407 OFFCURVE",
"71 238 CURVE SMOOTH",
"71 151 OFFCURVE",
"89 22 OFFCURVE",
"173 22 CURVE SMOOTH",
"231 22 OFFCURVE",
"264 84 OFFCURVE",
"264 172 CURVE SMOOTH",
"264 265 OFFCURVE",
"227 314 OFFCURVE",
"174 314 CURVE SMOOTH",
"108 314 OFFCURVE",
"71 236 OFFCURVE",
"78 148 CURVE",
"44 168 LINE",
"45 290 OFFCURVE",
"107 354 OFFCURVE",
"177 354 CURVE SMOOTH",
"244 354 OFFCURVE",
"304 291 OFFCURVE",
"304 171 CURVE SMOOTH",
"304 59 OFFCURVE",
"252 -20 OFFCURVE",
"171 -20 CURVE SMOOTH"
);
},
{
closed = 1;
nodes = (
"367 34 LINE",
"416 43 LINE",
"587 43 LINE",
"587 1 LINE",
"367 1 LINE"
);
}
);
width = 600;
}
);
unicode = 0BF3;
},
{
glyphname = tml_Month;
lastChange = "2015-12-24 03:58:14 +0000";
layers = (
{
components = (
{
name = tml_Ma;
}
);
layerId = "A6FF5082-DE18-4D2D-8E01-54AF1261B41D";
name = Bold;
paths = (
{
closed = 1;
nodes = (
"316 686 OFFCURVE",
"406 800 OFFCURVE",
"560 800 CURVE SMOOTH",
"687 800 OFFCURVE",
"753 724 OFFCURVE",
"753 640 CURVE SMOOTH",
"753 567 OFFCURVE",
"700 532 OFFCURVE",
"642 532 CURVE SMOOTH",
"583 532 OFFCURVE",
"531 567 OFFCURVE",
"531 640 CURVE SMOOTH",
"531 730 OFFCURVE",
"609 800 OFFCURVE",
"723 800 CURVE SMOOTH",
"823 800 OFFCURVE",
"914 740 OFFCURVE",
"895 644 CURVE",
"1021 644 LINE",
"1021 557 LINE",
"803 557 LINE",
"803 616 LINE",
"835 645 OFFCURVE",
"810 719 OFFCURVE",
"737 719 CURVE SMOOTH",
"666 719 OFFCURVE",
"609 699 OFFCURVE",
"609 642 CURVE SMOOTH",
"609 616 OFFCURVE",
"624 605 OFFCURVE",
"642 605 CURVE SMOOTH",
"659 605 OFFCURVE",
"675 615 OFFCURVE",
"675 642 CURVE SMOOTH",
"675 699 OFFCURVE",
"603 721 OFFCURVE",
"556 721 CURVE SMOOTH",
"493 721 OFFCURVE",
"410 681 OFFCURVE",
"450 550 CURVE",
"368 532 LINE"
);
}
);
width = 646;
},
{
layerId = "E14DABE6-6E32-45CC-852E-073741854548";
name = Light;
width = 600;
}
);
unicode = 0BF4;
},
{
glyphname = tml_MatraIi;
lastChange = "2015-11-24 00:05:41 +0000";
layers = (
{
anchors = (
{
name = _Anchor1;
position = "{205, 0}";
}
);
layerId = "A6FF5082-DE18-4D2D-8E01-54AF1261B41D";
name = Bold;
paths = (
{
closed = 1;
nodes = (
"18 666 CURVE SMOOTH",
"18.313 833.059 OFFCURVE",
"138.246 902.638 OFFCURVE",
"251 902 CURVE SMOOTH",
"353.021 901.423 OFFCURVE",
"401 829.815 OFFCURVE",
"401 738 CURVE SMOOTH",
"401 615.784 OFFCURVE",
"331 590.179 OFFCURVE",
"277 590.179 CURVE SMOOTH",
"208.999 590.179 OFFCURVE",
"152.671 628.895 OFFCURVE",
"152.196 728 CURVE SMOOTH",
"151.864 797.399 OFFCURVE",
"203 855 OFFCURVE",
"240 881 CURVE",
"276 806 LINE",
"250 806 OFFCURVE",
"234.017 767.833 OFFCURVE",
"234 736 CURVE SMOOTH",
"233.973 683.753 OFFCURVE",
"252.643 663.718 OFFCURVE",
"278 663.718 CURVE SMOOTH",
"304 663.718 OFFCURVE",
"317 693.185 OFFCURVE",
"317 738 CURVE SMOOTH",
"317 764 OFFCURVE",
"310.667 805.967 OFFCURVE",
"275 806 CURVE SMOOTH",
"178.753 806.09 OFFCURVE",
"121.673 762.704 OFFCURVE",
"122 665 CURVE SMOOTH",
"122.217 600.278 OFFCURVE",
"153 561 OFFCURVE",
"197 560 CURVE SMOOTH",
"197 467 LINE SMOOTH",
"130 467 OFFCURVE",
"17.724 518.885 OFFCURVE"
);
}
);
width = 419;
},
{
layerId = "E14DABE6-6E32-45CC-852E-073741854548";
name = Light;
width = 600;
}
);
unicode = 0BC0;
},
{
glyphname = tml_Virama;
lastChange = "2015-11-24 00:05:41 +0000";
layers = (
{
anchors = (
{
name = _Anchor0;
position = "{0, 0}";
},
{
name = _tml_virama;
position = "{0, -19}";
}
);
layerId = "A6FF5082-DE18-4D2D-8E01-54AF1261B41D";
name = Bold;
paths = (
{
closed = 1;
nodes = (
"-63 680 CURVE SMOOTH",
"-63 714 OFFCURVE",
"-34 743 OFFCURVE",
"0 743 CURVE SMOOTH",
"34 743 OFFCURVE",
"63 714 OFFCURVE",
"63 680 CURVE SMOOTH",
"63 646 OFFCURVE",
"34 617 OFFCURVE",
"0 617 CURVE SMOOTH",
"-34 617 OFFCURVE",
"-63 646 OFFCURVE"
);
}
);
width = 0;
},
{
layerId = "E14DABE6-6E32-45CC-852E-073741854548";
name = Light;
width = 600;
}
);
unicode = 0BCD;
},
{
glyphname = tml_MatraAa;
lastChange = "2015-11-24 00:04:40 +0000";
layers = (
{
anchors = (
{
name = Anchor0;
position = "{273, 0}";
},
{
name = Anchor1;
position = "{122, 0}";
}
);
layerId = "A6FF5082-DE18-4D2D-8E01-54AF1261B41D";
name = Bold;
paths = (
{
closed = 1;
nodes = (
"71 1 LINE",
"71 560 LINE",
"550 560 LINE",
"550 462 LINE",
"447 462 LINE",
"447 1 LINE",
"339 1 LINE",
"339 462 LINE",
"178 462 LINE",
"178 1 LINE"
);
}
);
width = 560;
},
{
layerId = "E14DABE6-6E32-45CC-852E-073741854548";
name = Light;
width = 600;
}
);
unicode = 0BBE;
},
{
glyphname = tml_MatraI;
lastChange = "2015-11-24 00:05:41 +0000";
layers = (
{
layerId = "A6FF5082-DE18-4D2D-8E01-54AF1261B41D";
name = Bold;
paths = (
{
closed = 1;
nodes = (
"-236.039 550 LINE SMOOTH",
"-191.013 702.778 OFFCURVE",
"-95.807 745.244 OFFCURVE",
"-14 746 CURVE SMOOTH",
"137.081 747 OFFCURVE",
"216.177 658.997 OFFCURVE",
"217 479 CURVE SMOOTH",
"219 0 LINE SMOOTH",
"111 0 LINE SMOOTH",
"110 479 LINE SMOOTH",
"109.743 583 OFFCURVE",
"78 638 OFFCURVE",
"-18 638 CURVE SMOOTH",
"-74.737 638 OFFCURVE",
"-136.433 607.845 OFFCURVE",
"-160.697 503 CURVE SMOOTH"
);
}
);
width = 269;
},
{
layerId = "E14DABE6-6E32-45CC-852E-073741854548";
name = Light;
width = 600;
}
);
unicode = 0BBF;
},
{
glyphname = tml_MatraU;
lastChange = "2015-11-24 00:05:41 +0000";
layers = (
{
layerId = "A6FF5082-DE18-4D2D-8E01-54AF1261B41D";
name = Bold;
paths = (
{
closed = 1;
nodes = (
"197 560 CURVE SMOOTH",
"-161 560 LINE",
"-161 462 LINE",
"205 462 LINE SMOOTH",
"219 462 OFFCURVE",
"248 448 OFFCURVE",
"248 385 CURVE SMOOTH",
"248 348 OFFCURVE",
"238 307 OFFCURVE",
"206 307 CURVE SMOOTH",
"173 307 OFFCURVE",
"162 350 OFFCURVE",
"162 383 CURVE SMOOTH",
"162 419 OFFCURVE",
"175 462 OFFCURVE",
"207 462 CURVE",
"212 522 LINE",
"122 522 OFFCURVE",
"63 472 OFFCURVE",
"63 373 CURVE SMOOTH",
"63 282 OFFCURVE",
"112 211 OFFCURVE",
"211 211 CURVE SMOOTH",
"303 211 OFFCURVE",
"358 272 OFFCURVE",
"358 385 CURVE SMOOTH",
"358 529 OFFCURVE",
"268 560 OFFCURVE"
);
}
);
width = 388;
},
{
layerId = "E14DABE6-6E32-45CC-852E-073741854548";
name = Light;
width = 600;
}
);
unicode = 0BC1;
},
{
glyphname = tml_MatraUu;
lastChange = "2015-11-24 00:05:41 +0000";
layers = (
{
layerId = "A6FF5082-DE18-4D2D-8E01-54AF1261B41D";
name = Bold;
paths = (
{
closed = 1;
nodes = (
"181 550 CURVE",
"140 560 LINE",
"-146 560 LINE",
"-146 462 LINE",
"168 462 LINE SMOOTH",
"224 462 OFFCURVE",
"247 433 OFFCURVE",
"247 385 CURVE SMOOTH",
"247 344 OFFCURVE",
"232 316 OFFCURVE",
"206 316 CURVE SMOOTH",
"170 316 OFFCURVE",
"149 351 OFFCURVE",
"149 392 CURVE SMOOTH",
"149 470 OFFCURVE",
"203 562 OFFCURVE",
"290 562 CURVE SMOOTH",
"366 562 OFFCURVE",
"420 491 OFFCURVE",
"420 402 CURVE SMOOTH",
"420 315 OFFCURVE",
"369 230 OFFCURVE",
"369 230 CURVE",
"451 196 LINE",
"451 196 OFFCURVE",
"510 296 OFFCURVE",
"510 414 CURVE SMOOTH",
"510 523 OFFCURVE",
"445 645 OFFCURVE",
"287 645 CURVE SMOOTH",
"144 645 OFFCURVE",
"49 538 OFFCURVE",
"49 397 CURVE SMOOTH",
"49 293 OFFCURVE",
"100 218 OFFCURVE",
"205 218 CURVE SMOOTH",
"297 218 OFFCURVE",
"354 276 OFFCURVE",
"354 385 CURVE SMOOTH",
"354 526 OFFCURVE",
"228 550 OFFCURVE"
);
}
);
width = 549;
},
{
layerId = "E14DABE6-6E32-45CC-852E-073741854548";
name = Light;
width = 600;
}
);
unicode = 0BC2;
},
{
color = 0;
glyphname = tml_MatraE;
lastChange = "2015-12-21 14:04:01 +0000";
layers = (
{
layerId = "A6FF5082-DE18-4D2D-8E01-54AF1261B41D";
name = Bold;
paths = (
{
closed = 1;
nodes = (
"28 347 CURVE SMOOTH",
"28 659 OFFCURVE",
"172 805 OFFCURVE",
"337 806 CURVE SMOOTH",
"482 807 OFFCURVE",
"574 729 OFFCURVE",
"575 459 CURVE SMOOTH",
"577 0 LINE",
"469 0 LINE",
"468 457 LINE SMOOTH",
"468 661 OFFCURVE",
"397 698 OFFCURVE",
"333 698 CURVE SMOOTH",
"227 698 OFFCURVE",
"134 573 OFFCURVE",
"134 382 CURVE SMOOTH",
"134 332 OFFCURVE",
"141 302 OFFCURVE",
"143 180 CURVE SMOOTH",
"144 130 OFFCURVE",
"157 69 OFFCURVE",
"198 69 CURVE SMOOTH",
"240 69 OFFCURVE",
"252 125 OFFCURVE",
"252 183 CURVE SMOOTH",
"252 251 OFFCURVE",
"236 302 OFFCURVE",
"200 302 CURVE SMOOTH",
"167 302 OFFCURVE",
"143 260 OFFCURVE",
"143 181 CURVE",
"74 232 LINE",
"74 294 OFFCURVE",
"110 402 OFFCURVE",
"206 402 CURVE SMOOTH",
"301 402 OFFCURVE",
"350 305 OFFCURVE",
"350 175 CURVE SMOOTH",
"350 50 OFFCURVE",
"293 -29 OFFCURVE",
"198 -29 CURVE SMOOTH",
"70 -29 OFFCURVE",
"28 117 OFFCURVE"
);
}
);
width = 611;
},
{
layerId = "E14DABE6-6E32-45CC-852E-073741854548";
name = Light;
paths = (
{
closed = 1;
nodes = (
"87 12 OFFCURVE",
"194 12 CURVE SMOOTH",
"262 12 OFFCURVE",
"287 95 OFFCURVE",
"287 180 CURVE SMOOTH",
"287 265 OFFCURVE",
"262 358 OFFCURVE",
"188 358 CURVE SMOOTH",
"111 358 OFFCURVE",
"72 258 OFFCURVE",
"90 140 CURVE",
"54 182 LINE",
"48 330 OFFCURVE",
"109 399 OFFCURVE",
"188 399 CURVE SMOOTH",
"277 399 OFFCURVE",
"327 311 OFFCURVE",
"327 187 CURVE SMOOTH",
"327 73 OFFCURVE",
"285 -30 OFFCURVE",
"192 -30 CURVE SMOOTH",
"48 -30 OFFCURVE",
"30 221 OFFCURVE",
"30 350 CURVE SMOOTH",
"30 568 OFFCURVE",
"117 807 OFFCURVE",
"338 807 CURVE SMOOTH",
"540 807 OFFCURVE",
"537 546 OFFCURVE",
"537 395 CURVE SMOOTH",
"537 0 LINE",
"495 0 LINE",
"494 384 LINE",
"494 564 OFFCURVE",
"488 763 OFFCURVE",
"334 763 CURVE SMOOTH",
"170 763 OFFCURVE",
"72 593 OFFCURVE",
"72 343 CURVE SMOOTH",
"72 220 OFFCURVE"
);
}
);
width = 600;
}
);
unicode = 0BC6;
},
{
color = 0;
glyphname = tml_MatraEe;
lastChange = "2015-12-21 20:30:32 +0000";
layers = (
{
layerId = "A6FF5082-DE18-4D2D-8E01-54AF1261B41D";
name = Bold;
paths = (
{
closed = 1;
nodes = (
"294 69 CURVE SMOOTH",
"337 69 OFFCURVE",
"344 133 OFFCURVE",
"344 168 CURVE SMOOTH",
"344 238 OFFCURVE",
"322 271 OFFCURVE",
"294 271 CURVE SMOOTH",
"268 271 OFFCURVE",
"247 227 OFFCURVE",
"247 168 CURVE SMOOTH",
"247 141 OFFCURVE",
"256 70 OFFCURVE",
"293 70 CURVE",
"254 22 LINE",
"254 22 OFFCURVE",
"171 78.087 OFFCURVE",
"171 180 CURVE SMOOTH",
"171 310.812 OFFCURVE",
"230.958 367 OFFCURVE",
"300 367 CURVE SMOOTH",
"369 367 OFFCURVE",
"448 309 OFFCURVE",
"448 168 CURVE SMOOTH",
"448 53.142 OFFCURVE",
"389 -19 OFFCURVE",
"290 -19 CURVE SMOOTH",
"89.077 -19 OFFCURVE",
"20 175.103 OFFCURVE",
"20 378 CURVE SMOOTH",
"20 623 OFFCURVE",
"119.707 807 OFFCURVE",
"289 807 CURVE SMOOTH",
"387 807 OFFCURVE",
"448 728 OFFCURVE",
"448 607 CURVE SMOOTH",
"448 466 OFFCURVE",
"367.629 411 OFFCURVE",
"300 411 CURVE SMOOTH",
"219.585 411 OFFCURVE",
"165 484.909 OFFCURVE",
"165 571 CURVE SMOOTH",
"165 699.157 OFFCURVE",
"239 741 OFFCURVE",
"239 741 CURVE",
"295 709 LINE",
"295 709 OFFCURVE",
"244 711 OFFCURVE",
"244 607 CURVE SMOOTH",
"244 544 OFFCURVE",
"274 511 OFFCURVE",
"296 511 CURVE SMOOTH",
"322 511 OFFCURVE",
"348 543 OFFCURVE",
"348 604 CURVE SMOOTH",
"348 643 OFFCURVE",
"340.444 708 OFFCURVE",
"297 708 CURVE SMOOTH",
"193.472 708 OFFCURVE",
"122 580.418 OFFCURVE",
"122 379 CURVE SMOOTH",
"122 215.602 OFFCURVE",
"165.185 69 OFFCURVE"
);
}
);
width = 488;
},
{
layerId = "E14DABE6-6E32-45CC-852E-073741854548";
name = Light;
paths = (
{
closed = 1;
nodes = (
"62 165 OFFCURVE",
"152 21 OFFCURVE",
"296 21 CURVE SMOOTH",
"359 21 OFFCURVE",
"378 101 OFFCURVE",
"378 152 CURVE SMOOTH",
"378 251 OFFCURVE",
"343 301 OFFCURVE",
"297 301 CURVE SMOOTH",
"249 301 OFFCURVE",
"211 262 OFFCURVE",
"213 152 CURVE SMOOTH",
"214 82 OFFCURVE",
"246 21 OFFCURVE",
"296 21 CURVE",
"296 -1 LINE",
"218 1 OFFCURVE",
"175 58 OFFCURVE",
"171 157 CURVE SMOOTH",
"167 263 OFFCURVE",
"213 343 OFFCURVE",
"296 343 CURVE SMOOTH",
"367 343 OFFCURVE",
"418 277 OFFCURVE",
"418 159 CURVE SMOOTH",
"418 68 OFFCURVE",
"390 -18 OFFCURVE",
"289 -18 CURVE SMOOTH",
"150 -18 OFFCURVE",
"20 99 OFFCURVE",
"20 394 CURVE SMOOTH",
"20 659 OFFCURVE",
"150 806 OFFCURVE",
"289 806 CURVE SMOOTH",
"392 806 OFFCURVE",
"418 716 OFFCURVE",
"418 629 CURVE SMOOTH",
"418 511 OFFCURVE",
"367 445 OFFCURVE",
"296 445 CURVE SMOOTH",
"213 445 OFFCURVE",
"167 523 OFFCURVE",
"171 629 CURVE SMOOTH",
"175 738 OFFCURVE",
"218 787 OFFCURVE",
"296 789 CURVE",
"296 767 LINE",
"236 767 OFFCURVE",
"214 698 OFFCURVE",
"213 636 CURVE SMOOTH",
"211 532 OFFCURVE",
"249 487 OFFCURVE",
"297 487 CURVE SMOOTH",
"343 487 OFFCURVE",
"378 536 OFFCURVE",
"378 636 CURVE SMOOTH",
"378 697 OFFCURVE",
"359 767 OFFCURVE",
"296 767 CURVE SMOOTH",
"152 767 OFFCURVE",
"62 593 OFFCURVE",
"62 394 CURVE SMOOTH"
);
}
);
width = 488;
}
);
unicode = 0BC7;
},
{
color = 0;
glyphname = tml_MatraAi;
lastChange = "2015-12-21 20:49:23 +0000";
layers = (
{
layerId = "A6FF5082-DE18-4D2D-8E01-54AF1261B41D";
name = Bold;
paths = (
{
closed = 1;
nodes = (
"887 0 OFFCURVE",
"956 94 OFFCURVE",
"956 247 CURVE SMOOTH",
"956 495 OFFCURVE",
"831 572 OFFCURVE",
"689 572 CURVE SMOOTH",
"471 572 OFFCURVE",
"370 401 OFFCURVE",
"370 206 CURVE SMOOTH",
"370 57 OFFCURVE",
"434 -23 OFFCURVE",
"528 -23 CURVE SMOOTH",
"620 -23 OFFCURVE",
"688 52 OFFCURVE",
"688 200 CURVE SMOOTH",
"688 510 OFFCURVE",
"449 570 OFFCURVE",
"341 570 CURVE SMOOTH",
"212 570 OFFCURVE",
"30 483 OFFCURVE",
"30 236 CURVE SMOOTH",
"30 91 OFFCURVE",
"92 -24 OFFCURVE",
"201 -24 CURVE SMOOTH",
"288 -24 OFFCURVE",
"348 50 OFFCURVE",
"348 171 CURVE SMOOTH",
"348 298 OFFCURVE",
"282 362 OFFCURVE",
"210 362 CURVE SMOOTH",
"124 362 OFFCURVE",
"82 269 OFFCURVE",
"82 196 CURVE",
"135 167 LINE",
"131 234 OFFCURVE",
"158 281 OFFCURVE",
"195 281 CURVE SMOOTH",
"230 281 OFFCURVE",
"252 238 OFFCURVE",
"252 179 CURVE SMOOTH",
"252 139 OFFCURVE",
"242 64 OFFCURVE",
"199 64 CURVE SMOOTH",
"140 64 OFFCURVE",
"132 165 OFFCURVE",
"132 233 CURVE SMOOTH",
"132 418 OFFCURVE",
"258 473 OFFCURVE",
"332 474 CURVE SMOOTH",
"455 476 OFFCURVE",
"580 397 OFFCURVE",
"580 194 CURVE SMOOTH",
"580 124 OFFCURVE",
"567 65 OFFCURVE",
"528 65 CURVE SMOOTH",
"492 65 OFFCURVE",
"475 123 OFFCURVE",
"475 199 CURVE SMOOTH",
"475 327 OFFCURVE",
"524 474 OFFCURVE",
"689 474 CURVE SMOOTH",
"785 474 OFFCURVE",
"848 394 OFFCURVE",
"848 249 CURVE SMOOTH",
"848 177 OFFCURVE",
"814 92 OFFCURVE",
"746 86 CURVE",
"760 -16 LINE"
);
}
);
width = 996;
},
{
layerId = "E14DABE6-6E32-45CC-852E-073741854548";
name = Light;
paths = (
{
closed = 1;
nodes = (
"797 568 OFFCURVE",
"942 494 OFFCURVE",
"936 257 CURVE SMOOTH",
"932 90 OFFCURVE",
"864 0 OFFCURVE",
"762 -16 CURVE",
"755 24 LINE",
"809 36 OFFCURVE",
"894 96 OFFCURVE",
"894 266 CURVE SMOOTH",
"894 437 OFFCURVE",
"802 528 OFFCURVE",
"659 528 CURVE SMOOTH",
"486 528 OFFCURVE",
"416 388 OFFCURVE",
"416 214 CURVE SMOOTH",
"416 115 OFFCURVE",
"447 19 OFFCURVE",
"526 19 CURVE SMOOTH",
"604 19 OFFCURVE",
"632 115 OFFCURVE",
"632 214 CURVE SMOOTH",
"632 455 OFFCURVE",
"470 528 OFFCURVE",
"347 528 CURVE SMOOTH",
"205 528 OFFCURVE",
"91 407 OFFCURVE",
"91 238 CURVE SMOOTH",
"91 151 OFFCURVE",
"109 22 OFFCURVE",
"193 22 CURVE SMOOTH",
"251 22 OFFCURVE",
"284 84 OFFCURVE",
"284 172 CURVE SMOOTH",
"284 265 OFFCURVE",
"247 314 OFFCURVE",
"194 314 CURVE SMOOTH",
"128 314 OFFCURVE",
"91 236 OFFCURVE",
"98 148 CURVE",
"64 168 LINE",
"65 290 OFFCURVE",
"127 354 OFFCURVE",
"197 354 CURVE SMOOTH",
"264 354 OFFCURVE",
"324 291 OFFCURVE",
"324 171 CURVE SMOOTH",
"324 59 OFFCURVE",
"272 -20 OFFCURVE",
"191 -20 CURVE SMOOTH",
"98 -20 OFFCURVE",
"50 86 OFFCURVE",
"50 237 CURVE SMOOTH",
"50 434 OFFCURVE",
"172 569 OFFCURVE",
"348 569 CURVE SMOOTH",
"503 569 OFFCURVE",
"674 470 OFFCURVE",
"674 214 CURVE SMOOTH",
"674 73 OFFCURVE",
"631 -23 OFFCURVE",
"526 -23 CURVE SMOOTH",
"424 -23 OFFCURVE",
"374 75 OFFCURVE",
"374 214 CURVE SMOOTH",
"374 425 OFFCURVE",
"468 568 OFFCURVE",
"660 568 CURVE SMOOTH"
);
}
);
width = 966;
}
);
unicode = 0BC8;
},
{
glyphname = tml_CUu;
lastChange = "2015-12-25 12:09:00 +0000";
layers = (
{
components = (
{
name = tml_Ca;
transform = "{1, 0, 0, 1, 202, 0}";
}
);
layerId = "A6FF5082-DE18-4D2D-8E01-54AF1261B41D";
name = Bold;
paths = (
{
closed = 1;
nodes = (
"518 -274 CURVE SMOOTH",
"233 -273 OFFCURVE",
"31 -83 OFFCURVE",
"30 228 CURVE SMOOTH",
"29 369 OFFCURVE",
"80 478 OFFCURVE",
"138 573 CURVE",
"227 528 LINE",
"171 435 OFFCURVE",
"134 351 OFFCURVE",
"134 228 CURVE SMOOTH",
"134 -16 OFFCURVE",
"290 -171 OFFCURVE",
"519 -170 CURVE SMOOTH",
"747 -169 OFFCURVE",
"842 -68 OFFCURVE",
"842 15 CURVE SMOOTH",
"842 54 OFFCURVE",
"824 88 OFFCURVE",
"799 88 CURVE SMOOTH",
"763 88 OFFCURVE",
"763 49 OFFCURVE",
"763 25 CURVE",
"714 56 LINE SMOOTH",
"714 129 OFFCURVE",
"762 179 OFFCURVE",
"826 179 CURVE SMOOTH",
"895 179 OFFCURVE",
"944 108 OFFCURVE",
"944 12 CURVE SMOOTH",
"944 -116 OFFCURVE",
"825 -275 OFFCURVE"
);
},
{
closed = 1;
nodes = (
"763 252 LINE",
"763 0 LINE SMOOTH",
"667 0 LINE",
"667 252 LINE"
);
},
{
closed = 1;
nodes = (
"813 341 LINE",
"813 244 LINE SMOOTH",
"717 244 LINE",
"717 341 LINE"
);
}
);
width = 974;
},
{
components = (
{
name = tml_Ca;
transform = "{1, 0, 0, 1, 202, 0}";
}
);
layerId = "E14DABE6-6E32-45CC-852E-073741854548";
name = Light;
paths = (
{
closed = 1;
nodes = (
"525 -274 CURVE SMOOTH",
"240 -273 OFFCURVE",
"59 -94 OFFCURVE",
"58 217 CURVE SMOOTH",
"57 358 OFFCURVE",
"101 482 OFFCURVE",
"162 564 CURVE",
"200 545 LINE",
"146 474 OFFCURVE",
"101 352 OFFCURVE",
"101 218 CURVE SMOOTH",
"101 -30 OFFCURVE",
"236 -232 OFFCURVE",
"525 -232 CURVE SMOOTH",
"753 -232 OFFCURVE",
"860 -88 OFFCURVE",
"860 25 CURVE SMOOTH",
"860 92 OFFCURVE",
"836 137 OFFCURVE",
"789 137 CURVE SMOOTH",
"722 137 OFFCURVE",
"726 49 OFFCURVE",
"726 25 CURVE",
"693 55 LINE",
"693 118 OFFCURVE",
"725 179 OFFCURVE",
"789 179 CURVE SMOOTH",
"858 179 OFFCURVE",
"902 121 OFFCURVE",
"902 22 CURVE SMOOTH",
"902 -126 OFFCURVE",
"765 -275 OFFCURVE"
);
},
{
closed = 1;
nodes = (
"726 307 LINE",
"726 0 LINE SMOOTH",
"684 0 LINE",
"684 307 LINE"
);
},
{
closed = 1;
nodes = (
"810 341 LINE",
"810 299 LINE SMOOTH",
"714 299 LINE",
"714 341 LINE"
);
}
);
width = 974;
}
);
},
{
glyphname = tml_CU;
lastChange = "2015-12-25 12:09:38 +0000";
layers = (
{
components = (
{
name = tml_Ca;
}
);
layerId = "A6FF5082-DE18-4D2D-8E01-54AF1261B41D";
name = Bold;
paths = (
{
closed = 1;
nodes = (
"561 252 LINE",
"561 0 LINE SMOOTH",
"465 0 LINE",
"465 252 LINE"
);
},
{
closed = 1;
nodes = (
"611 341 LINE",
"611 244 LINE SMOOTH",
"515 244 LINE",
"515 341 LINE"
);
}
);
width = 641;
},
{
components = (
{
name = tml_Ca;
}
);
layerId = "E14DABE6-6E32-45CC-852E-073741854548";
name = Light;
paths = (
{
closed = 1;
nodes = (
"524 307 LINE",
"524 0 LINE SMOOTH",
"482 0 LINE",
"482 307 LINE"
);
},
{
closed = 1;
nodes = (
"608 341 LINE",
"608 299 LINE SMOOTH",
"512 299 LINE",
"512 341 LINE"
);
}
);
width = 638;
}
);
},
{
glyphname = tml_KSsa;
lastChange = "2015-12-25 12:12:39 +0000";
layers = (
{
components = (
{
name = tml_Ca;
}
);
layerId = "A6FF5082-DE18-4D2D-8E01-54AF1261B41D";
name = Bold;
paths = (
{
closed = 1;
nodes = (
"566 -24 OFFCURVE",
"504 90 OFFCURVE",
"504 245 CURVE SMOOTH",
"504 448 OFFCURVE",
"597 573 OFFCURVE",
"753 573 CURVE SMOOTH",
"888 573 OFFCURVE",
"982 452 OFFCURVE",
"982 279 CURVE SMOOTH",
"982 144 OFFCURVE",
"941 59 OFFCURVE",
"941 59 CURVE",
"852 81 LINE",
"870 121 OFFCURVE",
"883 182 OFFCURVE",
"883 263 CURVE SMOOTH",
"883 389 OFFCURVE",
"832 476 OFFCURVE",
"753 476 CURVE SMOOTH",
"653 476 OFFCURVE",
"606 376 OFFCURVE",
"606 255 CURVE SMOOTH",
"606 158 OFFCURVE",
"623 74 OFFCURVE",
"671 74 CURVE SMOOTH",
"717 74 OFFCURVE",
"726 139 OFFCURVE",
"726 178 CURVE SMOOTH",
"726 246 OFFCURVE",
"698 281 OFFCURVE",
"672 281 CURVE SMOOTH",
"629 281 OFFCURVE",
"609 235 OFFCURVE",
"612 167 CURVE",
"528 216 LINE",
"528 272 OFFCURVE",
"588 362 OFFCURVE",
"673 362 CURVE SMOOTH",
"754 362 OFFCURVE",
"828 297 OFFCURVE",
"828 174 CURVE SMOOTH",
"828 53 OFFCURVE",
"769 -24 OFFCURVE",
"671 -24 CURVE SMOOTH"
);
},
{
closed = 1;
nodes = (
"852 0 LINE",
"852 81 LINE",
"959 99 LINE",
"1374 99 LINE",
"1374 473 LINE",
"1481 473 LINE",
"1481 0 LINE"
);
},
{
closed = 1;
nodes = (
"1296 -146 LINE",
"1189 -146 LINE",
"1189 428 LINE SMOOTH",
"1189 450 OFFCURVE",
"1183 475 OFFCURVE",
"1158 475 CURVE SMOOTH",
"1135 475 OFFCURVE",
"1116 452 OFFCURVE",
"1116 401 CURVE SMOOTH",
"1116 360 OFFCURVE",
"1128 256 OFFCURVE",
"1246 256 CURVE SMOOTH",
"1352 256 OFFCURVE",
"1373 308 OFFCURVE",
"1374 379 CURVE SMOOTH",
"1429 376 LINE SMOOTH",
"1429 271 OFFCURVE",
"1402 155 OFFCURVE",
"1242 155 CURVE SMOOTH",
"1124 155 OFFCURVE",
"1015 240 OFFCURVE",
"1013 410 CURVE SMOOTH",
"1012 514 OFFCURVE",
"1079 573 OFFCURVE",
"1154 573 CURVE SMOOTH",
"1277 573 OFFCURVE",
"1297 483 OFFCURVE",
"1296 418 CURVE SMOOTH"
);
}
);
width = 1511;
},
{
components = (
{
name = tml_Ca;
}
);
layerId = "E14DABE6-6E32-45CC-852E-073741854548";
name = Light;
paths = (
{
closed = 1;
nodes = (
"548 -20 OFFCURVE",
"500 86 OFFCURVE",
"500 237 CURVE SMOOTH",
"500 434 OFFCURVE",
"581 571 OFFCURVE",
"725 571 CURVE SMOOTH",
"839 571 OFFCURVE",
"933 475 OFFCURVE",
"933 280 CURVE SMOOTH",
"933 174 OFFCURVE",
"903 84 OFFCURVE",
"871 1 CURVE",
"837 34 LINE",
"851 63 OFFCURVE",
"890 169 OFFCURVE",
"890 281 CURVE SMOOTH",
"890 428 OFFCURVE",
"829 531 OFFCURVE",
"727 531 CURVE SMOOTH",
"608 531 OFFCURVE",
"541 407 OFFCURVE",
"541 238 CURVE SMOOTH",
"541 151 OFFCURVE",
"559 22 OFFCURVE",
"643 22 CURVE SMOOTH",
"701 22 OFFCURVE",
"734 84 OFFCURVE",
"734 172 CURVE SMOOTH",
"734 265 OFFCURVE",
"697 314 OFFCURVE",
"644 314 CURVE SMOOTH",
"578 314 OFFCURVE",
"541 236 OFFCURVE",
"548 148 CURVE",
"514 168 LINE",
"515 290 OFFCURVE",
"577 354 OFFCURVE",
"647 354 CURVE SMOOTH",
"714 354 OFFCURVE",
"774 291 OFFCURVE",
"774 171 CURVE SMOOTH",
"774 59 OFFCURVE",
"722 -20 OFFCURVE",
"641 -20 CURVE SMOOTH"
);
},
{
closed = 1;
nodes = (
"837 34 LINE",
"886 43 LINE",
"1330 43 LINE",
"1330 472 LINE",
"1372 472 LINE",
"1372 1 LINE",
"837 1 LINE"
);
},
{
closed = 1;
nodes = (
"1227 -146 LINE",
"1185 -146 LINE",
"1185 438 LINE SMOOTH",
"1185 491 OFFCURVE",
"1162 531 OFFCURVE",
"1117 531 CURVE SMOOTH",
"1034 531 OFFCURVE",
"1011 456 OFFCURVE",
"1011 400 CURVE SMOOTH",
"1011 299 OFFCURVE",
"1080 197 OFFCURVE",
"1198 197 CURVE SMOOTH",
"1304 197 OFFCURVE",
"1329 298 OFFCURVE",
"1330 379 CURVE",
"1367 376 LINE",
"1367 271 OFFCURVE",
"1338 155 OFFCURVE",
"1198 155 CURVE SMOOTH",
"1080 155 OFFCURVE",
"971 240 OFFCURVE",
"969 410 CURVE SMOOTH",
"968 507 OFFCURVE",
"1035 573 OFFCURVE",
"1110 573 CURVE SMOOTH",
"1227 573 OFFCURVE",
"1227 463 OFFCURVE",
"1227 438 CURVE SMOOTH"
);
}
);
width = 1402;
}
);
},
{
glyphname = tml_KU;
lastChange = "2015-12-25 12:22:20 +0000";
layers = (
{
layerId = "A6FF5082-DE18-4D2D-8E01-54AF1261B41D";
name = Bold;
paths = (
{
closed = 1;
nodes = (
"199 -274 OFFCURVE",
"31 -104 OFFCURVE",
"30 121 CURVE SMOOTH",
"29 262 OFFCURVE",
"80 372 OFFCURVE",
"138 466 CURVE",
"227 421 LINE",
"170 328 OFFCURVE",
"134 244 OFFCURVE",
"134 121 CURVE SMOOTH",
"134 -77 OFFCURVE",
"292 -177 OFFCURVE",
"447 -177 CURVE SMOOTH",
"625 -177 OFFCURVE",
"728 -68 OFFCURVE",
"728 87 CURVE SMOOTH",
"728 184 OFFCURVE",
"679 241 OFFCURVE",
"607 242 CURVE SMOOTH",
"411 244 LINE SMOOTH",
"358 245 OFFCURVE",
"329 212 OFFCURVE",
"329 167 CURVE SMOOTH",
"329 124 OFFCURVE",
"363 89 OFFCURVE",
"414 89 CURVE SMOOTH",
"469 89 OFFCURVE",
"507 130 OFFCURVE",
"507 207 CURVE SMOOTH",
"507 289 LINE",
"517 301 LINE",
"517 461 LINE",
"422 461 LINE",
"422 309 LINE",
"338 309 LINE",
"338 560 LINE",
"717 560 LINE",
"717 461 LINE",
"614 461 LINE",
"614 207 LINE SMOOTH",
"614 103 OFFCURVE",
"574 -9 OFFCURVE",
"416 -9 CURVE SMOOTH",
"281 -9 OFFCURVE",
"229 75 OFFCURVE",
"229 172 CURVE SMOOTH",
"229 271 OFFCURVE",
"291 341 OFFCURVE",
"409 341 CURVE SMOOTH",
"610 341 LINE SMOOTH",
"749 341 OFFCURVE",
"823 226 OFFCURVE",
"823 87 CURVE SMOOTH",
"823 -116 OFFCURVE",
"709 -274 OFFCURVE",
"447 -274 CURVE SMOOTH"
);
}
);
width = 853;
},
{
layerId = "E14DABE6-6E32-45CC-852E-073741854548";
name = Light;
paths = (
{
closed = 1;
nodes = (
"398 299 LINE SMOOTH",
"311 299 OFFCURVE",
"269 248 OFFCURVE",
"269 177 CURVE SMOOTH",
"269 96 OFFCURVE",
"325 43 OFFCURVE",
"406 43 CURVE SMOOTH",
"479 43 OFFCURVE",
"544 86 OFFCURVE",
"544 207 CURVE SMOOTH",
"544 289 LINE",
"544 301 LINE",
"544 518 LINE",
"388 518 LINE",
"388 309 LINE",
"346 309 LINE",
"346 560 LINE",
"709 560 LINE",
"709 518 LINE",
"586 518 LINE",
"586 207 LINE SMOOTH",
"586 104 OFFCURVE",
"545 1 OFFCURVE",
"410 1 CURVE SMOOTH",
"301 1 OFFCURVE",
"230 68 OFFCURVE",
"227 175 CURVE SMOOTH",
"224 272 OFFCURVE",
"283 341 OFFCURVE",
"380 341 CURVE SMOOTH",
"609 341 LINE",
"709 341 OFFCURVE",
"831 270 OFFCURVE",
"822 73 CURVE SMOOTH",
"810 -179 OFFCURVE",
"639 -274 OFFCURVE",
"447 -274 CURVE SMOOTH",
"223 -274 OFFCURVE",
"44 -112 OFFCURVE",
"44 129 CURVE SMOOTH",
"44 273 OFFCURVE",
"94 380 OFFCURVE",
"158 457 CURVE",
"196 438 LINE",
"137 367 OFFCURVE",
"84 270 OFFCURVE",
"86 129 CURVE SMOOTH",
"89 -80 OFFCURVE",
"248 -232 OFFCURVE",
"447 -232 CURVE SMOOTH",
"631 -232 OFFCURVE",
"780 -122 OFFCURVE",
"780 73 CURVE SMOOTH",
"780 250 OFFCURVE",
"706 299 OFFCURVE",
"599 299 CURVE"
);
}
);
width = 850;
}
);
},
{
glyphname = tml_KUu;
lastChange = "2015-12-25 12:48:27 +0000";
layers = (
{
components = (
{
name = tml_Ca;
}
);
layerId = "A6FF5082-DE18-4D2D-8E01-54AF1261B41D";
name = Bold;
paths = (
{
closed = 1;
nodes = (
"551 -24 OFFCURVE",
"489 75 OFFCURVE",
"489 241 CURVE SMOOTH",
"489 432 OFFCURVE",
"582 570 OFFCURVE",
"736 570 CURVE SMOOTH",
"875 570 OFFCURVE",
"971 458 OFFCURVE",
"971 272 CURVE SMOOTH",
"971 155 OFFCURVE",
"929 72 OFFCURVE",
"923 59 CURVE",
"838 84 LINE",
"855 121 OFFCURVE",
"868 183 OFFCURVE",
"868 251 CURVE SMOOTH",
"868 398 OFFCURVE",
"818 473 OFFCURVE",
"734 473 CURVE SMOOTH",
"634 473 OFFCURVE",
"586 359 OFFCURVE",
"586 239 CURVE SMOOTH",
"586 142 OFFCURVE",
"609 74 OFFCURVE",
"663 74 CURVE SMOOTH",
"707 74 OFFCURVE",
"711 120 OFFCURVE",
"711 140 CURVE SMOOTH",
"711 208 OFFCURVE",
"673 244 OFFCURVE",
"587 244 CURVE",
"493 244 LINE",
"493 341 LINE",
"598 341 LINE",
"721 341 OFFCURVE",
"807 264 OFFCURVE",
"807 151 CURVE SMOOTH",
"807 55 OFFCURVE",
"750 -24 OFFCURVE",
"656 -24 CURVE SMOOTH"
);
},
{
closed = 1;
nodes = (
"838 84 LINE",
"938 99 LINE",
"1070 99 LINE",
"1070 1 LINE",
"839 1 LINE"
);
}
);
width = 1100;
},
{
components = (
{
name = tml_Ca;
}
);
layerId = "E14DABE6-6E32-45CC-852E-073741854548";
name = Light;
paths = (
{
closed = 1;
nodes = (
"548 -20 OFFCURVE",
"490 86 OFFCURVE",
"490 237 CURVE SMOOTH",
"490 434 OFFCURVE",
"571 571 OFFCURVE",
"715 571 CURVE SMOOTH",
"829 571 OFFCURVE",
"923 475 OFFCURVE",
"923 280 CURVE SMOOTH",
"923 174 OFFCURVE",
"893 84 OFFCURVE",
"861 1 CURVE",
"827 34 LINE",
"841 63 OFFCURVE",
"880 169 OFFCURVE",
"880 281 CURVE SMOOTH",
"880 428 OFFCURVE",
"819 531 OFFCURVE",
"717 531 CURVE SMOOTH",
"598 531 OFFCURVE",
"531 407 OFFCURVE",
"531 238 CURVE SMOOTH",
"531 151 OFFCURVE",
"556 22 OFFCURVE",
"640 22 CURVE SMOOTH",
"702 22 OFFCURVE",
"720 81 OFFCURVE",
"720 146 CURVE SMOOTH",
"720 268 OFFCURVE",
"616 299 OFFCURVE",
"552 299 CURVE",
"466 299 LINE",
"466 341 LINE",
"557 341 LINE",
"650 341 OFFCURVE",
"760 291 OFFCURVE",
"760 145 CURVE SMOOTH",
"760 51 OFFCURVE",
"721 -20 OFFCURVE",
"638 -20 CURVE SMOOTH"
);
},
{
closed = 1;
nodes = (
"827 34 LINE",
"876 43 LINE",
"1055 43 LINE",
"1055 1 LINE",
"827 1 LINE"
);
}
);
width = 1085;
}
);
},
{
glyphname = tml_LllU;
lastChange = "2015-12-25 12:33:34 +0000";
layers = (
{
background = {
paths = (
{
closed = 1;
nodes = (
"644 -278 OFFCURVE",
"718 -233 OFFCURVE",
"718 -173 CURVE SMOOTH",
"718 -108 OFFCURVE",
"661 -112 OFFCURVE",
"645 -160 CURVE",
"537 -160 LINE",
"538 32 LINE",
"646 33 LINE",
"646 -61 LINE",
"676 -32 OFFCURVE",
"821 -28 OFFCURVE",
"821 -173 CURVE SMOOTH",
"821 -271 OFFCURVE",
"714 -386 OFFCURVE",
"503 -386 CURVE",
"158 -385 OFFCURVE",
"11 -84 OFFCURVE",
"10 227 CURVE SMOOTH",
"10 368 OFFCURVE",
"60 477 OFFCURVE",
"118 572 CURVE",
"207 527 LINE",
"151 434 OFFCURVE",
"114 350 OFFCURVE",
"114 227 CURVE SMOOTH",
"114 13 OFFCURVE",
"215 -279 OFFCURVE",
"504 -278 CURVE"
);
}
);
};
components = (
{
name = tml_Ma;
transform = "{1, 0, 0, 1, 253, 0}";
}
);
guideLines = (
{
position = "{1395, -275}";
}
);
layerId = "A6FF5082-DE18-4D2D-8E01-54AF1261B41D";
name = Bold;
paths = (
{
closed = 1;
nodes = (
"644 -278 OFFCURVE",
"718 -233 OFFCURVE",
"718 -173 CURVE SMOOTH",
"718 -108 OFFCURVE",
"661 -112 OFFCURVE",
"645 -160 CURVE",
"537 -160 LINE",
"538 32 LINE",
"646 33 LINE",
"646 -61 LINE",
"676 -32 OFFCURVE",
"821 -28 OFFCURVE",
"821 -173 CURVE SMOOTH",
"821 -271 OFFCURVE",
"714 -386 OFFCURVE",
"503 -386 CURVE",
"188 -385 OFFCURVE",
"30 -124 OFFCURVE",
"30 167 CURVE SMOOTH",
"30 348 OFFCURVE",
"81 476 OFFCURVE",
"138 572 CURVE",
"227 527 LINE",
"189 454 OFFCURVE",
"134 350 OFFCURVE",
"134 167 CURVE SMOOTH",
"134 -27 OFFCURVE",
"215 -279 OFFCURVE",
"504 -278 CURVE"
);
}
);
width = 920;
},
{
components = (
{
name = tml_Ma;
transform = "{1, 0, 0, 1, 240, 0}";
}
);
layerId = "E14DABE6-6E32-45CC-852E-073741854548";
name = Light;
paths = (
{
closed = 1;
nodes = (
"594 -344 OFFCURVE",
"701 -282 OFFCURVE",
"701 -189 CURVE SMOOTH",
"701 -80 OFFCURVE",
"553 -92 OFFCURVE",
"537 -140 CURVE",
"495 -140 LINE",
"496 32 LINE",
"538 33 LINE",
"537 -92 LINE",
"562 -49 OFFCURVE",
"743 -47 OFFCURVE",
"743 -188 CURVE SMOOTH",
"743 -287 OFFCURVE",
"654 -386 OFFCURVE",
"471 -386 CURVE SMOOTH",
"185 -386 OFFCURVE",
"30 -143 OFFCURVE",
"30 162 CURVE SMOOTH",
"30 333 OFFCURVE",
"79 475 OFFCURVE",
"138 572 CURVE",
"177 553 LINE",
"135 485 OFFCURVE",
"72 338 OFFCURVE",
"72 161 CURVE SMOOTH",
"72 -87 OFFCURVE",
"195 -344 OFFCURVE",
"463 -344 CURVE SMOOTH"
);
}
);
width = 854;
}
);
},
{
glyphname = tml_LllUu;
lastChange = "2015-12-26 16:00:19 +0000";
layers = (
{
components = (
{
name = tml_Ma;
transform = "{1, 0, 0, 1, 340, 0}";
}
);
layerId = "A6FF5082-DE18-4D2D-8E01-54AF1261B41D";
name = Bold;
paths = (
{
closed = 1;
nodes = (
"154 488 OFFCURVE",
"130 336 OFFCURVE",
"130 214 CURVE SMOOTH",
"130 -94 OFFCURVE",
"283 -278 OFFCURVE",
"570 -278 CURVE SMOOTH",
"700 -278 OFFCURVE",
"805 -240 OFFCURVE",
"805 -167 CURVE SMOOTH",
"805 -113 OFFCURVE",
"748 -111 OFFCURVE",
"732 -160 CURVE",
"624 -160 LINE",
"625 32 LINE",
"733 33 LINE",
"733 -61 LINE",
"763 -30 OFFCURVE",
"908 -36 OFFCURVE",
"908 -166 CURVE SMOOTH",
"908 -271 OFFCURVE",
"812 -386 OFFCURVE",
"571 -386 CURVE SMOOTH",
"221 -386 OFFCURVE",
"30 -144 OFFCURVE",
"30 181 CURVE SMOOTH",
"30 334 OFFCURVE",
"72 573 OFFCURVE",
"227 573 CURVE SMOOTH",
"318 573 OFFCURVE",
"355 492 OFFCURVE",
"355 428 CURVE SMOOTH",
"355 362 OFFCURVE",
"316 287 OFFCURVE",
"233 287 CURVE SMOOTH",
"154 287 OFFCURVE",
"123 354 OFFCURVE",
"123 408 CURVE SMOOTH",
"123 461 OFFCURVE",
"154 501 OFFCURVE",
"199 511 CURVE",
"218 487 LINE",
"197 482 OFFCURVE",
"184 460 OFFCURVE",
"184 426 CURVE SMOOTH",
"184 390 OFFCURVE",
"199 366 OFFCURVE",
"228 366 CURVE SMOOTH",
"255 366 OFFCURVE",
"271 390 OFFCURVE",
"271 425 CURVE SMOOTH",
"271 460 OFFCURVE",
"258 488 OFFCURVE",
"229 488 CURVE"
);
}
);
width = 1007;
},
{
components = (
{
name = tml_Ma;
transform = "{1, 0, 0, 1, 240, 0}";
}
);
layerId = "E14DABE6-6E32-45CC-852E-073741854548";
name = Light;
paths = (
{
closed = 1;
nodes = (
"-48 -87 OFFCURVE",
"146 -344 OFFCURVE",
"414 -344 CURVE SMOOTH",
"547 -344 OFFCURVE",
"701 -292 OFFCURVE",
"701 -189 CURVE SMOOTH",
"701 -80 OFFCURVE",
"553 -92 OFFCURVE",
"537 -140 CURVE",
"495 -140 LINE",
"496 32 LINE",
"538 33 LINE",
"537 -92 LINE",
"562 -49 OFFCURVE",
"743 -47 OFFCURVE",
"743 -188 CURVE SMOOTH",
"743 -287 OFFCURVE",
"634 -386 OFFCURVE",
"422 -386 CURVE SMOOTH",
"136 -386 OFFCURVE",
"-90 -143 OFFCURVE",
"-90 162 CURVE SMOOTH",
"-90 467 OFFCURVE",
"11 574 OFFCURVE",
"107 573 CURVE",
"198 573 OFFCURVE",
"235 492 OFFCURVE",
"235 428 CURVE SMOOTH",
"235 362 OFFCURVE",
"196 287 OFFCURVE",
"113 287 CURVE SMOOTH",
"34 287 OFFCURVE",
"-6 362 OFFCURVE",
"-6 419 CURVE SMOOTH",
"-6 472 OFFCURVE",
"30 543 OFFCURVE",
"100 545 CURVE",
"109 531 LINE",
"52 531 OFFCURVE",
"36 465 OFFCURVE",
"36 425 CURVE SMOOTH",
"36 379 OFFCURVE",
"64 329 OFFCURVE",
"113 329 CURVE SMOOTH",
"161 329 OFFCURVE",
"193 373 OFFCURVE",
"193 428 CURVE SMOOTH",
"193 495 OFFCURVE",
"158 531 OFFCURVE",
"109 531 CURVE",
"-40 531 OFFCURVE",
"-48 238 OFFCURVE",
"-48 161 CURVE SMOOTH"
);
}
);
width = 874;
}
);
},
{
glyphname = tml_LlUu;
lastChange = "2015-12-14 17:32:00 +0000";
layers = (
{
components = (
{
name = tml_Lla;
transform = "{1, 0, 0, 1, 327, 0}";
}
);
layerId = "A6FF5082-DE18-4D2D-8E01-54AF1261B41D";
name = Bold;
paths = (
{
closed = 1;
nodes = (
"138 -48 OFFCURVE",
"466 -169 OFFCURVE",
"757 -168 CURVE SMOOTH",
"995 -167 OFFCURVE",
"1230 -84 OFFCURVE",
"1230 134 CURVE SMOOTH",
"1230 213 OFFCURVE",
"1203 267 OFFCURVE",
"1162 267 CURVE SMOOTH",
"1120 267 OFFCURVE",
"1111 229 OFFCURVE",
"1111 204 CURVE",
"1062 235 LINE SMOOTH",
"1062 308 OFFCURVE",
"1110 358 OFFCURVE",
"1174 358 CURVE SMOOTH",
"1268 358 OFFCURVE",
"1332 280 OFFCURVE",
"1332 131 CURVE SMOOTH",
"1332 -147 OFFCURVE",
"1064 -270 OFFCURVE",
"756 -275 CURVE SMOOTH",
"417 -281 OFFCURVE",
"38 -120 OFFCURVE",
"38 238 CURVE SMOOTH",
"38 381 OFFCURVE",
"72 572 OFFCURVE",
"227 572 CURVE SMOOTH",
"318 572 OFFCURVE",
"355 491 OFFCURVE",
"355 427 CURVE SMOOTH",
"355 361 OFFCURVE",
"316 286 OFFCURVE",
"233 286 CURVE SMOOTH",
"154 286 OFFCURVE",
"123 353 OFFCURVE",
"123 407 CURVE SMOOTH",
"123 460 OFFCURVE",
"154 500 OFFCURVE",
"199 510 CURVE",
"218 486 LINE",
"197 481 OFFCURVE",
"184 459 OFFCURVE",
"184 425 CURVE SMOOTH",
"184 389 OFFCURVE",
"199 365 OFFCURVE",
"228 365 CURVE SMOOTH",
"255 365 OFFCURVE",
"271 389 OFFCURVE",
"271 424 CURVE SMOOTH",
"271 459 OFFCURVE",
"258 487 OFFCURVE",
"229 487 CURVE",
"167 490 OFFCURVE",
"138 348 OFFCURVE",
"138 253 CURVE SMOOTH"
);
}
);
width = 1360;
},
{
layerId = "E14DABE6-6E32-45CC-852E-073741854548";
name = Light;
width = 600;
}
);
},
{
glyphname = tml_LlU;
lastChange = "2015-12-26 16:12:48 +0000";
layers = (
{
components = (
{
name = tml_Lla;
transform = "{1, 0, 0, 1, 189, 0}";
}
);
layerId = "A6FF5082-DE18-4D2D-8E01-54AF1261B41D";
name = Bold;
paths = (
{
closed = 1;
nodes = (
"124 -64 OFFCURVE",
"379 -168 OFFCURVE",
"624 -168 CURVE SMOOTH",
"847 -168 OFFCURVE",
"1083 -84 OFFCURVE",
"1083 137 CURVE SMOOTH",
"1083 208 OFFCURVE",
"1059 267 OFFCURVE",
"1012 267 CURVE SMOOTH",
"976 267 OFFCURVE",
"964 231 OFFCURVE",
"964 204 CURVE",
"915 235 LINE",
"915 308 OFFCURVE",
"961 358 OFFCURVE",
"1031 358 CURVE SMOOTH",
"1121 358 OFFCURVE",
"1185 274 OFFCURVE",
"1185 138 CURVE SMOOTH",
"1185 -147 OFFCURVE",
"965 -271 OFFCURVE",
"628 -271 CURVE SMOOTH",
"328 -271 OFFCURVE",
"20 -147 OFFCURVE",
"20 242 CURVE SMOOTH",
"20 388 OFFCURVE",
"68 510 OFFCURVE",
"116 572 CURVE",
"205 527 LINE",
"196 514 OFFCURVE",
"124 417 OFFCURVE",
"124 252 CURVE SMOOTH"
);
}
);
width = 1225;
},
{
components = (
{
name = tml_Lla;
transform = "{1, 0, 0, 1, 165, 0}";
}
);
layerId = "E14DABE6-6E32-45CC-852E-073741854548";
name = Light;
paths = (
{
closed = 1;
nodes = (
"125 504 OFFCURVE",
"72 379 OFFCURVE",
"72 244 CURVE SMOOTH",
"72 10 OFFCURVE",
"222 -224 OFFCURVE",
"621 -223 CURVE SMOOTH",
"919 -222 OFFCURVE",
"1080 -73 OFFCURVE",
"1080 107 CURVE SMOOTH",
"1080 252 OFFCURVE",
"1017 299 OFFCURVE",
"966 299 CURVE SMOOTH",
"909 299 OFFCURVE",
"886 243 OFFCURVE",
"886 204 CURVE",
"862 222 LINE",
"862 293 OFFCURVE",
"911 339 OFFCURVE",
"968 339 CURVE SMOOTH",
"1069 339 OFFCURVE",
"1122 235 OFFCURVE",
"1122 107 CURVE SMOOTH",
"1122 -109 OFFCURVE",
"935 -266 OFFCURVE",
"615 -265 CURVE SMOOTH",
"219 -264 OFFCURVE",
"30 -40 OFFCURVE",
"30 244 CURVE SMOOTH",
"30 418 OFFCURVE",
"97 532 OFFCURVE",
"126 570 CURVE",
"166 551 LINE"
);
}
);
width = 1152;
}
);
},
{
glyphname = tml_LU;
lastChange = "2015-12-14 18:44:39 +0000";
layers = (
{
components = (
{
name = tml_La;
transform = "{1, 0, 0, 1, 7, 0}";
}
);
layerId = "A6FF5082-DE18-4D2D-8E01-54AF1261B41D";
name = Bold;
paths = (
{
closed = 1;
nodes = (
"511 -190 OFFCURVE",
"431 -252 OFFCURVE",
"313 -252 CURVE SMOOTH",
"190 -252 OFFCURVE",
"174 -215 OFFCURVE",
"174 -199 CURVE SMOOTH",
"174 -177 OFFCURVE",
"191 -169 OFFCURVE",
"209 -169 CURVE",
"899 -171 LINE",
"899 573 LINE",
"792 573 LINE",
"792 -74 LINE",
"194 -74 LINE",
"118 -74 OFFCURVE",
"67 -124 OFFCURVE",
"67 -193 CURVE SMOOTH",
"67 -275 OFFCURVE",
"155 -349 OFFCURVE",
"313 -349 CURVE SMOOTH",
"546 -349 OFFCURVE",
"615 -173 OFFCURVE",
"615 0 CURVE",
"511 0 LINE"
);
}
);
width = 977;
},
{
layerId = "E14DABE6-6E32-45CC-852E-073741854548";
name = Light;
width = 600;
}
);
},
{
glyphname = tml_LUu;
lastChange = "2015-12-14 18:27:21 +0000";
layers = (
{
components = (
{
name = tml_LU;
}
);
layerId = "A6FF5082-DE18-4D2D-8E01-54AF1261B41D";
name = Bold;
paths = (
{
closed = 1;
nodes = (
"882 476 LINE",
"997 476 LINE",
"997 -13 LINE",
"1104 -13 LINE",
"1104 476 LINE",
"1204 476 LINE",
"1204 573 LINE",
"882 573 LINE"
);
}
);
width = 977;
},
{
layerId = "E14DABE6-6E32-45CC-852E-073741854548";
name = Light;
width = 600;
}
);
},
{
glyphname = tml_MatraI.alt1;
lastChange = "2015-11-29 15:33:03 +0000";
layers = (
{
layerId = "A6FF5082-DE18-4D2D-8E01-54AF1261B41D";
name = Bold;
paths = (
{
closed = 1;
nodes = (
"-236.039 550 LINE SMOOTH",
"-191.014 702.778 OFFCURVE",
"-95.808 745.244 OFFCURVE",
"-14 746 CURVE SMOOTH",
"137.081 747 OFFCURVE",
"216.177 658.997 OFFCURVE",
"217 479 CURVE SMOOTH",
"219 0 LINE SMOOTH",
"111 0 LINE SMOOTH",
"110 479 LINE SMOOTH",
"109.742 583 OFFCURVE",
"78 638 OFFCURVE",
"-18 638 CURVE SMOOTH",
"-74.737 638 OFFCURVE",
"-136.433 607.846 OFFCURVE",
"-160.697 503 CURVE SMOOTH"
);
}
);
width = 269;
},
{
layerId = "E14DABE6-6E32-45CC-852E-073741854548";
name = Light;
width = 600;
}
);
},
{
glyphname = tml_MatraI.alt2;
lastChange = "2015-11-29 15:33:03 +0000";
layers = (
{
layerId = "A6FF5082-DE18-4D2D-8E01-54AF1261B41D";
name = Bold;
paths = (
{
closed = 1;
nodes = (
"-227.039 490 LINE SMOOTH",
"-251.709 523.344 OFFCURVE",
"-262.706 554.028 OFFCURVE",
"-262.719 582 CURVE SMOOTH",
"-262.751 695.802 OFFCURVE",
"-157.57 755.566 OFFCURVE",
"-74 756 CURVE SMOOTH",
"77.083 756.713 OFFCURVE",
"156.282 671.278 OFFCURVE",
"157 496 CURVE SMOOTH",
"159 0 LINE SMOOTH",
"51 0 LINE SMOOTH",
"50 496 LINE SMOOTH",
"49.8 595.422 OFFCURVE",
"18 648 OFFCURVE",
"-78 648 CURVE SMOOTH",
"-124.604 648 OFFCURVE",
"-161.304 612.332 OFFCURVE",
"-162.061 566 CURVE SMOOTH",
"-162.714 542.973 OFFCURVE",
"-150.948 518.179 OFFCURVE",
"-121.697 493 CURVE SMOOTH"
);
}
);
width = 219;
},
{
layerId = "E14DABE6-6E32-45CC-852E-073741854548";
name = Light;
width = 600;
}
);
},
{
glyphname = tml_MatraI.alt3;
lastChange = "2015-11-30 19:38:24 +0000";
layers = (
{
layerId = "A6FF5082-DE18-4D2D-8E01-54AF1261B41D";
name = Bold;
paths = (
{
closed = 1;
nodes = (
"-235 530 LINE SMOOTH",
"-246.38 555.494 OFFCURVE",
"-251.324 578.426 OFFCURVE",
"-251.248 599 CURVE SMOOTH",
"-250.882 715.914 OFFCURVE",
"-134.37 755.492 OFFCURVE",
"-74 756 CURVE SMOOTH",
"87.317 757.069 OFFCURVE",
"187.217 672.256 OFFCURVE",
"188 499 CURVE SMOOTH",
"190 0 LINE SMOOTH",
"82 0 LINE SMOOTH",
"81 499 LINE SMOOTH",
"80.784 596.459 OFFCURVE",
"44 648 OFFCURVE",
"-67 648 CURVE SMOOTH",
"-94.956 648 OFFCURVE",
"-146.978 633.868 OFFCURVE",
"-148 583 CURVE SMOOTH",
"-148.077 579.568 OFFCURVE",
"-149.16 555.648 OFFCURVE",
"-149.697 552 CURVE SMOOTH"
);
}
);
width = 250;
},
{
layerId = "E14DABE6-6E32-45CC-852E-073741854548";
name = Light;
width = 600;
}
);
},
{
glyphname = tml_MatraI.alt4;
lastChange = "2015-11-30 19:38:24 +0000";
layers = (
{
layerId = "A6FF5082-DE18-4D2D-8E01-54AF1261B41D";
name = Bold;
paths = (
{
closed = 1;
nodes = (
"-236.039 560 LINE SMOOTH",
"-191.014 712.778 OFFCURVE",
"-95.808 755.244 OFFCURVE",
"-14 756 CURVE SMOOTH",
"137.081 757 OFFCURVE",
"216.177 668.997 OFFCURVE",
"217 489 CURVE SMOOTH",
"219 0 LINE SMOOTH",
"111 0 LINE SMOOTH",
"110 489 LINE SMOOTH",
"109.742 593 OFFCURVE",
"78 648 OFFCURVE",
"-18 648 CURVE SMOOTH",
"-74.737 648 OFFCURVE",
"-136.433 617.846 OFFCURVE",
"-160.697 513 CURVE SMOOTH"
);
}
);
width = 269;
},
{
layerId = "E14DABE6-6E32-45CC-852E-073741854548";
name = Light;
width = 600;
}
);
},
{
glyphname = tml_MatraI.alt5;
lastChange = "2015-11-30 19:38:24 +0000";
layers = (
{
layerId = "A6FF5082-DE18-4D2D-8E01-54AF1261B41D";
name = Bold;
paths = (
{
closed = 1;
nodes = (
"-170.039 492 LINE SMOOTH",
"-243.553 497.834 OFFCURVE",
"-272.628 554.239 OFFCURVE",
"-272.271 590 CURVE SMOOTH",
"-270.998 717.45 OFFCURVE",
"-149.837 757.687 OFFCURVE",
"-84 758 CURVE SMOOTH",
"67.083 758.718 OFFCURVE",
"146.244 667.739 OFFCURVE",
"147 481 CURVE SMOOTH",
"149 1 LINE SMOOTH",
"41 1 LINE SMOOTH",
"40 481 LINE SMOOTH",
"39.776 591.541 OFFCURVE",
"8 650 OFFCURVE",
"-88 650 CURVE SMOOTH",
"-148.248 650 OFFCURVE",
"-175.266 614.972 OFFCURVE",
"-174.857 586 CURVE SMOOTH",
"-174.516 561.813 OFFCURVE",
"-150.884 559.939 OFFCURVE",
"-139.697 560 CURVE SMOOTH"
);
}
);
width = 199;
},
{
layerId = "E14DABE6-6E32-45CC-852E-073741854548";
name = Light;
width = 600;
}
);
},
{
glyphname = tml_MatraI.alt6;
lastChange = "2015-11-30 19:38:24 +0000";
layers = (
{
layerId = "A6FF5082-DE18-4D2D-8E01-54AF1261B41D";
name = Bold;
paths = (
{
closed = 1;
nodes = (
"-286.039 496 LINE SMOOTH",
"-328.075 530.287 OFFCURVE",
"-330.935 572.276 OFFCURVE",
"-331 600 CURVE SMOOTH",
"-331.228 715.89 OFFCURVE",
"-185.864 757.386 OFFCURVE",
"-114 757 CURVE SMOOTH",
"69.783 756.014 OFFCURVE",
"166.13 666.739 OFFCURVE",
"167 480 CURVE SMOOTH",
"169 0 LINE SMOOTH",
"61 0 LINE SMOOTH",
"60 480 LINE SMOOTH",
"59.725 590.541 OFFCURVE",
"15.5 649 OFFCURVE",
"-118 649 CURVE SMOOTH",
"-179.988 649 OFFCURVE",
"-231.416 630.123 OFFCURVE",
"-231 600 CURVE SMOOTH",
"-230.415 564.026 OFFCURVE",
"-217.059 557.436 OFFCURVE",
"-190.697 557 CURVE SMOOTH"
);
}
);
width = 269;
},
{
layerId = "E14DABE6-6E32-45CC-852E-073741854548";
name = Light;
width = 600;
}
);
},
{
glyphname = tml_MU;
lastChange = "2015-12-14 18:52:05 +0000";
layers = (
{
components = (
{
name = tml_Ma;
transform = "{1, 0, 0, 1, 262, 0}";
}
);
layerId = "A6FF5082-DE18-4D2D-8E01-54AF1261B41D";
name = Bold;
paths = (
{
closed = 1;
nodes = (
"174 -267 OFFCURVE",
"30 -96 OFFCURVE",
"30 184 CURVE SMOOTH",
"30 354 OFFCURVE",
"83 483 OFFCURVE",
"147 573 CURVE",
"237 528 LINE",
"176 435 OFFCURVE",
"134 340 OFFCURVE",
"134 189 CURVE SMOOTH",
"134 -42 OFFCURVE",
"233 -170 OFFCURVE",
"372 -170 CURVE SMOOTH",
"474 -170 OFFCURVE",
"547 -101 OFFCURVE",
"547 29 CURVE",
"655 29 LINE",
"655 -170 OFFCURVE",
"523 -267 OFFCURVE",
"373 -267 CURVE SMOOTH"
);
}
);
width = 929;
},
{
layerId = "E14DABE6-6E32-45CC-852E-073741854548";
name = Light;
width = 600;
}
);
},
{
glyphname = tml_MUu;
lastChange = "2015-12-14 18:59:48 +0000";
layers = (
{
components = (
{
name = tml_Ma;
transform = "{1, 0, 0, 1, 355, 0}";
}
);
layerId = "A6FF5082-DE18-4D2D-8E01-54AF1261B41D";
name = Bold;
paths = (
{
closed = 1;
nodes = (
"144 -17 OFFCURVE",
"258 -170 OFFCURVE",
"435 -170 CURVE SMOOTH",
"537 -170 OFFCURVE",
"640 -101 OFFCURVE",
"640 29 CURVE",
"748 29 LINE",
"748 -170 OFFCURVE",
"586 -267 OFFCURVE",
"436 -267 CURVE SMOOTH",
"227 -267 OFFCURVE",
"44 -99 OFFCURVE",
"44 181 CURVE",
"44 334 OFFCURVE",
"86 573 OFFCURVE",
"241 573 CURVE SMOOTH",
"332 573 OFFCURVE",
"369 492 OFFCURVE",
"369 428 CURVE SMOOTH",
"369 362 OFFCURVE",
"330 287 OFFCURVE",
"247 287 CURVE SMOOTH",
"168 287 OFFCURVE",
"137 354 OFFCURVE",
"137 408 CURVE SMOOTH",
"137 461 OFFCURVE",
"168 501 OFFCURVE",
"213 511 CURVE",
"232 487 LINE",
"211 482 OFFCURVE",
"198 460 OFFCURVE",
"198 426 CURVE SMOOTH",
"198 390 OFFCURVE",
"213 366 OFFCURVE",
"242 366 CURVE SMOOTH",
"269 366 OFFCURVE",
"285 390 OFFCURVE",
"285 425 CURVE SMOOTH",
"285 460 OFFCURVE",
"272 488 OFFCURVE",
"243 488 CURVE",
"168 488 OFFCURVE",
"144 336 OFFCURVE",
"144 214 CURVE"
);
}
);
width = 1022;
},
{
layerId = "E14DABE6-6E32-45CC-852E-073741854548";
name = Light;
width = 600;
}
);
},
{
glyphname = tml_NgUu;
lastChange = "2015-12-14 20:11:15 +0000";
layers = (
{
components = (
{
name = tml_Nga;
}
);
layerId = "A6FF5082-DE18-4D2D-8E01-54AF1261B41D";
name = Bold;
paths = (
{
closed = 1;
nodes = (
"631 -153 LINE",
"632 32 LINE",
"740 33 LINE",
"740 -153 LINE"
);
},
{
closed = 1;
nodes = (
"712 43 OFFCURVE",
"744 59 OFFCURVE",
"775 58 CURVE SMOOTH",
"842 58 OFFCURVE",
"911 9 OFFCURVE",
"911 -98 CURVE SMOOTH",
"911 -237 OFFCURVE",
"737 -349 OFFCURVE",
"483 -349 CURVE SMOOTH",
"213 -349 OFFCURVE",
"44 -283 OFFCURVE",
"44 -176 CURVE SMOOTH",
"44 -98 OFFCURVE",
"98 -50 OFFCURVE",
"203 -50 CURVE",
"564 -54 LINE",
"564 -151 LINE",
"183 -151 LINE",
"155 -151 OFFCURVE",
"144 -161 OFFCURVE",
"144 -178 CURVE SMOOTH",
"144 -225 OFFCURVE",
"311 -252 OFFCURVE",
"469 -252 CURVE SMOOTH",
"684 -252 OFFCURVE",
"813 -191 OFFCURVE",
"813 -95 CURVE SMOOTH",
"813 -36 OFFCURVE",
"786 -22 OFFCURVE",
"764 -22 CURVE SMOOTH",
"751 -22 OFFCURVE",
"740 -30 OFFCURVE",
"740 -47 CURVE",
"684 5 LINE"
);
}
);
width = 790;
},
{
layerId = "E14DABE6-6E32-45CC-852E-073741854548";
name = Light;
width = 600;
}
);
},
{
glyphname = tml_NnnUu;
lastChange = "2015-12-14 21:51:55 +0000";
layers = (
{
components = (
{
name = tml_NnnU;
}
);
layerId = "A6FF5082-DE18-4D2D-8E01-54AF1261B41D";
name = Bold;
paths = (
{
closed = 1;
nodes = (
"1731 573 LINE",
"1731 476 LINE",
"1631 476 LINE",
"1631 -13 LINE",
"1524 -13 LINE",
"1524 476 LINE",
"1409 476 LINE",
"1409 573 LINE"
);
}
);
width = 1761;
},
{
layerId = "E14DABE6-6E32-45CC-852E-073741854548";
name = Light;
width = 600;
}
);
},
{
glyphname = tml_NnnU;
lastChange = "2015-12-14 21:51:33 +0000";
layers = (
{
layerId = "A6FF5082-DE18-4D2D-8E01-54AF1261B41D";
name = Bold;
paths = (
{
closed = 1;
nodes = (
"883 474 OFFCURVE",
"814 359 OFFCURVE",
"814 208 CURVE SMOOTH",
"814 133 OFFCURVE",
"831 65 OFFCURVE",
"867 65 CURVE SMOOTH",
"905 65 OFFCURVE",
"920 137 OFFCURVE",
"920 209 CURVE SMOOTH",
"920 424 OFFCURVE",
"785 474 OFFCURVE",
"689 474 CURVE SMOOTH",
"524 474 OFFCURVE",
"475 327 OFFCURVE",
"475 199 CURVE SMOOTH",
"475 123 OFFCURVE",
"492 65 OFFCURVE",
"528 65 CURVE SMOOTH",
"567 65 OFFCURVE",
"580 124 OFFCURVE",
"580 194 CURVE SMOOTH",
"580 397 OFFCURVE",
"455 476 OFFCURVE",
"332 474 CURVE SMOOTH",
"258 473 OFFCURVE",
"132 418 OFFCURVE",
"132 233 CURVE SMOOTH",
"132 165 OFFCURVE",
"149 64 OFFCURVE",
"199 64 CURVE SMOOTH",
"242 64 OFFCURVE",
"252 139 OFFCURVE",
"252 179 CURVE SMOOTH",
"252 238 OFFCURVE",
"230 281 OFFCURVE",
"195 281 CURVE SMOOTH",
"158 281 OFFCURVE",
"134 234 OFFCURVE",
"138 167 CURVE",
"82 196 LINE",
"82 269 OFFCURVE",
"124 362 OFFCURVE",
"210 362 CURVE SMOOTH",
"282 362 OFFCURVE",
"348 298 OFFCURVE",
"348 171 CURVE SMOOTH",
"348 50 OFFCURVE",
"288 -24 OFFCURVE",
"201 -24 CURVE SMOOTH",
"92 -24 OFFCURVE",
"30 91 OFFCURVE",
"30 236 CURVE SMOOTH",
"30 483 OFFCURVE",
"212 570 OFFCURVE",
"341 570 CURVE SMOOTH",
"449 570 OFFCURVE",
"688 510 OFFCURVE",
"688 200 CURVE SMOOTH",
"688 52 OFFCURVE",
"620 -23 OFFCURVE",
"528 -23 CURVE SMOOTH",
"434 -23 OFFCURVE",
"370 57 OFFCURVE",
"370 206 CURVE SMOOTH",
"370 401 OFFCURVE",
"471 572 OFFCURVE",
"689 572 CURVE SMOOTH",
"851 572 OFFCURVE",
"1026 475 OFFCURVE",
"1026 207 CURVE SMOOTH",
"1026 57 OFFCURVE",
"972 -23 OFFCURVE",
"869 -23 CURVE SMOOTH",
"768 -23 OFFCURVE",
"709 55 OFFCURVE",
"709 215 CURVE SMOOTH",
"709 410 OFFCURVE",
"815 573 OFFCURVE",
"1000 573 CURVE SMOOTH",
"1185 573 OFFCURVE",
"1257 381 OFFCURVE",
"1257 215 CURVE SMOOTH",
"1257 -90 OFFCURVE",
"1097 -349 OFFCURVE",
"594 -349 CURVE SMOOTH",
"156 -349 OFFCURVE",
"68 -268 OFFCURVE",
"68 -185 CURVE SMOOTH",
"68 -106 OFFCURVE",
"116 -61 OFFCURVE",
"211 -61 CURVE",
"1319 -61 LINE",
"1319 573 LINE",
"1426 573 LINE",
"1426 -158 LINE",
"208 -158 LINE",
"187 -158 OFFCURVE",
"175 -169 OFFCURVE",
"175 -184 CURVE SMOOTH",
"175 -208 OFFCURVE",
"249 -250 OFFCURVE",
"589 -250 CURVE SMOOTH",
"1032 -250 OFFCURVE",
"1135 0 OFFCURVE",
"1135 207 CURVE SMOOTH",
"1135 371 OFFCURVE",
"1097 474 OFFCURVE",
"1001 474 CURVE SMOOTH"
);
}
);
width = 1456;
},
{
layerId = "E14DABE6-6E32-45CC-852E-073741854548";
name = Light;
width = 600;
}
);
},
{
glyphname = tml_NnU;
lastChange = "2015-12-15 13:06:28 +0000";
layers = (
{
layerId = "A6FF5082-DE18-4D2D-8E01-54AF1261B41D";
name = Bold;
paths = (
{
closed = 1;
nodes = (
"70 1 LINE",
"70 560 LINE",
"519 560 LINE",
"519 462 LINE",
"416 462 LINE",
"416 1 LINE",
"308 1 LINE",
"308 462 LINE",
"177 462 LINE",
"177 1 LINE"
);
},
{
closed = 1;
nodes = (
"129 -222 OFFCURVE",
"186 -252 OFFCURVE",
"306 -252 CURVE SMOOTH",
"490 -252 OFFCURVE",
"536 -82 OFFCURVE",
"536 123 CURVE SMOOTH",
"536 200 OFFCURVE",
"517 266 OFFCURVE",
"465 266 CURVE SMOOTH",
"422 266 OFFCURVE",
"416 218 OFFCURVE",
"416 179 CURVE",
"347 220 LINE",
"349 265 OFFCURVE",
"387 359 OFFCURVE",
"476 358 CURVE SMOOTH",
"595 357 OFFCURVE",
"639 253 OFFCURVE",
"639 118 CURVE SMOOTH",
"639 -149 OFFCURVE",
"547 -349 OFFCURVE",
"306 -349 CURVE SMOOTH",
"92 -349 OFFCURVE",
"22 -252 OFFCURVE",
"22 -180 CURVE SMOOTH",
"22 -125 OFFCURVE",
"63 -64 OFFCURVE",
"161 -64 CURVE",
"700 -62 LINE",
"700 560 LINE",
"807 560 LINE",
"807 -159 LINE",
"175 -158 LINE",
"144 -158 OFFCURVE",
"129 -165 OFFCURVE",
"129 -190 CURVE SMOOTH"
);
}
);
width = 837;
},
{
layerId = "E14DABE6-6E32-45CC-852E-073741854548";
name = Light;
width = 600;
}
);
},
{
glyphname = tml_NnUu;
lastChange = "2015-12-15 13:08:33 +0000";
layers = (
{
components = (
{
name = tml_NnU;
}
);
layerId = "A6FF5082-DE18-4D2D-8E01-54AF1261B41D";
name = Bold;
paths = (
{
closed = 1;
nodes = (
"1112 560 LINE",
"1112 463 LINE",
"1012 463 LINE",
"1012 -13 LINE",
"905 -13 LINE",
"905 463 LINE",
"790 463 LINE",
"790 560 LINE"
);
}
);
width = 837;
},
{
layerId = "E14DABE6-6E32-45CC-852E-073741854548";
name = Light;
width = 600;
}
);
},
{
glyphname = tml_NU;
lastChange = "2015-12-15 13:36:55 +0000";
layers = (
{
layerId = "A6FF5082-DE18-4D2D-8E01-54AF1261B41D";
name = Bold;
paths = (
{
closed = 1;
nodes = (
"208 474 OFFCURVE",
"149 378 OFFCURVE",
"149 256 CURVE SMOOTH",
"149 159 OFFCURVE",
"166 75 OFFCURVE",
"214 75 CURVE SMOOTH",
"260 75 OFFCURVE",
"269 139 OFFCURVE",
"269 178 CURVE SMOOTH",
"269 239 OFFCURVE",
"241 272 OFFCURVE",
"215 272 CURVE SMOOTH",
"175 272 OFFCURVE",
"147 222 OFFCURVE",
"159 148 CURVE",
"72 217 LINE",
"94 267 OFFCURVE",
"124 373 OFFCURVE",
"221 373 CURVE SMOOTH",
"290 373 OFFCURVE",
"371 316 OFFCURVE",
"371 175 CURVE SMOOTH",
"371 54 OFFCURVE",
"312 -23 OFFCURVE",
"214 -23 CURVE SMOOTH",
"109 -23 OFFCURVE",
"47 91 OFFCURVE",
"47 246 CURVE SMOOTH",
"47 450 OFFCURVE",
"162 572 OFFCURVE",
"367 573 CURVE SMOOTH",
"532 573 OFFCURVE",
"696 470 OFFCURVE",
"696 214 CURVE SMOOTH",
"696 53 OFFCURVE",
"653 -23 OFFCURVE",
"548 -23 CURVE SMOOTH",
"446 -23 OFFCURVE",
"396 55 OFFCURVE",
"396 214 CURVE SMOOTH",
"396 425 OFFCURVE",
"478 572 OFFCURVE",
"670 573 CURVE SMOOTH",
"855 573 OFFCURVE",
"911 381 OFFCURVE",
"912 215 CURVE SMOOTH",
"913 -102 OFFCURVE",
"768 -349 OFFCURVE",
"411 -349 CURVE SMOOTH",
"160 -349 OFFCURVE",
"60 -270 OFFCURVE",
"60 -185 CURVE SMOOTH",
"60 -114 OFFCURVE",
"114 -61 OFFCURVE",
"209 -61 CURVE",
"974 -61 LINE",
"974 573 LINE",
"1081 573 LINE",
"1081 -158 LINE",
"202 -158 LINE",
"181 -158 OFFCURVE",
"167 -165 OFFCURVE",
"167 -183 CURVE SMOOTH",
"167 -225 OFFCURVE",
"263 -250 OFFCURVE",
"411 -250 CURVE SMOOTH",
"706 -250 OFFCURVE",
"805 -26 OFFCURVE",
"805 207 CURVE SMOOTH",
"805 361 OFFCURVE",
"768 475 OFFCURVE",
"671 475 CURVE SMOOTH",
"550 475 OFFCURVE",
"504 368 OFFCURVE",
"504 214 CURVE SMOOTH",
"504 142 OFFCURVE",
"519 75 OFFCURVE",
"548 75 CURVE SMOOTH",
"576 75 OFFCURVE",
"588 134 OFFCURVE",
"588 213 CURVE SMOOTH",
"588 414 OFFCURVE",
"470 474 OFFCURVE",
"367 474 CURVE SMOOTH"
);
}
);
width = 1126;
},
{
layerId = "E14DABE6-6E32-45CC-852E-073741854548";
name = Light;
width = 600;
}
);
},
{
glyphname = tml_NUu;
lastChange = "2015-12-15 13:20:21 +0000";
layers = (
{
components = (
{
name = tml_NU;
transform = "{1, 0, 0, 1, -17, 0}";
}
);
layerId = "A6FF5082-DE18-4D2D-8E01-54AF1261B41D";
name = Bold;
paths = (
{
closed = 1;
nodes = (
"1369 573 LINE",
"1369 476 LINE",
"1269 476 LINE",
"1269 -13 LINE",
"1162 -13 LINE",
"1162 476 LINE",
"1047 476 LINE",
"1047 573 LINE"
);
}
);
width = 1399;
},
{
layerId = "E14DABE6-6E32-45CC-852E-073741854548";
name = Light;
width = 600;
}
);
},
{
glyphname = tml_NyUu;
lastChange = "2015-12-15 13:36:10 +0000";
layers = (
{
components = (
{
name = tml_NyU;
}
);
layerId = "A6FF5082-DE18-4D2D-8E01-54AF1261B41D";
name = Bold;
paths = (
{
closed = 1;
nodes = (
"1223 560 LINE",
"1223 463 LINE",
"1123 463 LINE",
"1123 -13 LINE",
"1016 -13 LINE",
"1016 463 LINE",
"901 463 LINE",
"901 560 LINE"
);
}
);
width = 1253;
},
{
layerId = "E14DABE6-6E32-45CC-852E-073741854548";
name = Light;
width = 600;
}
);
},
{
glyphname = tml_NyU;
lastChange = "2015-12-15 13:34:37 +0000";
layers = (
{
components = (
{
name = tml_E;
transform = "{1, 0, 0, 1, 8, 0}";
}
);
layerId = "A6FF5082-DE18-4D2D-8E01-54AF1261B41D";
name = Bold;
paths = (
{
closed = 1;
nodes = (
"152 -158 OFFCURVE",
"137 -165 OFFCURVE",
"137 -190 CURVE SMOOTH",
"137 -222 OFFCURVE",
"194 -252 OFFCURVE",
"314 -252 CURVE SMOOTH",
"552 -250 OFFCURVE",
"648 -84 OFFCURVE",
"648 124 CURVE SMOOTH",
"648 203 OFFCURVE",
"621 267 OFFCURVE",
"580 267 CURVE SMOOTH",
"538 267 OFFCURVE",
"529 229 OFFCURVE",
"529 204 CURVE",
"480 235 LINE SMOOTH",
"480 308 OFFCURVE",
"528 358 OFFCURVE",
"592 358 CURVE SMOOTH",
"686 358 OFFCURVE",
"750 270 OFFCURVE",
"750 121 CURVE SMOOTH",
"750 -142 OFFCURVE",
"622 -350 OFFCURVE",
"314 -349 CURVE SMOOTH",
"100 -349 OFFCURVE",
"30 -252 OFFCURVE",
"30 -180 CURVE SMOOTH",
"30 -125 OFFCURVE",
"71 -64 OFFCURVE",
"169 -64 CURVE",
"811 -64 LINE",
"811 560 LINE",
"918 560 LINE",
"918 -159 LINE",
"183 -158 LINE"
);
}
);
width = 948;
},
{
layerId = "E14DABE6-6E32-45CC-852E-073741854548";
name = Light;
width = 600;
}
);
},
{
glyphname = tml_PUu;
lastChange = "2015-12-18 16:17:40 +0000";
layers = (
{
components = (
{
name = tml_Pa;
transform = "{1, 0, 0, 1, 279, 0}";
}
);
layerId = "A6FF5082-DE18-4D2D-8E01-54AF1261B41D";
name = Bold;
paths = (
{
closed = 1;
nodes = (
"670 -153 LINE",
"671 32 LINE",
"779 33 LINE",
"779 -153 LINE"
);
},
{
closed = 1;
nodes = (
"751 43 OFFCURVE",
"783 59 OFFCURVE",
"814 58 CURVE SMOOTH",
"881 58 OFFCURVE",
"950 9 OFFCURVE",
"950 -98 CURVE SMOOTH",
"950 -237 OFFCURVE",
"807 -349 OFFCURVE",
"622 -349 CURVE SMOOTH",
"428 -349 OFFCURVE",
"319 -282 OFFCURVE",
"319 -175 CURVE SMOOTH",
"319 -97 OFFCURVE",
"368 -44 OFFCURVE",
"437 -44 CURVE SMOOTH",
"513 -44 OFFCURVE",
"559 -103 OFFCURVE",
"559 -169 CURVE SMOOTH",
"559 -250 OFFCURVE",
"508 -279 OFFCURVE",
"445 -279 CURVE SMOOTH",
"411 -279 OFFCURVE",
"371 -251 OFFCURVE",
"365 -208 CURVE",
"404 -188 LINE",
"407 -203 OFFCURVE",
"419 -215 OFFCURVE",
"437 -215 CURVE SMOOTH",
"458 -215 OFFCURVE",
"472 -200 OFFCURVE",
"472 -178 CURVE SMOOTH",
"472 -157 OFFCURVE",
"464 -138 OFFCURVE",
"437 -138 CURVE SMOOTH",
"414 -138 OFFCURVE",
"403 -156 OFFCURVE",
"403 -178 CURVE SMOOTH",
"403 -236 OFFCURVE",
"494 -259 OFFCURVE",
"622 -259 CURVE SMOOTH",
"745 -259 OFFCURVE",
"852 -191 OFFCURVE",
"852 -95 CURVE SMOOTH",
"852 -36 OFFCURVE",
"825 -22 OFFCURVE",
"803 -22 CURVE SMOOTH",
"790 -22 OFFCURVE",
"779 -30 OFFCURVE",
"779 -47 CURVE",
"723 5 LINE"
);
}
);
width = 980;
},
{
layerId = "E14DABE6-6E32-45CC-852E-073741854548";
name = Light;
width = 600;
}
);
},
{
glyphname = tml_RrUu;
lastChange = "2015-12-16 16:13:03 +0000";
layers = (
{
components = (
{
name = tml_RrU;
}
);
layerId = "A6FF5082-DE18-4D2D-8E01-54AF1261B41D";
name = Bold;
paths = (
{
closed = 1;
nodes = (
"1150 560 LINE",
"1150 463 LINE",
"1050 463 LINE",
"1050 -13 LINE",
"943 -13 LINE",
"943 463 LINE",
"828 463 LINE",
"828 560 LINE"
);
}
);
width = 1180;
},
{
layerId = "E14DABE6-6E32-45CC-852E-073741854548";
name = Light;
width = 600;
}
);
},
{
glyphname = tml_RrU;
lastChange = "2015-12-16 16:11:37 +0000";
layers = (
{
layerId = "A6FF5082-DE18-4D2D-8E01-54AF1261B41D";
name = Bold;
paths = (
{
closed = 1;
nodes = (
"289 573 OFFCURVE",
"366 534 OFFCURVE",
"369 426 CURVE",
"289 390 LINE",
"290 443 OFFCURVE",
"265 473 OFFCURVE",
"223 473 CURVE SMOOTH",
"193 473 OFFCURVE",
"159 452 OFFCURVE",
"157 392 CURVE SMOOTH",
"157 0 LINE",
"48 0 LINE",
"48 408 LINE SMOOTH",
"48 506 OFFCURVE",
"124 575 OFFCURVE",
"213 574 CURVE SMOOTH"
);
},
{
closed = 1;
nodes = (
"289 0 LINE",
"289 460 LINE",
"396 460 LINE",
"394 -1 LINE"
);
},
{
closed = 1;
nodes = (
"107 -349 OFFCURVE",
"30 -252 OFFCURVE",
"30 -180 CURVE SMOOTH",
"30 -125 OFFCURVE",
"71 -64 OFFCURVE",
"169 -64 CURVE",
"738 -62 LINE",
"738 560 LINE",
"845 560 LINE",
"845 -159 LINE",
"183 -158 LINE",
"152 -158 OFFCURVE",
"137 -165 OFFCURVE",
"137 -190 CURVE SMOOTH",
"137 -222 OFFCURVE",
"207 -252 OFFCURVE",
"304 -252 CURVE SMOOTH",
"566 -252 OFFCURVE",
"569 43 OFFCURVE",
"567 234 CURVE SMOOTH",
"565 416 OFFCURVE",
"537 476 OFFCURVE",
"468 476 CURVE SMOOTH",
"407 476 OFFCURVE",
"395 420 OFFCURVE",
"394 390 CURVE",
"324 431 LINE",
"324 506 OFFCURVE",
"374 573 OFFCURVE",
"473 573 CURVE SMOOTH",
"615 573 OFFCURVE",
"677 461 OFFCURVE",
"677 234 CURVE SMOOTH",
"677 -28 OFFCURVE",
"645 -349 OFFCURVE",
"304 -349 CURVE SMOOTH"
);
}
);
width = 875;
},
{
layerId = "E14DABE6-6E32-45CC-852E-073741854548";
name = Light;
width = 600;
}
);
},
{
glyphname = tml_RU;
lastChange = "2015-12-15 14:01:32 +0000";
layers = (
{
layerId = "A6FF5082-DE18-4D2D-8E01-54AF1261B41D";
name = Bold;
paths = (
{
closed = 1;
nodes = (
"327 0 LINE",
"327 473 LINE",
"327 560 LINE",
"796 560 LINE",
"796 462 LINE",
"693 462 LINE",
"693 0 LINE",
"657 0 OFFCURVE",
"621 0 OFFCURVE",
"585 0 CURVE",
"585 462 LINE",
"434 462 LINE",
"434 0 LINE"
);
},
{
closed = 1;
nodes = (
"217 526 LINE",
"171 457 OFFCURVE",
"137 354 OFFCURVE",
"137 234 CURVE SMOOTH",
"137 10 OFFCURVE",
"280 -161 OFFCURVE",
"519 -160 CURVE SMOOTH",
"710 -159 OFFCURVE",
"812 -34 OFFCURVE",
"812 134 CURVE SMOOTH",
"812 213 OFFCURVE",
"785 267 OFFCURVE",
"744 267 CURVE SMOOTH",
"702 267 OFFCURVE",
"693 229 OFFCURVE",
"693 204 CURVE",
"644 235 LINE SMOOTH",
"644 308 OFFCURVE",
"692 358 OFFCURVE",
"756 358 CURVE SMOOTH",
"850 358 OFFCURVE",
"914 280 OFFCURVE",
"914 131 CURVE SMOOTH",
"914 -96 OFFCURVE",
"787 -268 OFFCURVE",
"508 -267 CURVE SMOOTH",
"213 -266 OFFCURVE",
"30 -65 OFFCURVE",
"30 229 CURVE SMOOTH",
"30 356 OFFCURVE",
"62 484 OFFCURVE",
"121 574 CURVE"
);
}
);
width = 944;
},
{
layerId = "E14DABE6-6E32-45CC-852E-073741854548";
name = Light;
width = 600;
}
);
},
{
glyphname = tml_RUu;
lastChange = "2015-12-15 14:04:03 +0000";
layers = (
{
layerId = "A6FF5082-DE18-4D2D-8E01-54AF1261B41D";
name = Bold;
paths = (
{
closed = 1;
nodes = (
"30 0 LINE",
"30 473 LINE",
"30 560 LINE",
"499 560 LINE",
"499 462 LINE",
"396 462 LINE",
"396 0 LINE",
"360 0 OFFCURVE",
"324 0 OFFCURVE",
"288 0 CURVE",
"288 462 LINE",
"137 462 LINE",
"137 0 LINE"
);
},
{
closed = 1;
nodes = (
"-80 -266 OFFCURVE",
"-340 -134 OFFCURVE",
"-340 191 CURVE SMOOTH",
"-340 344 OFFCURVE",
"-288 573 OFFCURVE",
"-133 573 CURVE SMOOTH",
"-42 573 OFFCURVE",
"-5 492 OFFCURVE",
"-5 428 CURVE SMOOTH",
"-5 362 OFFCURVE",
"-44 287 OFFCURVE",
"-127 287 CURVE SMOOTH",
"-206 287 OFFCURVE",
"-237 354 OFFCURVE",
"-237 408 CURVE SMOOTH",
"-237 461 OFFCURVE",
"-206 501 OFFCURVE",
"-161 511 CURVE",
"-142 487 LINE",
"-163 482 OFFCURVE",
"-176 460 OFFCURVE",
"-176 426 CURVE SMOOTH",
"-176 390 OFFCURVE",
"-161 366 OFFCURVE",
"-132 366 CURVE SMOOTH",
"-105 366 OFFCURVE",
"-89 390 OFFCURVE",
"-89 425 CURVE SMOOTH",
"-89 460 OFFCURVE",
"-102 488 OFFCURVE",
"-131 488 CURVE",
"-206 488 OFFCURVE",
"-240 326 OFFCURVE",
"-240 204 CURVE SMOOTH",
"-240 -64 OFFCURVE",
"5 -160 OFFCURVE",
"192 -160 CURVE SMOOTH",
"383 -160 OFFCURVE",
"515 -34 OFFCURVE",
"515 134 CURVE SMOOTH",
"515 213 OFFCURVE",
"488 267 OFFCURVE",
"447 267 CURVE SMOOTH",
"405 267 OFFCURVE",
"396 229 OFFCURVE",
"396 204 CURVE",
"347 235 LINE SMOOTH",
"347 308 OFFCURVE",
"395 358 OFFCURVE",
"459 358 CURVE SMOOTH",
"553 358 OFFCURVE",
"617 280 OFFCURVE",
"617 131 CURVE SMOOTH",
"617 -96 OFFCURVE",
"460 -268 OFFCURVE",
"181 -267 CURVE SMOOTH"
);
}
);
width = 529;
},
{
layerId = "E14DABE6-6E32-45CC-852E-073741854548";
name = Light;
width = 600;
}
);
},
{
glyphname = tml_TtI;
lastChange = "2015-11-30 19:38:24 +0000";
layers = (
{
components = (
{
name = tml_Tta;
}
);
layerId = "A6FF5082-DE18-4D2D-8E01-54AF1261B41D";
name = Bold;
paths = (
{
closed = 1;
nodes = (
"408 45 LINE SMOOTH",
"274.079 46.803 OFFCURVE",
"219.036 199.765 OFFCURVE",
"219 319 CURVE SMOOTH",
"218.949 471.299 OFFCURVE",
"278.255 572.445 OFFCURVE",
"396 573 CURVE SMOOTH",
"481.909 573.405 OFFCURVE",
"561.224 525.137 OFFCURVE",
"562 374 CURVE SMOOTH",
"564 -146 LINE SMOOTH",
"456 -146 LINE SMOOTH",
"455 393 LINE SMOOTH",
"454.912 443.703 OFFCURVE",
"435.333 475 OFFCURVE",
"396 475 CURVE SMOOTH",
"348.833 475 OFFCURVE",
"316.744 416.767 OFFCURVE",
"317 319 CURVE SMOOTH",
"317.297 188.958 OFFCURVE",
"371 98 OFFCURVE",
"444.303 98 CURVE SMOOTH"
);
}
);
width = 657;
},
{
layerId = "E14DABE6-6E32-45CC-852E-073741854548";
name = Light;
width = 600;
}
);
},
{
glyphname = tml_TtU;
lastChange = "2015-12-16 16:22:26 +0000";
layers = (
{
layerId = "A6FF5082-DE18-4D2D-8E01-54AF1261B41D";
name = Bold;
paths = (
{
closed = 1;
nodes = (
"692 560 LINE",
"693 0 LINE",
"657 0 OFFCURVE",
"621 0 OFFCURVE",
"585 0 CURVE",
"585 560 LINE"
);
},
{
closed = 1;
nodes = (
"494 529 LINE",
"448 460 OFFCURVE",
"417 314 OFFCURVE",
"417 194 CURVE SMOOTH",
"417 -20 OFFCURVE",
"490 -161 OFFCURVE",
"639 -160 CURVE SMOOTH",
"790 -159 OFFCURVE",
"812 -4 OFFCURVE",
"812 104 CURVE SMOOTH",
"812 183 OFFCURVE",
"785 267 OFFCURVE",
"744 267 CURVE SMOOTH",
"702 267 OFFCURVE",
"693 229 OFFCURVE",
"693 204 CURVE",
"644 235 LINE SMOOTH",
"644 308 OFFCURVE",
"692 358 OFFCURVE",
"756 358 CURVE SMOOTH",
"850 358 OFFCURVE",
"914 250 OFFCURVE",
"914 101 CURVE SMOOTH",
"914 -76 OFFCURVE",
"857 -268 OFFCURVE",
"628 -267 CURVE SMOOTH",
"433 -266 OFFCURVE",
"310 -95 OFFCURVE",
"310 189 CURVE SMOOTH",
"310 316 OFFCURVE",
"342 484 OFFCURVE",
"401 574 CURVE"
);
}
);
width = 944;
},
{
layerId = "E14DABE6-6E32-45CC-852E-073741854548";
name = Light;
width = 600;
}
);
},
{
glyphname = tml_TtIi;
lastChange = "2015-11-30 19:38:24 +0000";
layers = (
{
components = (
{
name = tml_Tta;
}
);
layerId = "A6FF5082-DE18-4D2D-8E01-54AF1261B41D";
name = Bold;
paths = (
{
closed = 1;
nodes = (
"219 205 CURVE SMOOTH",
"219.313 372.059 OFFCURVE",
"339.246 441.638 OFFCURVE",
"452 441 CURVE SMOOTH",
"554.021 440.423 OFFCURVE",
"602 368.815 OFFCURVE",
"602 277 CURVE SMOOTH",
"602 154.784 OFFCURVE",
"532 129.179 OFFCURVE",
"478 129.179 CURVE SMOOTH",
"409.999 129.179 OFFCURVE",
"353.671 167.895 OFFCURVE",
"353.196 267 CURVE SMOOTH",
"352.864 336.399 OFFCURVE",
"404 394 OFFCURVE",
"441 420 CURVE",
"477 345 LINE",
"451 345 OFFCURVE",
"435.017 306.833 OFFCURVE",
"435 275 CURVE SMOOTH",
"434.973 222.753 OFFCURVE",
"453.643 202.718 OFFCURVE",
"479 202.718 CURVE SMOOTH",
"505 202.718 OFFCURVE",
"518 232.185 OFFCURVE",
"518 277 CURVE SMOOTH",
"518 303 OFFCURVE",
"511.667 344.967 OFFCURVE",
"476 345 CURVE SMOOTH",
"379.753 345.09 OFFCURVE",
"322.673 301.704 OFFCURVE",
"323 204 CURVE SMOOTH",
"323.217 139.278 OFFCURVE",
"354.195 100.195 OFFCURVE",
"398 99 CURVE SMOOTH",
"398 6 LINE SMOOTH",
"331.444 6 OFFCURVE",
"218.724 57.885 OFFCURVE"
);
}
);
width = 657;
},
{
layerId = "E14DABE6-6E32-45CC-852E-073741854548";
name = Light;
width = 600;
}
);
},
{
glyphname = tml_TU;
lastChange = "2015-12-15 17:51:15 +0000";
layers = (
{
background = {
paths = (
{
closed = 1;
nodes = (
"603 239 OFFCURVE",
"538 341 OFFCURVE",
"391 341 CURVE SMOOTH",
"172 341 LINE SMOOTH",
"84 341 OFFCURVE",
"29 268 OFFCURVE",
"30 175 CURVE SMOOTH",
"31 75 OFFCURVE",
"82 1 OFFCURVE",
"212 1 CURVE SMOOTH",
"375 1 OFFCURVE",
"415 100 OFFCURVE",
"415 207 CURVE SMOOTH",
"415 464 LINE",
"518 464 LINE",
"518 560 LINE",
"139 560 LINE",
"139 309 LINE",
"223 309 LINE",
"223 464 LINE",
"318 464 LINE",
"318 301 LINE",
"308 289 LINE",
"308 207 LINE SMOOTH",
"308 140 OFFCURVE",
"277 96 OFFCURVE",
"212 96 CURVE SMOOTH",
"161 96 OFFCURVE",
"130 123 OFFCURVE",
"130 175 CURVE SMOOTH",
"130 214 OFFCURVE",
"150 244 OFFCURVE",
"191 244 CURVE SMOOTH",
"388 242 LINE SMOOTH",
"478 241 OFFCURVE",
"504 179 OFFCURVE",
"504 87 CURVE",
"504 -103 OFFCURVE",
"421 -252 OFFCURVE",
"303 -252 CURVE SMOOTH",
"154 -252 OFFCURVE",
"138 -215 OFFCURVE",
"138 -199 CURVE SMOOTH",
"138 -177 OFFCURVE",
"155 -169 OFFCURVE",
"173 -169 CURVE",
"889 -171 LINE",
"889 573 LINE",
"782 573 LINE",
"782 -74 LINE",
"158 -74 LINE",
"82 -74 OFFCURVE",
"31 -124 OFFCURVE",
"31 -193 CURVE SMOOTH",
"31 -275 OFFCURVE",
"145 -349 OFFCURVE",
"303 -349 CURVE SMOOTH",
"536 -349 OFFCURVE",
"603 -87 OFFCURVE",
"603 86 CURVE"
);
}
);
};
layerId = "A6FF5082-DE18-4D2D-8E01-54AF1261B41D";
name = Bold;
paths = (
{
closed = 1;
nodes = (
"603 199 OFFCURVE",
"538 341 OFFCURVE",
"391 341 CURVE SMOOTH",
"172 341 LINE SMOOTH",
"84 341 OFFCURVE",
"29 268 OFFCURVE",
"30 175 CURVE SMOOTH",
"31 75 OFFCURVE",
"82 1 OFFCURVE",
"212 1 CURVE SMOOTH",
"375 1 OFFCURVE",
"415 100 OFFCURVE",
"415 207 CURVE SMOOTH",
"415 464 LINE",
"518 464 LINE",
"518 560 LINE",
"139 560 LINE",
"139 309 LINE",
"223 309 LINE",
"223 464 LINE",
"318 464 LINE",
"318 301 LINE",
"308 289 LINE",
"308 207 LINE SMOOTH",
"308 140 OFFCURVE",
"277 96 OFFCURVE",
"212 96 CURVE SMOOTH",
"161 96 OFFCURVE",
"130 123 OFFCURVE",
"130 175 CURVE SMOOTH",
"130 214 OFFCURVE",
"150 244 OFFCURVE",
"191 244 CURVE SMOOTH",
"388 242 LINE SMOOTH",
"478 241 OFFCURVE",
"504 139 OFFCURVE",
"504 47 CURVE SMOOTH",
"504 -143 OFFCURVE",
"411 -252 OFFCURVE",
"293 -252 CURVE SMOOTH",
"157 -252 OFFCURVE",
"138 -205 OFFCURVE",
"138 -189 CURVE SMOOTH",
"138 -167 OFFCURVE",
"148 -149 OFFCURVE",
"183 -149 CURVE",
"770 -151 LINE",
"770 573 LINE",
"663 573 LINE",
"663 -54 LINE",
"158 -54 LINE",
"75 -54 OFFCURVE",
"31 -120 OFFCURVE",
"31 -189 CURVE SMOOTH",
"31 -271 OFFCURVE",
"135 -349 OFFCURVE",
"293 -349 CURVE SMOOTH",
"526 -349 OFFCURVE",
"603 -127 OFFCURVE",
"603 46 CURVE SMOOTH"
);
}
);
width = 800;
},
{
layerId = "E14DABE6-6E32-45CC-852E-073741854548";
name = Light;
width = 600;
}
);
},
{
glyphname = tml_TUu;
lastChange = "2015-12-16 16:35:53 +0000";
layers = (
{
components = (
{
name = tml_TU;
}
);
layerId = "A6FF5082-DE18-4D2D-8E01-54AF1261B41D";
name = Bold;
paths = (
{
closed = 1;
nodes = (
"753 476 LINE",
"868 476 LINE",
"868 -13 LINE",
"975 -13 LINE",
"975 476 LINE",
"1075 476 LINE",
"1075 573 LINE",
"753 573 LINE"
);
}
);
width = 1105;
},
{
layerId = "E14DABE6-6E32-45CC-852E-073741854548";
name = Light;
width = 600;
}
);
},
{
glyphname = tml_A.001;
lastChange = "2015-12-19 11:42:04 +0000";
layers = (
{
layerId = "A6FF5082-DE18-4D2D-8E01-54AF1261B41D";
name = Bold;
paths = (
{
closed = 1;
nodes = (
"106 -31 OFFCURVE",
"160 -106 OFFCURVE",
"282 -106 CURVE SMOOTH",
"434 -106 OFFCURVE",
"508 7 OFFCURVE",
"508 171 CURVE SMOOTH",
"508 173 OFFCURVE",
"510 203 OFFCURVE",
"510 207 CURVE SMOOTH",
"510 388 OFFCURVE",
"475 524 OFFCURVE",
"334 524 CURVE SMOOTH",
"243 524 OFFCURVE",
"231 444 OFFCURVE",
"231 406 CURVE SMOOTH",
"231 371 OFFCURVE",
"245 346 OFFCURVE",
"275 346 CURVE SMOOTH",
"308 346 OFFCURVE",
"318 381 OFFCURVE",
"318 404 CURVE SMOOTH",
"318 436 OFFCURVE",
"299 458 OFFCURVE",
"275 458 CURVE SMOOTH",
"247 458 OFFCURVE",
"232 433 OFFCURVE",
"231 405 CURVE",
"177 417 LINE",
"177 456 OFFCURVE",
"216 529 OFFCURVE",
"285 529 CURVE SMOOTH",
"331 529 OFFCURVE",
"402 501 OFFCURVE",
"402 401 CURVE SMOOTH",
"402 323 OFFCURVE",
"356 267 OFFCURVE",
"278 267 CURVE SMOOTH",
"194 267 OFFCURVE",
"144 333 OFFCURVE",
"144 422 CURVE SMOOTH",
"144 540 OFFCURVE",
"232 622 OFFCURVE",
"352 621 CURVE SMOOTH",
"579 619 OFFCURVE",
"619 399 OFFCURVE",
"619 220 CURVE SMOOTH",
"619 215 OFFCURVE",
"617 174 OFFCURVE",
"617 161 CURVE SMOOTH",
"615 -73 OFFCURVE",
"501 -210 OFFCURVE",
"276 -210 CURVE SMOOTH",
"75 -210 OFFCURVE",
"-1 -100 OFFCURVE",
"-1 12 CURVE SMOOTH",
"-1 197 OFFCURVE",
"147 229 OFFCURVE",
"222 229 CURVE SMOOTH",
"715 229 LINE",
"715 131 LINE",
"219 131 LINE SMOOTH",
"158 131 OFFCURVE",
"108 84 OFFCURVE",
"107 31 CURVE SMOOTH"
);
},
{
closed = 1;
nodes = (
"697 -115 LINE",
"697 562 LINE",
"804 562 LINE",
"804 -115 LINE"
);
}
